<svg id="elcos_new_version" xmlns="http://www.w3.org/2000/svg" xmlns:xlink="http://www.w3.org/1999/xlink" viewBox="0 0 1920 1080" shape-rendering="geometricPrecision" text-rendering="geometricPrecision" style="background-color:#fff"><defs><rect id="elcos_new_version-u-svgid_1_2" width="682.7" height="682.7" rx="0" ry="0"/><rect id="elcos_new_version-u-svgid_1_3" width="682.7" height="682.7" rx="0" ry="0"/></defs><g id="elcos_new_version-u-motore" transform="matrix(.968726 0 0-.968725 742.443186 799.278154)"><g id="elcos_new_version-u-g8078"><g id="elcos_new_version-s-g1"><g id="elcos_new_version-s-g2" clip-path="url(#elcos_new_version-u-svgid_00000031895145541961005060000015631709089477610642_)"><g id="elcos_new_version-u-g8080"><g id="elcos_new_version-u-g8098" transform="translate(73.9746 274.284)"><path id="elcos_new_version-u-path8100" d="M352.9,-24.3l11.2-17.9h98.864929c11.6,0,13.496871,9.977608,13.496871,21.577608C476.3618,-9.022392,474.564928,0,462.964928,0L364,0l-11.1-24.3Z" clip-rule="evenodd" fill="#f9f7f8" fill-rule="evenodd"/></g><g id="elcos_new_version-u-g8102" transform="translate(180.73 379.796)"><path id="elcos_new_version-u-path8104" d="M-66.6,0l-20.7-123.9l20.7-129.4h217.1l17.2,125.9L150.5,0h-217.1Z" clip-rule="evenodd" fill="#dddaeb" fill-rule="evenodd"/></g><g id="elcos_new_version-u-g8106" transform="translate(503.974 348.131)"><path id="elcos_new_version-u-path8108" d="M-495.9,0c-.3-2.4-.6-4.9-.5-7.5l.5-20.9l48.9-61-48.9-72.1h-.5v-20.9c0-2.6.2-5,.5-7.5c3.7-25.3,25.6-45,51.9-45h48.1c3.4,0,6.1,2.8,6.1,6.1v7.2v253.3v7.2c0,3.3-2.8,6.1-6.1,6.1h-48.1c-26.3,0-48.3-19.7-51.9-45" clip-rule="evenodd" fill="#dddaeb" fill-rule="evenodd"/></g><g id="elcos_new_version-u-g8110" transform="translate(503.974 319.755)"><path id="elcos_new_version-u-path8112" d="M-496.5,0v-133.2h.5h38.2c2,0,4,.6,5.6,1.6c3.1,1.9,5.2,5.3,5.2,9.2v111.7c0,3.9-2.1,7.3-5.2,9.2-1.6,1-3.5,1.6-5.6,1.6h-38.2l-.5-.1Z" clip-rule="evenodd" fill="#dddaeb" fill-rule="evenodd"/></g><g id="elcos_new_version-u-g8114" transform="translate(220.189 126.563)"><path id="elcos_new_version-u-path8116" d="M71.6,-60l22.7-12.6L111.1,-60v60L91.4,14.4L71.6,0v-60Z" clip-rule="evenodd" fill="#dddaeb" fill-rule="evenodd"/></g><g id="elcos_new_version-u-g8118" transform="translate(350.19 66.5508)"><path id="elcos_new_version-u-path8120" d="M-168.6,-20l19.7,20v60l-19.7,18.4L-188.4,60v-60l19.8-20Z" clip-rule="evenodd" fill="#dddaeb" fill-rule="evenodd"/></g><g id="elcos_new_version-u-g8122" transform="translate(220.189 161.402)"><path id="elcos_new_version-u-path8124" d="M-18.9,0h-28.6C-68.7,0,-76,-3.3,-76,18v200.4h-30L-106,0v-34.8h47.7h39.5h90.5h39.5v34.8h-39.6-90.5Z" clip-rule="evenodd" fill="#d2cee7" fill-rule="evenodd"/></g><g id="elcos_new_version-u-g8126" transform="translate(480.842 290.925)"><path id="elcos_new_version-u-path8128" d="M-449.7,28.8h-23.1-.5v-133.2h.5h23.2c-.1,1-.1,2-.1,3.1v20.9v10.1v70.3v28.8Z" clip-rule="evenodd" fill="#d2cee7" fill-rule="evenodd"/></g><g id="elcos_new_version-u-g8130" transform="translate(464.94 144.621)"><path id="elcos_new_version-u-path8132" d="M-417.9,0c-12.1,9.3-14.9,26.8-15.8,42h-23.2-.5v-20.9c0-2.6.2-5,.5-7.5c3.7-25.3,25.6-45,51.9-45h48.1c3.4,0,6.1,2.8,6.1,6.1v7.2v10.7h-30.6c-11.9,0-27.6.6-36.5,7.4" clip-rule="evenodd" fill="#d2cee7" fill-rule="evenodd"/></g><g id="elcos_new_version-u-g8134" transform="translate(503.974 348.131)"><path id="elcos_new_version-u-path8136" d="M-495.9,0c-.3-2.4-.6-4.9-.5-7.5l.5-20.9h23.1l-.5,20.9c-.1,2.5.2,5,.5,7.5c3.7,25.3,25.6,45,51.9,45h-23.1c-26.3,0-48.3-19.7-51.9-45" clip-rule="evenodd" fill="#d2cee7" fill-rule="evenodd"/></g><g id="elcos_new_version-u-g8138" transform="translate(138.72 66.5508)"><path id="elcos_new_version-u-path8140" d="M234.6,0c6,0,11-4.9,11-11v-18c0-6-5-11-11-11h-253.5c-6,0-11,5-11,11v18c0,6.1,5,11,11,11h253.5" clip-rule="evenodd" fill="#dddaeb" fill-rule="evenodd"/></g><g id="elcos_new_version-u-g8142" transform="translate(392.2 66.5508)"><path id="elcos_new_version-u-path8144" d="M-272.4,0c-6,0-11-4.9-11-11v-18c0-6,5-11,11-11h34.6c-6.1,0-11,5-11,11v18c0,6.1,4.9,11,11,11h-34.6" clip-rule="evenodd" fill="#d2cee7" fill-rule="evenodd"/></g><g id="elcos_new_version-u-g8146" transform="translate(220.189 126.563)"><path id="elcos_new_version-u-path8148" d="M71.6,-60h18v33.6c0,9.2-1.5,9.6,7.8,9.6h13.7v16.8h-39.5v-60Z" clip-rule="evenodd" fill="#d2cee7" fill-rule="evenodd"/></g><g id="elcos_new_version-u-g8150" transform="translate(350.19 126.563)"><path id="elcos_new_version-u-path8152" d="M-188.4,-60h18v33.6c0,9.2-1.5,9.6,7.8,9.6h13.7v16.8h-39.5v-60Z" clip-rule="evenodd" fill="#d2cee7" fill-rule="evenodd"/></g><g id="elcos_new_version-u-g8154" transform="translate(73.9746 249.31)"><path id="elcos_new_version-u-path8156" d="M364.1,-16.9v-.3l86.480677,1.786537c24.487845-1.486537,21.1,7.069,21.1,18.669c0,2.5-.4,4.9-1.2,7.1-2.9-8.1-10.7-8.569-19.8-8.569L364.2,0v-16.9Z" clip-rule="evenodd" fill="#e5e4ec" fill-rule="evenodd"/></g><g id="elcos_new_version-u-g8158" transform="translate(113.207 201.401)"><path id="elcos_new_version-u-path8160" d="M308.1,0c9.2,0,16.8,7.5,16.8,16.8v13.9v42.2v13.9c0,9.2-7.5,16.8-16.8,16.8h-22.5L275.1,56.4L285.6,0h22.5Z" clip-rule="evenodd" fill="#dddaeb" fill-rule="evenodd"/></g><g id="elcos_new_version-u-g8162" transform="translate(73.9746 241.77)"><path id="elcos_new_version-u-path8164" d="M364.1,0c-.2-9.1-7.7-16.4-16.8-16.4h-22.5v-23.9h22.5c9.2,0,16.8,7.5,16.8,16.8v23.5" clip-rule="evenodd" fill="#d2cee7" fill-rule="evenodd"/></g><g id="elcos_new_version-u-g8166" transform="translate(180.73 379.796)"><path id="elcos_new_version-u-path8168" d="M150.5,-253.2c37.1,0,67.5,30.4,67.5,67.5v7.3v103.5v7.3c0,37.1-30.4,67.5-67.5,67.5v-253.1Z" clip-rule="evenodd" fill="#dddaeb" fill-rule="evenodd"/></g><g id="elcos_new_version-u-g8170" transform="translate(113.207 194.088)"><path id="elcos_new_version-u-path8172" d="M285.6,7.3v27.6c0-37.2-30.4-67.6-67.5-67.6v-34.8c37.1,0,67.5,30.4,67.5,67.5v7.3Z" clip-rule="evenodd" fill="#d2cee7" fill-rule="evenodd"/></g><g id="elcos_new_version-u-g8174" transform="translate(180.73 234.541)"><path id="elcos_new_version-u-path8176" d="M150.5,-108v108m0,34.6v110.6" fill="none" stroke="#000" stroke-width="10" stroke-linecap="round" stroke-linejoin="round" stroke-miterlimit="13.3333"/></g><g id="elcos_new_version-u-g8178" transform="translate(113.207 304.929)"><path id="elcos_new_version-u-path8180" d="M285.6,-103.5h22.5c9.2,0,16.8,7.5,16.8,16.8v70c0,0-7.5,16.8-16.8,16.8h-22.5v-103.6Z" fill="none" stroke="#000" stroke-width="10" stroke-linecap="round" stroke-linejoin="round" stroke-miterlimit="13.3333"/></g><g id="elcos_new_version-u-g8182" transform="translate(28.5908 274.284)"><path id="elcos_new_version-u-path8184" d="M517.691631,-19.753371c0,0,2.760691-22.446629,2.760691-22.446629L409.4,-42.2v42.2l106.116231.071039c0,0,2.1754-19.82441,2.1754-19.82441Z" fill="none" stroke="#000" stroke-width="10" stroke-linecap="round" stroke-linejoin="round" stroke-miterlimit="13.3333"/></g><g id="elcos_new_version-u-g8186" transform="translate(397.812 269.153)"><path id="elcos_new_version-u-path8188" d="M-283.6,-34.6v-115.2c0-3.4-2.8-6.1-6.1-6.1h-48.1c-28.8,0-52.4,23.6-52.4,52.4v175c0,28.8,23.6,52.4,52.4,52.4h48.1c3.4,0,6.1-2.8,6.1-6.1v-117.8" fill="none" stroke="#000" stroke-width="10" stroke-linecap="round" stroke-linejoin="round" stroke-miterlimit="13.3333"/></g><g id="elcos_new_version-u-g8190" transform="translate(397.841 379.796)"><path id="elcos_new_version-u-path8192" d="M-283.7,-253.2h217.1c37.1,0,67.5,30.4,67.5,67.5v118.2C1,-30.4,-29.4,0,-66.6,0h-217.1" fill="none" stroke="#000" stroke-width="10" stroke-linecap="round" stroke-linejoin="round" stroke-miterlimit="13.3333"/></g><g id="elcos_new_version-u-g8194" transform="translate(225.887 341.781)" opacity="0"><path id="elcos_new_version-u-path8196" d="M-66.6,0h126.8" fill="none" stroke="#000" stroke-width="10" stroke-linecap="round" stroke-linejoin="round" stroke-miterlimit="13.3333"/></g><g id="elcos_new_version-u-g8198" transform="translate(225.887 297.473)" opacity="0"><path id="elcos_new_version-u-path8200" d="M-66.6,0h126.8" fill="none" stroke="#000" stroke-width="10" stroke-linecap="round" stroke-linejoin="round" stroke-miterlimit="13.3333"/></g><g id="elcos_new_version-u-g8202" transform="translate(225.887 253.165)" opacity="0"><path id="elcos_new_version-u-path8204" d="M-66.6,0h126.8" fill="none" stroke="#000" stroke-width="10" stroke-linecap="round" stroke-linejoin="round" stroke-miterlimit="13.3333"/></g><g id="elcos_new_version-u-g8206" transform="translate(225.887 208.857)" opacity="0"><path id="elcos_new_version-u-path8208" d="M-66.6,0h126.8" fill="none" stroke="#000" stroke-width="10" stroke-linecap="round" stroke-linejoin="round" stroke-miterlimit="13.3333"/></g><g id="elcos_new_version-u-g8210" transform="translate(225.887 164.55)" opacity="0"><path id="elcos_new_version-u-path8212" d="M-66.6,0h126.8" fill="none" stroke="#000" stroke-width="10" stroke-linecap="round" stroke-linejoin="round" stroke-miterlimit="13.3333"/></g><g id="elcos_new_version-u-g8214" transform="translate(504.483 319.755)"><path id="elcos_new_version-u-path8216" d="M-497,-133.1h38.7c5.9,0,10.7,4.8,10.7,10.7v111.7c0,5.9-4.8,10.7-10.7,10.7h-38.7v-133.1Z" fill="none" stroke="#000" stroke-width="10" stroke-linecap="round" stroke-linejoin="round" stroke-miterlimit="13.3333"/></g><path id="elcos_new_version-u-path8218" d="M331.3,126.6h-39.5v-60h39.5v60Z" fill="none" stroke="#000" stroke-width="10" stroke-linecap="round" stroke-linejoin="round" stroke-miterlimit="13.3333"/><path id="elcos_new_version-u-path8220" d="M201.3,126.6h-39.5v-60h39.5v60Z" fill="none" stroke="#000" stroke-width="10" stroke-linecap="round" stroke-linejoin="round" stroke-miterlimit="13.3333"/><g id="elcos_new_version-u-g8222" transform="translate(138.72 66.5508)"><path id="elcos_new_version-u-path8224" d="M245.6,-11v-18c0-6-5-11-11-11h-253.5c-6,0-11,5-11,11v18c0,6.1,5,11,11,11h253.5c6,0,11-4.9,11-11Z" fill="none" stroke="#000" stroke-width="10" stroke-linecap="round" stroke-linejoin="round" stroke-miterlimit="13.3333"/></g></g><clipPath id="elcos_new_version-u-svgid_00000031895145541961005060000015631709089477610642_"><use id="elcos_new_version-s-use1" width="682.700012" height="682.700012" xlink:href="#elcos_new_version-u-svgid_1_3" transform="translate(-85.3-85.3)"/></clipPath></g></g></g></g><g id="elcos_new_version-u-tower" transform="matrix(.720669 0 0 0.720674 284.541643 237.964654)"><g id="elcos_new_version-s-g3"><path id="elcos_new_version-s-path1" d="M465.135,165.947L325.631,126.09v-69.652h88.512v16.036h-13.194c-4.149,0-7.512,3.362-7.512,7.512v31.062c0,4.15,3.363,7.512,7.512,7.512h41.415c4.149,0,7.512-3.362,7.512-7.512v-31.061c0-4.15-3.363-7.512-7.512-7.512h-13.197v-16.037h33.905c3.746,0,6.92-2.76,7.44-6.47s-1.774-7.235-5.376-8.265L320.359,0.341c-.008-.003-.017-.005-.025-.007l-.152-.043c-.059-.017-.117-.026-.176-.041-.161-.042-.323-.082-.488-.113-.12-.023-.239-.038-.359-.055-.119-.017-.237-.035-.358-.046-.166-.015-.332-.021-.498-.025-.062-.003-.122-.011-.184-.011h-.161c-.007,0-.015,0-.022,0h-123.872c-.013,0-.027,0-.04,0h-.147c-.057,0-.113.007-.17.009-.172.004-.344.01-.516.026-.115.01-.228.028-.343.044-.124.018-.248.033-.374.057-.162.031-.321.07-.478.111-.061.016-.122.025-.183.042l-.156.045c-.006.002-.012.003-.018.005L46.861,41.703c-3.602,1.03-5.895,4.555-5.375,8.265s3.694,6.47,7.44,6.47h33.903v16.036h-13.197c-4.149,0-7.512,3.362-7.512,7.512v31.062c0,4.15,3.363,7.512,7.512,7.512h41.415c4.149,0,7.512-3.362,7.512-7.512v-31.061c0-4.15-3.363-7.512-7.512-7.512h-13.196v-16.037h88.514v69.651L46.861,165.947c-3.602,1.03-5.895,4.555-5.375,8.265s3.694,6.47,7.44,6.47h33.903v16.036h-13.197c-4.149,0-7.512,3.362-7.512,7.512v31.062c0,4.15,3.363,7.512,7.512,7.512h41.415c4.149,0,7.512-3.362,7.512-7.512v-31.062c0-4.15-3.363-7.512-7.512-7.512h-13.196v-16.036h88.514v74.265L155.642,362.473c-.001.004-.002.009-.004.013l-.06.209c-.001.003-.002.007-.003.01l-.014.049c-.002.009-.005.018-.008.026L126.086,465.91h-15.041c-4.149,0-7.512,3.362-7.512,7.512v23.551h-15.35c-4.149,0-7.512,3.362-7.512,7.512s3.363,7.512,7.512,7.512h22.864h289.904h22.862c4.149,0,7.512-3.362,7.512-7.512s-3.363-7.512-7.512-7.512h-15.35v-23.551c0-4.15-3.363-7.512-7.512-7.512h-15.042L356.444,362.787c-.004-.015-.009-.031-.013-.046l-.068-.239c-.004-.012-.007-.024-.01-.036l-30.721-107.52v-74.265h88.512v16.036h-13.194c-4.149,0-7.512,3.362-7.512,7.512v31.062c0,4.15,3.363,7.512,7.512,7.512h41.415c4.149,0,7.512-3.362,7.512-7.512v-31.061c0-4.15-3.363-7.512-7.512-7.512h-13.197v-16.036h33.905c3.746,0,6.92-2.76,7.44-6.47.517-3.71-1.777-7.235-5.378-8.265ZM434.852,87.499v16.038h-26.391v-16.038h26.391ZM325.631,17.472l83.804,23.943h-83.804v-23.943ZM103.535,87.499v16.038h-26.391v-16.038h26.391Zm0,124.242v16.038h-26.391v-16.038h26.391ZM201.389,15.024h109.218v26.391h-109.218v-26.391ZM310.607,56.438v61.281L218.685,56.438h91.922ZM201.389,62.963l91.92,61.28h-91.92v-61.28Zm0,76.304h109.218v26.392h-109.218v-26.392ZM186.647,357.199l69.352-48.546l69.352,48.546h-138.704Zm130.714,15.024l-61.363,30.682-61.362-30.682h122.725ZM217.708,263.511h76.58l-38.29,26.802-38.29-26.802Zm92.899-82.829v61.28l-91.921-61.28h91.921Zm-109.218,6.524l91.923,61.282h-91.923v-61.282ZM102.56,41.414l83.805-23.943v23.943h-83.805Zm0,124.244l83.805-23.945v23.945h-83.805Zm95.644,102.54l44.695,31.286-67.042,46.928l22.347-78.214ZM167.552,375.477l71.649,35.825-95.533,47.767l23.884-83.592ZM380.237,480.939v0h.002c.009,0,.019-.002.028-.002h13.173v16.039h-.001-274.879v-16.039h13.172c.01,0,.019.002.028.002.011,0,.023-.002.034-.002h.108c.013,0,.027,0,.04,0h70.751c4.149,0,7.512-3.362,7.512-7.512s-3.363-7.512-7.512-7.512h-39.119l92.424-46.212l92.424,46.212h-112.238c-4.149,0-7.512,3.362-7.512,7.512s3.363,7.512,7.512,7.512h144.019c.011,0,.023.002.034.002Zm-11.909-21.87l-95.533-47.767l71.649-35.825l23.884,83.592ZM336.14,346.413l-67.043-46.929l44.695-31.286l22.348,78.215ZM325.631,165.658v-23.944l83.805,23.944h-83.805Zm109.221,46.083v16.038h-26.391v-16.038h26.391Z" transform="translate(0-2.579341)" stroke="#fff" stroke-width="5"/></g><g id="elcos_new_version-u-luci" transform="matrix(1.33 0 0 1.35-362.861605-318.661913)"><rect id="elcos_new_version-s-rect1" width="22.741956" height="17.376943" rx="0" ry="0" transform="matrix(1.071295 0 0 1 328.143032 295.713921)" fill="#fbd104" stroke-width="0"/><rect id="elcos_new_version-s-rect2" width="22.741956" height="17.376943" rx="0" ry="0" transform="matrix(1.183504 0 0 1 576.877005 295.780243)" fill="#fbd104" stroke-width="0"/><rect id="elcos_new_version-s-rect3" width="22.741956" height="17.376943" rx="0" ry="0" transform="matrix(1.091752 0 0 1 576.877003 387.225732)" fill="#fbd104" stroke-width="0"/><rect id="elcos_new_version-s-rect4" width="22.741956" height="17.376943" rx="0" ry="0" transform="matrix(1.091752 0 0 1 327.677802 387.225732)" fill="#fbd104" stroke-width="0"/></g></g><g id="elcos_new_version-u-hydro" transform="matrix(.926008 0 0-.926008 1239.60686 794.949547)"><rect id="elcos_new_version-u-base-ventola" width="408.331427" height="23.1502" rx="0" ry="0" transform="matrix(1.031826 0 0 1.275721 35.22021 6.373547)" fill="#d2dbed" stroke-width="0"/><path id="elcos_new_version-u-bg-ventola" d="M1646.625496,231.433224l-490.657786-.002671-2.146596,61.078438h109.867645q4.360309,233.522499,7.493542,264.457448t37.077855,90.992303l-31.594919,86.802325-12.719791,3.96346-.000002,20.625431l87.627671-.364112-.000002-20.261319-13.110976-3.963458l28.365662-35.564311q72.964746,26.328977,98.437267,24.87769t99.166563-25.065765l30.576372,35.752387-13.731873,4.175326-.000001,16.988779l85.405524.000002.059375-17.200653-11.516392-3.68095-33.609902-92.503101q32.302146-48.878845,35.330212-112.568055c3.028066-63.68921-64.182729-187.25205-180.703319-187.252052q-116.52059-.000002-133.476205,60.819969l.826582-105.923233l9.09958-8.062114l297.226939-1.218353-3.293025-56.903411Z" transform="matrix(1.094746 0 0-1.094746-1357.693071 862.15461)" fill="#d10028" stroke-width="3.84"/><ellipse id="elcos_new_version-u-pannello-rosso" rx="121.446356" ry="121.446356" transform="translate(247.118386 277.207048)" fill="#b7022d" stroke-width="0"/><g id="elcos_new_version-u-ventola"><g id="elcos_new_version-s-g4"><g id="elcos_new_version-s-g5" clip-path="url(#elcos_new_version-u-svgid_00000119803483131934651310000003143166912779264700_)"><g id="elcos_new_version-u-g2107"><g id="elcos_new_version-s-g6" transform="matrix(-.008236 0.999966-.999966-.008236 524.916225 35.01143)"><g id="elcos_new_version-u-g2121" transform="translate(406.844 406.475)"><path id="elcos_new_version-u-path2123" d="M0,0h-160.8" fill="none" stroke="#000" stroke-width="10" stroke-linecap="round" stroke-linejoin="round" stroke-miterlimit="13.3333"/></g><g id="elcos_new_version-u-g2125" transform="translate(483.943965 404.700136)"><path id="elcos_new_version-u-path2127" d="M0,0l-3.90132-.08894c-4.2,0-7.7,3.4-7.7,7.7v92.1c0,4.2,3.4,7.7,7.7,7.7L0,107.5c4.2,0,7.7-3.4,7.7-7.7v-92.1C7.7,3.4,4.2,0,0,0Z" transform="translate(-15.539246-5.564231)" fill="#bababa" stroke="#000" stroke-width="10" stroke-linecap="round" stroke-linejoin="round" stroke-miterlimit="13.3333"/></g><g id="elcos_new_version-u-g2167" transform="translate(156.695 371.313)"><path id="elcos_new_version-u-path2169" d="M0,0c-25.7-23.9-41.7-58-41.7-95.8c0-40.5,18.4-76.7,47.3-100.7" fill="none" stroke="#000" stroke-width="10" stroke-linecap="round" stroke-linejoin="round" stroke-miterlimit="13.3333"/></g><g id="elcos_new_version-u-g2171" transform="translate(329.745 174.734)"><path id="elcos_new_version-u-path2173" d="M0,0C28.9,24,47.3,60.2,47.3,100.7c0,72.3-58.7,131-131,131-22,0-42.8-5.4-61-15" transform="matrix(.859659-.510869 0.510869 0.859659-65.259129-28.635731)" fill="none" stroke="#000" stroke-width="10" stroke-linecap="round" stroke-linejoin="round" stroke-miterlimit="13.3333"/></g><g id="elcos_new_version-u-g2175" transform="translate(329.745 85.271)"><path id="elcos_new_version-u-path2177" d="M0,0C73.3,32,124.5,105.1,124.5,190.2c0,49.7-17.5,95.3-46.6,131h48.4v88.7L-84,403.7c-115.4-3.4-207.2-98-207.2-213.4c0-84.8,50.8-157.6,123.7-189.8" fill="none" stroke="#000" stroke-width="10" stroke-linecap="round" stroke-linejoin="round" stroke-miterlimit="13.3333"/></g><g id="elcos_new_version-u-g2179" transform="translate(259.429 450.94)"><path id="elcos_new_version-u-path2181" d="M0,0c0-6.9-5.6-12.5-12.5-12.5s-12.5,5.6-12.5,12.5s5.6,12.5,12.5,12.5s12.5-5.6,12.5-12.5Z" fill="#dddaeb" stroke="#000" stroke-width="10" stroke-linecap="round" stroke-linejoin="round" stroke-miterlimit="13.3333"/></g><g id="elcos_new_version-u-g2183" transform="translate(376.16 453.791)"><path id="elcos_new_version-u-path2185" d="M0,0c0-6.9-5.6-12.5-12.5-12.5s-12.5,5.6-12.5,12.5s5.6,12.5,12.5,12.5s12.5-5.6,12.5-12.5Z" fill="#dddaeb" stroke="#000" stroke-width="10" stroke-linecap="round" stroke-linejoin="round" stroke-miterlimit="13.3333"/></g><g id="elcos_new_version-u-g2187" transform="translate(138.669 397.754)"><path id="elcos_new_version-u-path2189" d="M0,0c0-6.9-5.6-12.5-12.5-12.5s-12.5,5.6-12.5,12.5s5.6,12.5,12.5,12.5s12.5-5.6,12.5-12.5Z" fill="#dddaeb" stroke="#000" stroke-width="10" stroke-linecap="round" stroke-linejoin="round" stroke-miterlimit="13.3333"/></g><g id="elcos_new_version-u-g2191" transform="translate(357.079 394.368)"><path id="elcos_new_version-u-path2193" d="M0,0c-.2-6.9,12.1-12.9,12.1-12.9s12.7,5.2,12.9,12.1-5.2,12.7-12.1,12.9C6,12.3,0.2,6.9,0,0Z" fill="#dddaeb" stroke="#000" stroke-width="10" stroke-linecap="round" stroke-linejoin="round" stroke-miterlimit="13.3333"/></g><g id="elcos_new_version-u-g2195" transform="translate(136.769 157.625)"><path id="elcos_new_version-u-path2197" d="M0,0c0,6.9-5.6,12.5-12.5,12.5s-12.5-5.6-12.5-12.5s5.6-12.5,12.5-12.5s12.5,5.6,12.5,12.5Z" fill="#dddaeb" stroke="#000" stroke-width="10" stroke-linecap="round" stroke-linejoin="round" stroke-miterlimit="13.3333"/></g><g id="elcos_new_version-u-g2199" transform="translate(258.508 106.046)"><path id="elcos_new_version-u-path2201" d="M0,0c0,6.9-5.6,12.5-12.5,12.5s-12.5-5.6-12.5-12.5s5.6-12.5,12.5-12.5s12.5,5.6,12.5,12.5Z" fill="#dddaeb" stroke="#000" stroke-width="10" stroke-linecap="round" stroke-linejoin="round" stroke-miterlimit="13.3333"/></g><g id="elcos_new_version-u-g2203" transform="translate(89.0742 275.476)"><path id="elcos_new_version-u-path2205" d="M0,0c0-6.9-5.6-12.5-12.5-12.5s-12.5,5.6-12.5,12.5s5.6,12.5,12.5,12.5s12.5-5.6,12.5-12.5Z" fill="#dddaeb" stroke="#000" stroke-width="10" stroke-linecap="round" stroke-linejoin="round" stroke-miterlimit="13.3333"/></g><g id="elcos_new_version-u-g2207" transform="translate(356.241 157.625)"><path id="elcos_new_version-u-path2209" d="M0,0C0,6.9,5.6,12.5,12.5,12.5s12.5-5.6,12.5-12.5-5.6-12.5-12.5-12.5-12.5,5.6-12.5,12.5Z" fill="#dddaeb" stroke="#000" stroke-width="10" stroke-linecap="round" stroke-linejoin="round" stroke-miterlimit="13.3333"/></g><g id="elcos_new_version-u-g2211" transform="translate(403.935 275.476)"><path id="elcos_new_version-u-path2213" d="M0,0c0-6.9,5.6-12.5,12.5-12.5s12.5,5.6,12.5,12.5-5.6,12.5-12.5,12.5C5.6,12.5,0,6.9,0,0Z" fill="#dddaeb" stroke="#000" stroke-width="10" stroke-linecap="round" stroke-linejoin="round" stroke-miterlimit="13.3333"/></g><g id="elcos_new_version-u-g2215" transform="translate(190.065 75.6768)"><path id="elcos_new_version-u-path2217" d="M0,0c17.9-5,36.8-7.7,56.4-7.6c19.2,0,37.8,2.5,55.5,7.4" fill="none" stroke="#000" stroke-width="10" stroke-linecap="round" stroke-linejoin="round" stroke-miterlimit="13.3333"/></g></g><g id="elcos_new_version-u-g2151" transform="translate(250.5 32.5)"><path id="elcos_new_version-u-path2153" d="M0,0h216.4v-25h-441v25L-35,0" fill="none" stroke="#000" stroke-width="10" stroke-linecap="round" stroke-linejoin="round" stroke-miterlimit="13.3333"/></g><g id="elcos_new_version-u-g2159" transform="translate(120.994 32.5)"><path id="elcos_new_version-u-path2161" d="M0,0h-95.1v16.3c0,4.8,3.9,8.7,8.7,8.7h77.7C-3.9,25,0,21.1,0,16.3L0,0Z" fill="none" stroke="#000" stroke-width="10" stroke-linecap="round" stroke-linejoin="round" stroke-miterlimit="13.3333"/></g><g id="elcos_new_version-u-g2163" transform="translate(371.865 32.5)"><path id="elcos_new_version-u-path2165" d="M0,0h95.1v16.3c0,4.8-3.9,8.7-8.7,8.7h-77.7C3.9,25,0,21.1,0,16.3L0,0Z" fill="none" stroke="#000" stroke-width="10" stroke-linecap="round" stroke-linejoin="round" stroke-miterlimit="13.3333"/></g><g id="elcos_new_version-u-g2227" transform="translate(106.883 57.5)"><path id="elcos_new_version-u-path2229" d="M0,0l.7,1.6C8,17.6,20.6,30.4,36.3,37.8" fill="none" stroke="#000" stroke-width="10" stroke-linecap="round" stroke-linejoin="round" stroke-miterlimit="13.3333"/></g><g id="elcos_new_version-u-g2231" transform="translate(74.5195 158.736)"><path id="elcos_new_version-u-path2233" d="M0,0l-34.5-101.2" fill="none" stroke="#000" stroke-width="10" stroke-linecap="round" stroke-linejoin="round" stroke-miterlimit="13.3333"/></g><g id="elcos_new_version-u-g2235" transform="translate(385.977 57.5)"><path id="elcos_new_version-u-path2237" d="M0,0l-.7,1.6c-7.3,16-19.9,28.8-35.6,36.2" fill="none" stroke="#000" stroke-width="10" stroke-linecap="round" stroke-linejoin="round" stroke-miterlimit="13.3333"/></g><g id="elcos_new_version-u-g2239" transform="translate(439.966 95.2686)"><path id="elcos_new_version-u-path2241" d="M0,0c3.87-11.34,12.9-37.8,12.9-37.8" fill="none" stroke="#000" stroke-width="10" stroke-linecap="round" stroke-linejoin="round" stroke-miterlimit="13.3333"/></g><g id="elcos_new_version-u-g2243" transform="translate(418.34 158.736)"><path id="elcos_new_version-u-path2245" d="M0,0l10.6-31.1" fill="none" stroke="#000" stroke-width="10" stroke-linecap="round" stroke-linejoin="round" stroke-miterlimit="13.3333"/></g></g><clipPath id="elcos_new_version-u-svgid_00000119803483131934651310000003143166912779264700_"><use id="elcos_new_version-s-use2" width="682.700012" height="682.700012" xlink:href="#elcos_new_version-u-svgid_1_2" transform="translate(-85.3-85.3)"/></clipPath></g></g><g id="elcos_new_version-u-rotore" transform="translate(0 1.079904)"><ellipse id="elcos_new_version-u-water" rx="98.2581" ry="98.2581" transform="translate(248.886847 270.720673)" fill="#c7e7ff" stroke-width="0"/><g id="elcos_new_version-u-g6664" transform="translate(223.559 244.919)"><path id="elcos_new_version-u-path6666" d="M46,28.2c0-13-10.6-23.6-23.6-23.6s-23.6,10.6-23.6,23.6s10.6,23.6,23.6,23.6C35.5,51.8,46,41.3,46,28.2Z" fill="none" stroke="#000" stroke-width="10" stroke-linecap="round" stroke-linejoin="round" stroke-miterlimit="13.3333"/></g><g id="elcos_new_version-u-g6668" transform="translate(195.534 272.945)"><path id="elcos_new_version-u-path6670" d="M50.5,23.8c0,0-22.1,36,0,69.8" fill="none" stroke="#000" stroke-width="10" stroke-linecap="round" stroke-linejoin="round" stroke-miterlimit="13.3333"/></g><g id="elcos_new_version-u-g6672" transform="translate(215.351 264.737)"><path id="elcos_new_version-u-path6674" d="M47.3,25.1c0,0,9.8,41.1,49.4,49.4" fill="none" stroke="#000" stroke-width="10" stroke-linecap="round" stroke-linejoin="round" stroke-miterlimit="13.3333"/></g><g id="elcos_new_version-u-g6676" transform="translate(223.559 244.919)"><path id="elcos_new_version-u-path6678" d="M46,28.2c0,0,36,22.1,69.8,0" fill="none" stroke="#000" stroke-width="10" stroke-linecap="round" stroke-linejoin="round" stroke-miterlimit="13.3333"/></g><g id="elcos_new_version-u-g6680" transform="translate(215.351 225.102)"><path id="elcos_new_version-u-path6682" d="M47.3,31.4c0,0,41.1-9.8,49.4-49.4" fill="none" stroke="#000" stroke-width="10" stroke-linecap="round" stroke-linejoin="round" stroke-miterlimit="13.3333"/></g><g id="elcos_new_version-u-g6684" transform="translate(195.534 216.893)"><path id="elcos_new_version-u-path6686" d="M50.5,32.7c0,0,22.1-36,0-69.8" fill="none" stroke="#000" stroke-width="10" stroke-linecap="round" stroke-linejoin="round" stroke-miterlimit="13.3333"/></g><g id="elcos_new_version-u-g6688" transform="translate(175.716 225.102)"><path id="elcos_new_version-u-path6690" d="M53.6,31.4c0,0-9.8-41.1-49.4-49.4" fill="none" stroke="#000" stroke-width="10" stroke-linecap="round" stroke-linejoin="round" stroke-miterlimit="13.3333"/></g><g id="elcos_new_version-u-g6692" transform="translate(167.508 244.919)"><path id="elcos_new_version-u-path6694" d="M54.9,28.2c0,0-36-22.1-69.8,0" fill="none" stroke="#000" stroke-width="10" stroke-linecap="round" stroke-linejoin="round" stroke-miterlimit="13.3333"/></g><g id="elcos_new_version-u-g6696" transform="translate(175.716 264.737)"><path id="elcos_new_version-u-path6698" d="M53.6,25.1c0,0-41.1,9.8-49.4,49.4" fill="none" stroke="#000" stroke-width="10" stroke-linecap="round" stroke-linejoin="round" stroke-miterlimit="13.3333"/></g><g id="elcos_new_version-u-g6700" transform="translate(135.37 338.187)"><path id="elcos_new_version-u-path6702" d="M60,13.5C34.2,-3.2,17.2,-32.1,17.2,-65c0-51.6,41.8-93.4,93.4-93.4s93.4,41.8,93.4,93.4-41.8,93.4-93.4,93.4c-9.8,0-19.3-1.5-28.2-4.3" fill="none" stroke="#000" stroke-width="10" stroke-linecap="round" stroke-linejoin="round" stroke-miterlimit="13.3333"/></g></g></g><g id="elcos_new_version-u-tubo" transform="matrix(1 0 0-1-1231.237595 832.523695)"><rect id="elcos_new_version-s-rect5" width="259.950883" height="72.006238" rx="0" ry="0" transform="matrix(.676536 0 0 0.90948 1138.597201 225.016983)" fill="none" stroke="#000" stroke-width="10"/><path id="elcos_new_version-s-path2" d="M1262.074874,314.792036q-.229554-26.300875-.229554-52.07158c0-25.770706,9.242819-41.229226,30.793555-45.746191q21.550736-4.516965,384.160217-4.516966v64.987971q-270.09077,3.190039-303.056654,3.190039c-32.965884,0-30.150437.258792-30.150437,34.774131l-81.517127-.617404Z" transform="translate(-1.546975 9.300682)" fill="#d10028" stroke="#000" stroke-width="10"/></g></g><g id="elcos_new_version-u-lampo" transform="matrix(.2 0 0 0.2 417.832023 474.515713)"><path id="elcos_new_version-s-path3" d="M221.523,479.901L399.096,174.147c4.021-6.923-1.681-15.441-9.614-14.363L271.365,175.839L299.587,27.674c.951-4.995-5.488-7.857-8.558-3.804L116.435,254.333c-5.085,6.713.299,16.257,8.675,15.375L255.333,256L212.642,476.571c-1.03,5.321,6.159,8.016,8.881,3.33Z" fill="#ffdc64" stroke-width="10"/><path id="elcos_new_version-s-path4" d="M171.034,238.001c-3.261.261-5.427-3.304-3.693-6.078L297.879,23.061c-1.942-1.536-4.999-1.635-6.851.809L116.435,254.333c-5.085,6.713.299,16.257,8.675,15.375L255.333,256L212.642,476.571c-.575,2.975,1.432,5.068,3.777,5.57l73.154-231.485c3.429-10.85-5.222-21.72-16.566-20.812l-101.973,8.157Z" fill="#ffc850" stroke-width="10"/><path id="elcos_new_version-s-path5" d="M415.208,152.963c-1.593-2.381-4.414-3.645-7.242-3.26L280.683,167.004L297.055,81.05c.775-4.069-1.895-7.996-5.964-8.771-4.06-.774-7.995,1.896-8.771,5.964l-18.322,96.193c-.452,2.37.265,4.813,1.925,6.564c1.659,1.751,4.063,2.596,6.452,2.271l122.411-16.639L223.029,462.374l30.357-156.849c.787-4.066-1.871-8.001-5.938-8.788-4.066-.79-8.002,1.871-8.788,5.938l-38.787,200.4c-.695,3.593,1.304,7.163,4.73,8.447.863.324,1.753.479,2.631.479c2.608,0,5.112-1.366,6.487-3.734L415.46,160.901c1.439-2.477,1.342-5.557-.252-7.938Z" stroke-width="10"/><path id="elcos_new_version-s-path6" d="M244.866,270.612c-.787,4.066,1.871,8.001,5.938,8.788.481.093.96.138,1.433.138c3.521,0,6.662-2.49,7.355-6.076l3.104-16.036c.452-2.334-.229-4.743-1.836-6.495-1.607-1.751-3.939-2.632-6.312-2.389l-135.089,14.22L290.069,37.556l-1.642,8.622c-.775,4.069,1.895,7.996,5.964,8.771c4.063.777,7.996-1.895,8.771-5.964l7.635-40.081c.652-3.422-1.138-6.842-4.32-8.257-3.186-1.415-6.922-.452-9.025,2.325L97.048,267.504c-1.805,2.384-2.022,5.61-.554,8.215c1.469,2.604,4.337,4.084,7.317,3.773L246.044,264.52l-1.178,6.092Z" stroke-width="10"/></g><g id="elcos_new_version-u-manometro" transform="matrix(.287432 0 0 0.287423 1577.009598 86.813802)"><path id="elcos_new_version-s-path7" d="M368,184C368,82.542969,285.464844,0,184,0s-184,82.542969-184,184c0,90.535156,65.753906,165.960938,152,181.160156L152,384h-8c-4.425781,0-8,3.585938-8,8v24h-8c-4.425781,0-8,3.585938-8,8v32c0,4.414062,3.574219,8,8,8h8v24c0,4.414062,3.574219,8,8,8h80c4.425781,0,8-3.585938,8-8v-24h8c4.425781,0,8-3.585938,8-8v-32c0-4.414062-3.574219-8-8-8h-8v-24c0-4.414062-3.574219-8-8-8h-8v-18.839844C302.246094,349.960938,368,274.535156,368,184ZM16,184C16,91.359375,91.367188,16,184,16s168,75.359375,168,168-75.367188,168-168,168-168-75.359375-168-168ZM216,480h-64v-16h64Zm16-32h-96v-16h96Zm-80-32v-16h64v16Zm48-32h-32v-16.734375C173.28125,367.71875,178.609375,368,184,368s10.71875-.28125,16-.734375Zm0,0"/><path id="elcos_new_version-s-path8" d="M336,184c0-83.816406-68.183594-152-152-152s-152,68.183594-152,152s68.183594,152,152,152s152-68.183594,152-152ZM93.800781,285.511719L109.65625,269.65625l-11.3125-11.3125-15.855469,15.855469C74,264.65625,66.863281,253.945312,61.304688,242.296875l22.261718-11.136719-7.160156-14.3125-21.183594,10.59375C51.441406,216.199219,49.128906,204.320312,48.40625,192L72,192v-16h-23.59375c.722656-12.320312,3.035156-24.199219,6.832031-35.433594l21.1875,10.59375l7.160157-14.3125-22.265626-11.136718C66.878906,114.0625,74.015625,103.34375,82.503906,93.808594l15.855469,15.855468l11.3125-11.3125L93.816406,82.496094c9.542969-8.488282,20.253906-15.625,31.902344-21.183594l11.136719,22.261719l14.3125-7.160157-10.59375-21.183593C151.800781,51.441406,163.679688,49.128906,176,48.40625L176,72h16v-23.59375c12.320312.722656,24.199219,3.035156,35.433594,6.832031l-10.59375,21.1875l14.3125,7.160157l11.136718-22.265626c11.648438,5.558594,22.367188,12.695313,31.902344,21.183594L258.335938,98.359375l11.3125,11.3125l15.855468-15.855469c8.488282,9.542969,15.625,20.253906,21.183594,31.902344l-22.261719,11.136719l7.160157,14.3125l21.183593-10.59375c3.796875,11.234375,6.109375,23.113281,6.832031,35.433593h-23.601562v16h23.59375c-.722656,12.320313-3.035156,24.199219-6.832031,35.433594l-21.1875-10.59375-7.160157,14.3125l22.265626,11.136719c-5.558594,11.648437-12.695313,22.367187-21.183594,31.902344L269.640625,258.34375l-11.3125,11.3125l15.855469,15.855469C250.160156,306.886719,218.625,320,184,320s-66.160156-13.113281-90.199219-34.488281Zm0,0"/><path id="elcos_new_version-s-path9" d="M243.761719,113.214844L181.265625,152.28125C164.910156,153.695312,152,167.296875,152,184c0,17.648438,14.351562,32,32,32c16.710938,0,30.3125-12.921875,31.726562-29.273438l39.058594-62.488281c1.976563-3.160156,1.503906-7.261719-1.128906-9.894531-2.640625-2.632812-6.734375-3.097656-9.894531-1.128906ZM184,200c-8.824219,0-16-7.175781-16-16s7.175781-16,16-16s16,7.175781,16,16-7.175781,16-16,16Zm26.078125-34.425781c-2.101563-2.964844-4.6875-5.550781-7.652344-7.652344l20.421875-12.769531Zm0,0"/><path id="elcos_new_version-s-path10" d="M232,232h-96c-4.425781,0-8,3.585938-8,8v32c0,4.414062,3.574219,8,8,8h96c4.425781,0,8-3.585938,8-8v-32c0-4.414062-3.574219-8-8-8Zm-8,32h-80v-16h80Zm0,0"/></g><text id="elcos_new_version-u-off" dx="0" dy="0" font-family="&quot;elcos_new_version:::Montserrat&quot;" font-size="75" font-weight="700" transform="translate(590.495359 135.112963)" opacity="0" stroke-width="0"><tspan id="elcos_new_version-s-tspan1" y="0" font-weight="700" stroke-width="0">MODE: OFF</tspan></text><text id="elcos_new_version-u-manual" dx="0" dy="0" font-family="&quot;elcos_new_version:::Montserrat&quot;" font-size="75" font-weight="700" transform="translate(590.49536 135.112963)" opacity="0" stroke-width="0"><tspan id="elcos_new_version-s-tspan2" y="0" font-weight="700" stroke-width="0">MODE: MANUAL</tspan></text><text id="elcos_new_version-u-automatic" dx="0" dy="0" font-family="&quot;elcos_new_version:::Montserrat&quot;" font-size="75" font-weight="700" transform="translate(590.495359 135.112963)" opacity="0" stroke-width="0"><tspan id="elcos_new_version-s-tspan3" y="0" font-weight="700" stroke-width="0">MODE: AUTOMATIC</tspan></text><text id="elcos_new_version-u-authexcluded" dx="0" dy="0" font-family="&quot;elcos_new_version:::Montserrat&quot;" font-size="75" font-weight="700" transform="translate(590.49536 135.112964)" opacity="0" stroke-width="0"><tspan id="elcos_new_version-s-tspan4" y="0" font-weight="700" stroke-width="0">MODE: AUT. EXCLUDED</tspan></text><g id="elcos_new_version-u-accetto" transform="matrix(.246342 0 0 0.246342 53.047369 489.296293)"><path id="elcos_new_version-s-path11" d="M256,0C114.8,0,0,114.8,0,256s114.8,256,256,256s256-114.8,256-256-114.8-256-256-256Z" clip-rule="evenodd" fill="#4bae4f" fill-rule="evenodd"/><path id="elcos_new_version-s-path12" d="M206.7,373.1c-32.7-32.7-65.2-65.7-98-98.4-3.6-3.6-3.6-9.6,0-13.2l37.7-37.7c3.6-3.6,9.6-3.6,13.2,0l53.9,53.9L352.1,139c3.7-3.6,9.6-3.6,13.3,0l37.8,37.8c3.7,3.7,3.7,9.6,0,13.2L219.9,373.1c-3.6,3.7-9.5,3.7-13.2,0Z" fill="#fff"/></g><g id="elcos_new_version-u-switch-off" transform="matrix(.246342 0 0 0.246342 1033.491273 772.091572)" opacity="0"><path id="elcos_new_version-s-path13" d="M373.333,117.333h-234.666C62.083,117.333,0,179.417,0,256s62.083,138.667,138.667,138.667h234.667C449.917,394.667,512,332.583,512,256s-62.083-138.667-138.667-138.667Z" fill="#cfd8dc"/><circle id="elcos_new_version-s-circle1" r="96" transform="translate(138.667 256)" fill="#f44336"/><g id="elcos_new_version-s-g7"><path id="elcos_new_version-s-path14" d="M288,309.333c-17.673,0-32-14.327-32-32v-42.667c0-17.673,14.327-32,32-32s32,14.327,32,32v42.667c0,17.673-14.327,32-32,32ZM288,224c-5.891,0-10.667,4.776-10.667,10.667v42.667c0,5.891,4.776,10.667,10.667,10.667s10.667-4.776,10.667-10.667v-42.667c0-5.891-4.776-10.667-10.667-10.667Z" fill="#455a64"/><path id="elcos_new_version-s-path15" d="M352,309.333c-5.891,0-10.667-4.776-10.667-10.667v-85.333c0-5.891,4.776-10.667,10.667-10.667h32c5.891,0,10.667,4.776,10.667,10.667s-4.776,10.667-10.667,10.667h-21.333v74.667c0,5.891-4.776,10.666-10.667,10.666Z" fill="#455a64"/><path id="elcos_new_version-s-path16" d="M373.333,266.667h-21.333c-5.891,0-10.667-4.776-10.667-10.667s4.776-10.667,10.667-10.667h21.333c5.891,0,10.667,4.776,10.667,10.667s-4.776,10.667-10.667,10.667Z" fill="#455a64"/><path id="elcos_new_version-s-path17" d="M416,309.333c-5.891,0-10.667-4.776-10.667-10.667v-85.333c0-5.891,4.776-10.667,10.667-10.667h32c5.891,0,10.667,4.776,10.667,10.667s-4.776,10.667-10.667,10.667h-21.333v74.667c0,5.891-4.776,10.666-10.667,10.666Z" fill="#455a64"/><path id="elcos_new_version-s-path18" d="M437.333,266.667h-21.333c-5.891,0-10.667-4.776-10.667-10.667s4.776-10.667,10.667-10.667h21.333c5.891,0,10.667,4.776,10.667,10.667s-4.776,10.667-10.667,10.667Z" fill="#455a64"/></g><path id="elcos_new_version-s-path19" d="M138.667,352c-53.019,0-96-42.981-96-96s42.981-96,96-96s96,42.981,96,96-42.981,96-96,96v0Zm0-170.667C97.429,181.333,64,214.763,64,256s33.429,74.667,74.667,74.667s74.667-33.429,74.667-74.667-33.43-74.667-74.667-74.667Z"/><path id="elcos_new_version-s-path20" d="M373.333,394.667h-234.666C62.083,394.667,0,332.583,0,256s62.083-138.667,138.667-138.667h234.667C449.917,117.333,512,179.417,512,256s-62.083,138.667-138.667,138.667Zm-234.666-256C73.866,138.667,21.334,191.199,21.334,256s52.532,117.333,117.333,117.333h234.667c64.801,0,117.333-52.532,117.333-117.333s-52.532-117.333-117.333-117.333h-234.667Z"/><path id="elcos_new_version-s-path21" d="M288,309.333c-17.673,0-32-14.327-32-32v-42.667c0-17.673,14.327-32,32-32s32,14.327,32,32v42.667c0,17.673-14.327,32-32,32ZM288,224c-5.891,0-10.667,4.776-10.667,10.667v42.667c0,5.891,4.776,10.667,10.667,10.667s10.667-4.776,10.667-10.667v-42.667c0-5.891-4.776-10.667-10.667-10.667Z"/><path id="elcos_new_version-s-path22" d="M352,309.333c-5.891,0-10.667-4.776-10.667-10.667v-85.333c0-5.891,4.776-10.667,10.667-10.667h32c5.891,0,10.667,4.776,10.667,10.667s-4.776,10.667-10.667,10.667h-21.333v74.667c0,5.891-4.776,10.666-10.667,10.666Z"/><path id="elcos_new_version-s-path23" d="M373.333,266.667h-21.333c-5.891,0-10.667-4.776-10.667-10.667s4.776-10.667,10.667-10.667h21.333c5.891,0,10.667,4.776,10.667,10.667s-4.776,10.667-10.667,10.667Z"/><path id="elcos_new_version-s-path24" d="M416,309.333c-5.891,0-10.667-4.776-10.667-10.667v-85.333c0-5.891,4.776-10.667,10.667-10.667h32c5.891,0,10.667,4.776,10.667,10.667s-4.776,10.667-10.667,10.667h-21.333v74.667c0,5.891-4.776,10.666-10.667,10.666Z"/><path id="elcos_new_version-s-path25" d="M437.333,266.667h-21.333c-5.891,0-10.667-4.776-10.667-10.667s4.776-10.667,10.667-10.667h21.333c5.891,0,10.667,4.776,10.667,10.667s-4.776,10.667-10.667,10.667Z"/></g><g id="elcos_new_version-u-attention" transform="matrix(.15 0 0 0.15 427.497161 485.87293)" opacity="0"><g id="elcos_new_version-u-exclamation_"><ellipse id="elcos_new_version-s-ellipse1" rx="39.393837" ry="39.393837" transform="matrix(5.93795 0 0 5.937953 257.09596 266.320553)" fill="#fff" stroke-width="0"/><path id="elcos_new_version-s-path26" d="M256,0C114.6,0,0,114.6,0,256s114.6,256,256,256s256-114.6,256-256-114.6-256-256-256Zm44.2,384.5c0,24.4-19.8,44.2-44.2,44.2s-44.2-19.8-44.2-44.2s19.8-44.2,44.2-44.2s44.2,19.8,44.2,44.2Zm0-107.8c-.9,23.7-20.4,42.5-44.2,42.5s-43.3-18.8-44.2-42.5L206,129.4c-1-24.4,18-45,42.5-46h1.7h11.7c24.4,0,44.3,19.8,44.3,44.3v1.7Z" fill="#ff2147"/></g></g><g id="elcos_new_version-u-circolo" transform="translate(889.369921 811.493091)" opacity="0"><path id="elcos_new_version-s-path27" d="M47.925,5.022L36.991,0.173c-1.007-.449-2.191.008-2.639,1.018s.008,2.191,1.018,2.639l6.141,2.724C23.888,13.111,10.265,27.986,5.353,46.448c-.284,1.067.351,2.163,1.418,2.447.172.046.345.068.516.068.884,0,1.693-.592,1.931-1.486c4.631-17.404,17.565-31.384,34.258-37.382l-3.505,7.852c-1.046,2.344,2.595,3.998,3.652,1.631L48.941,7.666c.427-.956-.036-2.211-1.016-2.644Z" stroke="#050505" stroke-width="2" stroke-linecap="round" stroke-linejoin="round"/><path id="elcos_new_version-s-path28" d="M121.815,34.116c-1.012-.442-2.191.019-2.634,1.031l-2.686,6.142C109.976,23.564,95.212,9.863,76.891,4.919c-1.061-.285-2.164.343-2.452,1.409s.344,2.165,1.41,2.452c17.282,4.664,31.165,17.698,37.118,34.52l-7.771-3.519c-1.007-.454-2.191-.009-2.647.997-.456,1.007-.009,2.191.997,2.647l11.828,5.355c1.001.451,2.219-.017,2.658-1.021l4.815-11.012c.442-1.01-.02-2.189-1.032-2.631Z" stroke="#050505" stroke-width="2" stroke-linecap="round" stroke-linejoin="round"/><path id="elcos_new_version-s-path29" d="M116.718,74.476c-1.066-.285-2.163.351-2.447,1.419-4.648,17.496-17.685,31.535-34.501,37.487-.046.016-.091-.029-.074-.075l2.663-7.203c.355-.96.039-2.108-.861-2.596-1.096-.593-2.42-.066-2.837,1.061l-4.149,11.223c-.394,1.064.156,2.255,1.222,2.645l12.134,4.442c2.427.887,3.793-2.87,1.375-3.756l-6.621-2.424c-.049-.018-.049-.085-.001-.104c17.316-6.681,30.667-21.428,35.514-39.673.286-1.067-.349-2.163-1.417-2.446-1.066-.285,1.068.283,0,0Z" stroke="#000" stroke-width="2" stroke-linecap="round" stroke-linejoin="round"/><path id="elcos_new_version-s-path30" d="M48.783,117.071c.285-1.066-.351-2.163-1.419-2.447-17.496-4.648-31.535-17.685-37.487-34.501-.016-.046.029-.091.075-.074l7.203,2.663c.96.355,2.108.039,2.596-.861.593-1.096.066-2.42-1.061-2.837L7.467,74.865c-1.064-.394-2.255.156-2.645,1.222L0.38,88.221c-.887,2.427,2.87,3.793,3.756,1.375L6.56,82.975c.018-.049.085-.049.104-.001c6.681,17.316,21.428,30.667,39.673,35.514c1.067.286,2.163-.349,2.446-1.417.285-1.066-.283,1.068,0,0Z" stroke="#000" stroke-width="2" stroke-linecap="round" stroke-linejoin="round"/></g><g id="elcos_new_version-u-stop" transform="matrix(.7 0 0 0.7 1291.123951 358.262032)" opacity="0"><path id="elcos_new_version-s-path31" d="M346.329,0h-180.658c-10.059,0-19.705,3.995-26.817,11.109L11.109,138.853C3.995,145.965,0,155.612,0,165.671v180.659c0,10.059,3.995,19.705,11.109,26.817L138.854,500.892c7.112,7.112,16.759,11.109,26.817,11.109h180.659c10.059,0,19.705-3.995,26.817-11.109L500.892,373.147c7.112-7.112,11.109-16.76,11.109-26.817v-180.659c0-10.059-3.995-19.705-11.109-26.817L373.147,11.109C366.035,3.995,356.388,0,346.329,0Z" fill="#ff5050"/><path id="elcos_new_version-s-path32" d="M94.815,379.259c0-171.838,106.362-318.739,256.799-378.737-1.75-.247-3.497-.522-5.285-.522h-180.658c-10.059,0-19.705,3.995-26.817,11.109L11.109,138.853C3.996,145.965,0,155.611,0,165.671v180.659c0,10.059,3.996,19.705,11.109,26.817l93.103,93.103c-6.098-28.041-9.397-57.124-9.397-86.991Z" fill="#c84146"/><g id="elcos_new_version-s-g8"><path id="elcos_new_version-s-path33" d="M246.519,187.259h-75.852c-6.546,0-11.852,5.306-11.852,11.852s5.306,11.852,11.852,11.852h26.074v101.926c0,6.546,5.306,11.852,11.852,11.852s11.852-5.306,11.852-11.852v-101.926h26.074c6.546,0,11.852-5.306,11.852-11.852s-5.307-11.852-11.852-11.852Z" fill="#fff"/><path id="elcos_new_version-s-path34" d="M312.889,187.259c-27.444,0-49.778,22.329-49.778,49.778v37.926c0,27.449,22.334,49.778,49.778,49.778s49.778-22.329,49.778-49.778v-37.926c0-27.449-22.334-49.778-49.778-49.778Zm26.074,87.704c0,14.38-11.694,26.074-26.074,26.074s-26.074-11.694-26.074-26.074v-37.926c0-14.38,11.694-26.074,26.074-26.074s26.074,11.694,26.074,26.074v37.926Z" fill="#fff"/><path id="elcos_new_version-s-path35" d="M421.926,187.259h-33.185c-6.546,0-11.852,5.306-11.852,11.852v113.778c0,6.546,5.306,11.852,11.852,11.852s11.852-5.306,11.852-11.852v-35.556h21.333c24.833,0,45.037-20.204,45.037-45.037s-20.204-45.037-45.037-45.037Zm0,66.371h-21.333v-42.667h21.333c11.759,0,21.333,9.569,21.333,21.333s-9.574,21.334-21.333,21.334Z" fill="#fff"/><path id="elcos_new_version-s-path36" d="M109.037,210.963c12.574,0,21.333,6.871,21.333,13.037c0,6.546,5.306,11.852,11.852,11.852s11.852-5.306,11.852-11.852c0-20.602-19.787-36.741-45.037-36.741s-45.037,16.139-45.037,36.741c0,28.495,25.695,37.676,41.047,43.162c21.666,7.736,25.324,12.68,25.324,20.838c0,6.167-8.76,13.037-21.333,13.037s-21.334-6.87-21.334-13.037c0-6.546-5.306-11.852-11.852-11.852s-11.852,5.306-11.852,11.852c0,20.602,19.787,36.741,45.037,36.741s45.037-16.139,45.037-36.741c0-28.495-25.695-37.676-41.047-43.162-21.666-7.736-25.324-12.68-25.324-20.838.001-6.167,8.76-13.037,21.334-13.037Z" fill="#fff"/></g></g><g id="elcos_new_version-u-lampo-motore" transform="matrix(.25 0 0 0.25 895.999782 495.999901)" opacity="0"><path id="elcos_new_version-s-path37" d="M221.523,479.901L399.096,174.147c4.021-6.923-1.681-15.441-9.614-14.363L271.365,175.839L299.587,27.674c.951-4.995-5.488-7.857-8.558-3.804L116.435,254.333c-5.085,6.713.299,16.257,8.675,15.375L255.333,256L212.642,476.571c-1.03,5.321,6.159,8.016,8.881,3.33Z" fill="#ffdc64"/><path id="elcos_new_version-s-path38" d="M171.034,238.001c-3.261.261-5.427-3.304-3.693-6.078L297.879,23.061c-1.942-1.536-4.999-1.635-6.851.809L116.435,254.333c-5.085,6.713.299,16.257,8.675,15.375L255.333,256L212.642,476.571c-.575,2.975,1.432,5.068,3.777,5.57l73.154-231.485c3.429-10.85-5.222-21.72-16.566-20.812l-101.973,8.157Z" fill="#ffc850"/><path id="elcos_new_version-s-path39" d="M415.208,152.963c-1.593-2.381-4.414-3.645-7.242-3.26L280.683,167.004L297.055,81.05c.775-4.069-1.895-7.996-5.964-8.771-4.06-.774-7.995,1.896-8.771,5.964l-18.322,96.193c-.452,2.37.265,4.813,1.925,6.564c1.659,1.751,4.063,2.596,6.452,2.271l122.411-16.639L223.029,462.374l30.357-156.849c.787-4.066-1.871-8.001-5.938-8.788-4.066-.79-8.002,1.871-8.788,5.938l-38.787,200.4c-.695,3.593,1.304,7.163,4.73,8.447.863.324,1.753.479,2.631.479c2.608,0,5.112-1.366,6.487-3.734L415.46,160.901c1.439-2.477,1.342-5.557-.252-7.938Z"/><path id="elcos_new_version-s-path40" d="M244.866,270.612c-.787,4.066,1.871,8.001,5.938,8.788.481.093.96.138,1.433.138c3.521,0,6.662-2.49,7.355-6.076l3.104-16.036c.452-2.334-.229-4.743-1.836-6.495-1.607-1.751-3.939-2.632-6.312-2.389l-135.089,14.22L290.069,37.556l-1.642,8.622c-.775,4.069,1.895,7.996,5.964,8.771c4.063.777,7.996-1.895,8.771-5.964l7.635-40.081c.652-3.422-1.138-6.842-4.32-8.257-3.186-1.415-6.922-.452-9.025,2.325L97.048,267.504c-1.805,2.384-2.022,5.61-.554,8.215c1.469,2.604,4.337,4.084,7.317,3.773L246.044,264.52l-1.178,6.092Z"/></g><g id="elcos_new_version-u-attenzione-manometro" transform="matrix(.123322 0 0 0.123322 1431.450097 105.319608)" opacity="0"><g id="elcos_new_version-u-exclamation_2"><path id="elcos_new_version-s-path41" d="M256,0C114.6,0,0,114.6,0,256s114.6,256,256,256s256-114.6,256-256-114.6-256-256-256Zm44.2,384.5c0,24.4-19.8,44.2-44.2,44.2s-44.2-19.8-44.2-44.2s19.8-44.2,44.2-44.2s44.2,19.8,44.2,44.2Zm0-107.8c-.9,23.7-20.4,42.5-44.2,42.5s-43.3-18.8-44.2-42.5L206,129.4c-1-24.4,18-45,42.5-46h1.7h11.7c24.4,0,44.3,19.8,44.3,44.3v1.7Z" fill="#ff2147"/></g></g><g id="elcos_new_version-u-reqt_press" transform="matrix(.472481 0 0 0.472481 1635.890551 784.509162)" opacity="0"><g id="elcos_new_version-s-g9"><path id="elcos_new_version-s-path42" d="M499.5,341.25h-26c-5.305,0-9.837,3.327-11.648,8h-9.452v-65.508c5.193-1.519,9-6.315,9-11.992v-17c0-5.677-3.807-10.473-9-11.992v-13.016c5.193-1.519,9-6.315,9-11.992v-17c0-5.677-3.807-10.473-9-11.992v-15.758c0-4.143-3.358-7.5-7.5-7.5s-7.5,3.357-7.5,7.5v15.25h-29v-36c0-6.893-5.607-12.5-12.5-12.5h-57.186c.829-4.713,1.286-9.553,1.286-14.5s-.457-9.787-1.286-14.5h81.186c9.649,0,17.5,7.851,17.5,17.5v9.75c0,4.143,3.358,7.5,7.5,7.5s7.5-3.357,7.5-7.5v-9.75c0-17.921-14.58-32.5-32.5-32.5h-85.298c-11.947-31.524-42.442-54-78.101-54s-66.154,22.476-78.101,54h-25.4c-4.142,0-7.5,3.357-7.5,7.5s3.358,7.5,7.5,7.5h21.286c-.829,4.713-1.286,9.553-1.286,14.5s.457,9.787,1.286,14.5h-58.186c-6.893,0-12.5,5.607-12.5,12.5v36h-29v-60c0-9.649,7.851-17.5,17.5-17.5h25.9c4.142,0,7.5-3.357,7.5-7.5s-3.358-7.5-7.5-7.5h-25.899c-17.92,0-32.5,14.579-32.5,32.5v60.508c-5.193,1.519-9,6.315-9,11.992v17c0,5.677,3.807,10.473,9,11.992v13.016c-5.193,1.519-9,6.315-9,11.992v17c0,5.677,3.807,10.473,9,11.992v65.508h-9.452c-1.812-4.673-6.344-8-11.648-8h-26c-6.893,0-12.5,5.607-12.5,12.5v70c0,6.893,5.607,12.5,12.5,12.5h26c5.305,0,9.837-3.327,11.648-8h77.851v24.5c0,9.649,7.851,17.5,17.5,17.5h16c3.718,0,7.162-1.174,10-3.159c2.838,1.985,6.282,3.159,10,3.159h16c9.649,0,17.5-7.851,17.5-17.5v-8.5h83v8.5c0,9.649,7.851,17.5,17.5,17.5h16c3.718,0,7.162-1.174,10-3.159c2.838,1.985,6.282,3.159,10,3.159h16c9.649,0,17.5-7.851,17.5-17.5v-24.5h76.852c1.812,4.673,6.344,8,11.648,8h26c6.893,0,12.5-5.607,12.5-12.5v-70c0-6.893-5.607-12.5-12.5-12.5ZM36,421.25h-21v-65h21Zm363.399-152v-12h47v12Zm9-27v-12h29v12Zm38-27h-47v-12h47Zm-38,134v-65h29v65Zm-15-194.5v34.008c-5.193,1.518-9,6.315-9,11.992v17c0,5.677,3.807,10.474,9,11.992v13.016c-5.193,1.518-9,6.315-9,11.992v17c0,5.677,3.807,10.474,9,11.992v65.508h-8.399v-24.5c0-9.649-7.851-17.5-17.5-17.5h-16c-3.718,0-7.162,1.174-10,3.159-2.838-1.985-6.282-3.159-10-3.159h-16c-9.649,0-17.5,7.851-17.5,17.5v8.5h-12v-55.5h14v5c0,6.893,5.607,12.5,12.5,12.5h15c6.893,0,12.5-5.607,12.5-12.5v-50c0-6.893-5.607-12.5-12.5-12.5h-15c-6.893,0-12.5,5.607-12.5,12.5v5h-14v-5c0-4.76-2.675-8.904-6.6-11.015v-16.204c25.418-7.262,45.915-26.278,55.201-50.781Zm-136.899,54c2.665,0,5.298-.139,7.9-.384v11.884h-15.8v-11.884c2.602.245,5.235.384,7.9.384Zm43.5,54h-14v-10h14Zm-73,0h-11v-10h11Zm15-27.5h29v98h-29Zm73,45v-45h10v45ZM256.5,56.75c37.771,0,68.5,30.729,68.5,68.5s-30.729,68.5-68.5,68.5-68.5-30.729-68.5-68.5s30.729-68.5,68.5-68.5Zm-78.101,98c9.286,24.503,29.783,43.52,55.201,50.781v16.204c-3.925,2.111-6.6,6.255-6.6,11.015v5h-13.5c-6.893,0-12.5,5.607-12.5,12.5v15c0,6.893,5.607,12.5,12.5,12.5h13.5v55.5h-12v-8.5c0-9.649-7.851-17.5-17.5-17.5h-16c-3.718,0-7.162,1.174-10,3.159-2.838-1.985-6.282-3.159-10-3.159h-16c-9.649,0-17.5,7.851-17.5,17.5v24.5h-9.399v-65.508c5.193-1.518,9-6.315,9-11.992v-17c0-5.677-3.807-10.474-9-11.992v-13.016c5.193-1.518,9-6.315,9-11.992v-17c0-5.677-3.807-10.474-9-11.992v-34.008Zm-65.798,60.5h-47v-12h47Zm-9,15v12h-29v-12Zm-38,39v-12h47v12Zm9,15h29v65h-29ZM51,413.25v-49h77v49Zm110.5,42h-16c-1.378,0-2.5-1.121-2.5-2.5v-128c0-1.379,1.122-2.5,2.5-2.5h16c1.378,0,2.5,1.121,2.5,2.5v128c0,1.379-1.122,2.5-2.5,2.5Zm53.5-26v-30.25c0-4.143-3.358-7.5-7.5-7.5s-7.5,3.357-7.5,7.5v53.75c0,1.379-1.122,2.5-2.5,2.5h-16c-1.378,0-2.5-1.121-2.5-2.5v-128c0-1.379,1.122-2.5,2.5-2.5h16c1.378,0,2.5,1.121,2.5,2.5v39.25c0,4.143,3.358,7.5,7.5,7.5s7.5-3.357,7.5-7.5v-15.75h83v81Zm116.5,26h-16c-1.378,0-2.5-1.121-2.5-2.5v-128c0-1.379,1.122-2.5,2.5-2.5h16c1.378,0,2.5,1.121,2.5,2.5v128c0,1.379-1.122,2.5-2.5,2.5Zm38.5-2.5c0,1.379-1.122,2.5-2.5,2.5h-16c-1.378,0-2.5-1.121-2.5-2.5v-128c0-1.379,1.122-2.5,2.5-2.5h16c1.378,0,2.5,1.121,2.5,2.5Zm15-88.5h76v49h-76Zm112,57h-21v-65h21Z"/><path id="elcos_new_version-s-path43" d="M227.862,164.495c2.929-2.93,2.929-7.678,0-10.607-15.791-15.79-15.791-41.484,0-57.275C233.845,90.63,241.251,86.919,249,85.47v18.571c-8.729,3.096-15,11.433-15,21.21s6.271,18.114,15,21.21v.688c0,4.143,3.358,7.5,7.5,7.5s7.5-3.357,7.5-7.5v-.688c8.729-3.096,15-11.433,15-21.21s-6.271-18.114-15-21.21v-18.572c7.749,1.449,15.155,5.16,21.138,11.143c15.791,15.79,15.791,41.484,0,57.275-2.929,2.93-2.929,7.678,0,10.607c1.464,1.464,3.384,2.196,5.303,2.196s3.839-.732,5.303-2.196c21.64-21.641,21.639-56.851,0-78.49-8.911-8.91-20.125-14.142-31.744-15.714v-.724c0-4.143-3.358-7.5-7.5-7.5s-7.5,3.357-7.5,7.5v.724c-11.619,1.572-22.833,6.804-31.744,15.715-21.64,21.641-21.639,56.851,0,78.49c2.929,2.928,7.678,2.928,10.606,0ZM256.5,132.75c-4.136,0-7.5-3.364-7.5-7.5s3.364-7.5,7.5-7.5s7.5,3.364,7.5,7.5-3.364,7.5-7.5,7.5Z"/><path id="elcos_new_version-s-path44" d="M247.828,164.798c-1.132-.246-2.267-.544-3.374-.887-3.956-1.228-8.158.988-9.383,4.945s.989,8.158,4.946,9.383c1.519.471,3.076.88,4.629,1.217.536.116,1.071.173,1.598.173c3.453,0,6.56-2.399,7.322-5.911.879-4.048-1.691-8.042-5.738-8.92Z"/><path id="elcos_new_version-s-path45" d="M268.556,163.907c-1.106.343-2.24.641-3.373.887-4.048.878-6.618,4.871-5.739,8.92.762,3.512,3.869,5.911,7.322,5.911.527,0,1.062-.057,1.598-.173c1.554-.337,3.112-.746,4.63-1.217c3.957-1.226,6.17-5.427,4.945-9.384s-5.43-6.165-9.383-4.944Z"/></g></g><g id="elcos_new_version-u-018-alarm" transform="matrix(.685163 0 0 0.685161 785.103084 159.031645)" opacity="0"><g id="elcos_new_version-s-g10"><g id="elcos_new_version-s-g11"><path id="elcos_new_version-s-path46" d="M80.27,212.268c6.351,20.319,25.318,35.066,47.73,35.066s41.379-14.747,47.73-35.066Z" fill="#808285" stroke="#000" stroke-width="5"/></g><g id="elcos_new_version-s-g12"><path id="elcos_new_version-s-path47" d="M161.332,212.268c-8.637,14.977-24.801,25.066-43.332,25.066-11.257,0-21.643-3.722-30-10c9.122,12.144,23.643,20,40,20c22.412,0,41.379-14.747,47.73-35.066Z" transform="translate(0-2.919022)" fill="#58595b"/></g><g id="elcos_new_version-s-g13"><path id="elcos_new_version-s-path48" d="M168.857,212.268c-7.702,17.692-25.331,30.066-45.857,30.066-12.534,0-23.982-4.623-32.757-12.243C99.41,240.648,112.92,247.334,128,247.334c22.412,0,41.379-14.747,47.73-35.066Z" transform="translate(0-2.919022)" fill="#414042"/></g><g id="elcos_new_version-s-g14"><path id="elcos_new_version-s-path49" d="M144.697,220.268h-.395c-1.104,0-2-.896-2-2s.896-2,2-2h.395c1.104,0,2,.896,2,2s-.895,2-2,2Zm-8.394,0h-43c-1.104,0-2-.896-2-2s.896-2,2-2h43c1.104,0,2,.896,2,2s-.896,2-2,2Z" fill="#939598"/></g></g><path id="elcos_new_version-s-path50" d="M117.333,30.963v-1.63c0-5.881,4.785-10.666,10.667-10.666s10.667,4.785,10.667,10.666v1.63c4.148.693,8.161,1.779,12,3.227v-4.857c0-12.498-10.168-22.666-22.667-22.666s-22.667,10.168-22.667,22.666v4.857c3.839-1.447,7.852-2.533,12-3.227Z" fill="#808285" stroke="#000" stroke-width="5" stroke-linecap="round" stroke-linejoin="round"/><path id="elcos_new_version-s-path51" d="M145.667,29.333v3.212c1.696.484,3.365,1.028,5,1.645v-4.857c0-12.498-10.168-22.666-22.667-22.666-.845,0-1.679.05-2.5.141c11.326,1.249,20.167,10.872,20.167,22.525Z" transform="translate(.775492 2.814124)" fill="#58595b"/><g id="elcos_new_version-s-g15"><path id="elcos_new_version-s-path52" d="M192.267,141.034v-46.701c0-35.494-28.773-64.267-64.267-64.267s-64.267,28.774-64.267,64.267v46.701c0,12.183-4.565,23.924-12.794,32.908L30.535,196.216c-5.629,6.146-1.27,16.051,7.064,16.051h180.802c8.334,0,12.694-9.906,7.064-16.051l-20.404-22.274c-8.229-8.984-12.794-20.725-12.794-32.908Z" fill="#d10028" stroke="#000" stroke-width="5" stroke-linecap="round" stroke-linejoin="round"/></g><g id="elcos_new_version-s-g16"><path id="elcos_new_version-s-path53" d="M222.473868,196.216l-20.647445-22.274c-8.229-8.983-13.790931-20.361-13.790931-32.544v-47.065c0-29.134-15.633476-51.366799-42.209476-59.248799C161.583016,46.796201,172.267,63.192,172.267,84.333v46.701c0,12.183,4.565,23.924,12.794,32.908l20.404,22.274c5.629,6.146,1.27,16.051-7.064,16.051h-167.468986c-.193,5.064,4.153986,7.889829,10.035986,7.889829l174.68433-.034121c8.334.001,12.451538-7.760708,6.821538-13.906708Z" fill="#b7022d"/></g><g id="elcos_new_version-s-g17"><g id="elcos_new_version-s-g18"><g id="elcos_new_version-s-g19"><path id="elcos_new_version-s-path54" d="M210.475,144.335c-.69,0-1.391-.144-2.061-.446-2.515-1.14-3.63-4.103-2.491-6.618c8.698-19.198,8.698-44.009,0-63.207-1.14-2.516-.024-5.479,2.491-6.618c2.517-1.138,5.478-.023,6.618,2.491c9.834,21.705,9.834,49.756,0,71.461-.836,1.845-2.655,2.937-4.557,2.937Z" fill="#d10028" stroke="#000" stroke-width="5" stroke-linecap="round" stroke-linejoin="round"/></g><g id="elcos_new_version-s-g20"><path id="elcos_new_version-s-path55" d="M229.475,154.335c-.69,0-1.391-.144-2.061-.446-2.515-1.14-3.63-4.103-2.491-6.618c11.451-25.273,11.451-57.934,0-83.207-1.14-2.516-.024-5.479,2.491-6.618c2.518-1.136,5.479-.023,6.618,2.491c12.587,27.78,12.587,63.681,0,91.461-.836,1.845-2.655,2.937-4.557,2.937Z" fill="#d10028" stroke="#000" stroke-width="5" stroke-linecap="round" stroke-linejoin="round"/></g></g><g id="elcos_new_version-s-g21"><g id="elcos_new_version-s-g22"><path id="elcos_new_version-s-path56" d="M45.525,144.335c-1.903,0-3.721-1.092-4.557-2.938-9.834-21.705-9.834-49.755,0-71.461c1.139-2.515,4.104-3.628,6.618-2.491c2.515,1.14,3.63,4.103,2.491,6.618-8.698,19.199-8.698,44.009,0,63.207c1.14,2.516.024,5.479-2.491,6.618-.67.303-1.371.447-2.061.447Z" fill="#d10028" stroke="#000" stroke-width="5" stroke-linecap="round" stroke-linejoin="round"/></g><g id="elcos_new_version-s-g23"><path id="elcos_new_version-s-path57" d="M26.525,154.335c-1.903,0-3.721-1.092-4.557-2.938-12.587-27.78-12.587-63.681,0-91.461c1.14-2.515,4.103-3.629,6.618-2.491c2.515,1.14,3.63,4.103,2.491,6.618-11.451,25.273-11.451,57.934,0,83.207c1.14,2.516.024,5.479-2.491,6.618-.67.303-1.371.447-2.061.447Z" fill="#d10028" stroke="#000" stroke-width="5" stroke-linecap="round" stroke-linejoin="round"/></g></g></g><g id="elcos_new_version-s-g24"><g id="elcos_new_version-s-g25"><path id="elcos_new_version-s-path58" d="M128,69.069c-7.324,0-13.079,5.976-12.454,12.933l5.064,56.318c.329,3.657,3.539,6.467,7.39,6.467s7.061-2.809,7.389-6.467l5.064-56.318c.626-6.957-5.129-12.933-12.453-12.933Z" fill="#f1f2f2" stroke="#000" stroke-width="5" stroke-linecap="round" stroke-linejoin="round"/></g><g id="elcos_new_version-s-g26"><path id="elcos_new_version-s-path59" d="M128,152.845c-6.756,0-12.233,5.221-12.233,11.662s5.477,11.662,12.233,11.662s12.233-5.221,12.233-11.662c.001-6.441-5.477-11.662-12.233-11.662Z" fill="#f1f2f2" stroke="#000" stroke-width="5" stroke-linecap="round" stroke-linejoin="round"/></g></g></g><text id="elcos_new_version-u-b" dx="0" dy="0" font-family="&quot;elcos_new_version:::Montserrat&quot;" font-size="75" font-weight="700" transform="matrix(1.873842 0 0 1.873842 979.732772 299.688418)" opacity="0" fill="#d10028" stroke-width="0"><tspan id="elcos_new_version-s-tspan5" y="0" font-weight="700" stroke-width="0">B</tspan></text><text id="elcos_new_version-u-a" dx="0" dy="0" font-family="&quot;elcos_new_version:::Montserrat&quot;" font-size="75" font-weight="700" transform="matrix(1.873842 0 0 1.873842 979.732772 299.688418)" opacity="0" fill="#d10028" stroke-width="0"><tspan id="elcos_new_version-s-tspan6" y="0" font-weight="700" stroke-width="0">A</tspan></text><g id="elcos_new_version-u-chiave" transform="matrix(.3 0 0 0.3 1540.011393 828.698769)" opacity="0"><path id="elcos_new_version-s-path60" d="M328,208c11.44972.00006,21.305048-8.087855,23.538915-19.317545s-3.775884-22.473566-14.353962-26.855387-22.778376-.681204-29.139749,8.838724-5.11211,22.207765,2.983796,30.304208c4.49078,4.516291,10.602038,7.047795,16.971,7.03Zm-5.656-29.657c3.123999-3.123056,8.188001-3.123056,11.312,0c2.288192,2.287905,2.972821,5.728926,1.734632,8.718445s-4.155343,4.938763-7.391132,4.938763-6.152943-1.949245-7.391132-4.938763-.55356-6.43054,1.734632-8.718445Z"/><path id="elcos_new_version-s-path61" d="M66.912,429.088h16v16h-16Z" transform="matrix(.707-.707 0.707 0.707-287.127 180.991)"/><path id="elcos_new_version-s-path62" d="M72.936,347.064h168v16h-168Z" transform="matrix(.707-.707 0.707 0.707-205.097 214.951)"/><path id="elcos_new_version-s-path63" d="M491.13,157.205L455.962,143.54L447.1,122.16l15.224-34.6c1.329037-3.019838.667837-6.545841-1.665-8.879L433.316,51.338c-2.332978-2.332404-5.858434-2.993576-8.878-1.665L389.84,64.9l-21.38-8.858L354.8,20.87c-1.196088-3.07513-4.157447-5.100466-7.457-5.1h-38.681c-3.299553-.000466-6.260912,2.02487-7.457,5.1L287.541,56.038L266.16,64.9l-34.6-15.223c-3.019838-1.329037-6.545841-.667837-8.879,1.665L195.339,78.684c-2.332748,2.332749-2.994322,5.858233-1.666,8.878l15.224,34.6-8.859,21.38-35.168,13.663c-3.07513,1.196088-5.100466,4.157447-5.1,7.457v38.676c-.000466,3.299553,2.02487,6.260912,5.1,7.457l5.579,2.168c-.039.28-.09.557-.127.838-2.671981,20.784418.956964,41.892357,10.417,60.591L27.05,417.674c-6.885873,6.400746-10.872618,15.326604-11.044057,24.72636s3.487169,18.465055,10.135057,25.11264l18.225,18.224c6.632848,6.697201,15.708713,10.401861,25.133512,10.259201s18.384378-4.120316,24.811488-11.015201l104.038-111.4-11.693-10.92L82.61,474.069c-3.513745,3.767006-8.428647,5.913566-13.58,5.931-5.013021-.016456-9.814554-2.02195-13.35-5.576L37.454,456.2c-3.503714-3.484751-5.467643-8.22641-5.454-13.168.008187-5.177032,2.163458-10.118731,5.952-13.647L196.2,281.854c2.746075-2.560422,3.342105-6.686043,1.433-9.919-20.847659-35.129453-14.673539-80.001421,14.887-108.195c21.071261-20.013515,50.613329-28.429126,79.068-22.524l-52.072,52.072c-2.14292,2.142638-2.891262,5.312154-1.933,8.187l16.97,50.912c.796259,2.389056,2.670944,4.263741,5.06,5.06l50.911,16.971c2.874846.958262,6.044362.20992,8.187-1.933L361.4,229.8c-.819791,28.351201-15.25547,54.568883-38.774718,70.42157s-53.237895,19.396362-79.825282,9.51843c-3.024466-1.121305-6.426474-.316542-8.628,2.041L202.3,345.905l11.693,10.92l28.34-30.346c16.788651,5.236334,34.630797,6.130866,51.859,2.6l7.013,18.048c1.196088,3.07513,4.157447,5.100466,7.457,5.1h38.676c3.299553.000466,6.260912-2.02487,7.457-5.1l13.664-35.168L389.84,303.1l34.6,15.223c3.019838,1.329037,6.545841.667837,8.879-1.665l27.345-27.346c2.332748-2.332749,2.994322-5.858233,1.666-8.878L447.1,245.84l8.859-21.38L491.13,210.8c3.07513-1.196088,5.100466-4.157447,5.1-7.457v-38.681c.000466-3.299553-2.02487-6.260912-5.1-7.457ZM175.768,191.432v-21.295l14.815-5.757c-6.279344,8.215338-11.27463,17.336665-14.815,27.052Zm143.079-54.847l42.426,14.142l14.143,42.425-38.263,38.263-42.426-14.142-14.143-42.425Zm-7.953,121.09l-42.427-14.142-14.142-42.427l13.61-13.61l12.877,38.632c.796259,2.389056,2.670944,4.263741,5.06,5.06L324.5,244.065Zm169.338-59.812l-33.25,12.92c-2.035503.791851-3.658753,2.381502-4.493,4.4l-11.475,27.694c-.835454,2.01625-.810889,4.286301.068,6.284l14.4,32.716-19.606,19.607-32.716-14.4c-1.997849-.878192-4.267615-.902754-6.284-.068l-27.694,11.475c-2.016604.835368-3.6043,2.458467-4.395,4.493l-12.919,33.25h-27.732l-4.491-11.558c21.512821-7.921014,39.776433-22.778538,51.91-42.229c19.840543-6.824378,37.180036-19.439225,49.78-36.216c27.398283-36.705813,27.565567-87.012787.412-123.9l-12.876,9.5c22.967304,31.209963,22.825205,73.768103-.35,104.824-7.157444,9.527942-16.157439,17.519625-26.465,23.5c4.901738-14.67608,6.476124-30.259045,4.609-45.619l13.56-13.56c2.143306-2.142835,2.891676-5.312857,1.933-8.188l-16.97-50.911c-.796259-2.389056-2.670944-4.263741-5.06-5.06l-50.912-16.97c-2.874363-.958101-6.043343-.210181-8.186,1.932l-6.341,6.341c-13.219423-4.109511-27.123297-5.553094-40.905-4.247c32.679175-34.932082,87.283784-37.344323,122.916-5.43l10.677-11.917c-22.885632-20.49081-53.65873-29.816936-84.069256-25.478114s-57.347655,21.898756-73.589744,47.972114c-7.059456,2.393633-13.841361,5.538675-20.229,9.381l5.5-13.268c.835454-2.01625.810889-4.286301-.068-6.284l-14.4-32.716l19.606-19.607l32.716,14.4c1.997699.878889,4.26775.903454,6.284.068l27.694-11.475c2.016604-.835368,3.6043-2.458467,4.395-4.493l12.919-33.25h27.728l12.92,33.25c.790469,2.03434,2.377775,3.657408,4.394,4.493l27.694,11.475c2.01625.835454,4.286301.810889,6.284-.068l32.717-14.4l19.605,19.607-14.4,32.715c-.879174,1.997986-.903739,4.268459-.068,6.285l11.475,27.694c.834247,2.018498,2.457497,3.608149,4.493,4.4l33.25,12.92Z"/></g><g id="elcos_new_version-u-anom-yes" transform="matrix(.25 0 0 0.25 50.577817 487.319608)" opacity="0"><g id="elcos_new_version-u-exclamation_3"><path id="elcos_new_version-s-path64" d="M256,0C114.6,0,0,114.6,0,256s114.6,256,256,256s256-114.6,256-256-114.6-256-256-256Zm44.2,384.5c0,24.4-19.8,44.2-44.2,44.2s-44.2-19.8-44.2-44.2s19.8-44.2,44.2-44.2s44.2,19.8,44.2,44.2Zm0-107.8c-.9,23.7-20.4,42.5-44.2,42.5s-43.3-18.8-44.2-42.5L206,129.4c-1-24.4,18-45,42.5-46h1.7h11.7c24.4,0,44.3,19.8,44.3,44.3v1.7Z" fill="#ff2147"/></g></g><g id="elcos_new_version-u-touch" transform="matrix(4 0 0 4 1693.800836 765.960967)" opacity="0"><path id="elcos_new_version-s-path65" d="M41,27.17v7.83c.002756,3.390016-1.428493,6.623039-3.94,8.9C32.94,47.65,28.67,47,23,47c-6.627417,0-12-5.372583-12-12v-8c0-3.47,6-2.23,6,2v-15c-.001173-.824163.336765-1.612512.934472-2.179956s1.402537-.864,2.225528-.820044c1.632318.146752,2.872848,1.531428,2.84,3.17v7.83c0-1.656854,1.343146-3,3-3s3,1.343146,3,3v2c0-1.656854,1.343146-3,3-3s3,1.343146,3,3v3c-.001173-.824163.336765-1.612512.934472-2.179956s1.402537-.864,2.225528-.820044c1.632318.146752,2.872848,1.531428,2.84,3.17Z" fill="#f6ccaf"/><path id="elcos_new_version-s-path66" d="M41,27.17v7.83c.001501,4.020807-2.010828,7.775153-5.36,10L27,45c-5.522847,0-10-4.477153-10-10v-21c-.014703-.898704.374324-1.756651,1.060034-2.33776s1.595845-.824149,2.479966-.66224c1.478538.322985,2.514207,1.657566,2.46,3.17v7.83c-.001173-.824163.336765-1.612512.934472-2.179956s1.402537-.864,2.225528-.820044c1.62841.146498,2.867538,1.525246,2.84,3.16v1.84c-.001173-.824163.336765-1.612512.934472-2.179956s1.402537-.864,2.225528-.820044c1.62841.146498,2.867538,1.525246,2.84,3.16v2.84c-.014703-.898704.374324-1.756651,1.060034-2.33776s1.595845-.824149,2.479966-.66224c1.478538.322985,2.514207,1.657566,2.46,3.17Z" fill="#ffdec7"/><path id="elcos_new_version-s-path67" d="M17,29v6c0,.552285-.447715,1-1,1s-1-.447715-1-1v-9.47c1.239431.715584,2.00211,2.038831,2,3.47Z" fill="#edb996"/><g id="elcos_new_version-s-g27"><g id="elcos_new_version-u-onde-dito" opacity="0"><path id="elcos_new_version-s-path68" d="M27.92,14.15c.421825-2.960886-.843138-5.909796-3.279279-7.64473s-5.636571-1.966122-8.296769-.599327-4.335852,4.103285-4.343952,7.094057c0,.95.05,2,1.07,2c.293376.003322.57341-.12236.765929-.343757s.278099-.516171.234071-.806243c-.331111-2.323715.723163-4.627132,2.698276-5.895288s4.508336-1.268155,6.483448,0s3.029387,3.571573,2.698276,5.895288c-.034102.518101.333988.976113.847292,1.054281s1.001043-.249514,1.122708-.754281Z" fill="#231f20"/><path id="elcos_new_version-s-path69" d="M20,2c3.402041.000218,6.612545,1.574566,8.695775,4.264182s2.804735,6.191806,1.954225,9.485818c-.138071.535716.184284,1.081929.72,1.22s1.081929-.184284,1.22-.72c1.353825-5.262124-.707786-10.81116-5.168985-13.912852s-10.380831-3.101691-14.84203,0-6.52281,8.650728-5.168985,13.912852c.138071.535716.684284.858071,1.22.72s.858071-.684284.72-1.22c-.85051-3.294012-.129005-6.796202,1.954225-9.485818s5.293734-4.263964,8.695775-4.264182Z" fill="#231f20"/></g><path id="elcos_new_version-s-path70" d="M36,23.57c-.155676-1.383403-1.019422-2.586363-2.280481-3.176081s-2.738026-.481364-3.899519.286081c-.395706-1.13331-1.279469-2.028992-2.407376-2.439845s-2.380703-.293436-3.412624.319845v-4.39c.068698-1.628084-.857098-3.135093-2.340419-3.80973s-3.227613-.382022-4.409581.73973C15.59,12.67,16,13.43,16,25c-2.7-2-6-.8-6,2v8c0,7.179702,5.820298,13,13,13h6c7.179702,0,13-5.820298,13-13v-7.83c.049897-1.453245-.692779-2.819102-1.939661-3.567231s-2.801545-.760676-4.060339-.032769ZM40,35c0,6.075132-4.924868,11-11,11h-6c-6.075132,0-11-4.924868-11-11v-8c0-1.4,2-1.23,3.09-.16s.91,2.02.91,8.16c0,.552285.447715,1,1,1s1-.447715,1-1v-21c-.000833-.550054.224913-1.076169.624127-1.454571s.936651-.575683,1.485873-.545429c1.097245.124073,1.917729,1.06611,1.89,2.17L22,29c0,.552285.447715,1,1,1s1-.447715,1-1v-7c0-1.104569.895431-2,2-2s2,.895431,2,2v7c0,.552285.447715,1,1,1s1-.447715,1-1v-5c0-1.104569.895431-2,2-2s2,.895431,2,2v5c0,.552285.447715,1,1,1s1-.447715,1-1c0-2.17-.13-2.74.62-3.45.601257-.579671,1.49941-.724698,2.252554-.363723s1.202687,1.151937,1.127446,1.983723Z" fill="#231f20"/></g></g><g id="elcos_new_version-u-power-on" transform="matrix(.27021 0 0 0.27021 1705.429656 600.588876)" opacity="0"><circle id="elcos_new_version-s-circle2" r="256" transform="translate(256 256)" fill="#f44336"/><path id="elcos_new_version-s-path71" d="M275.631,229.351v-123.727c-.076984-10.785298-8.841927-19.487901-19.6275-19.487901s-19.550516,8.702603-19.6275,19.487901v123.727c.076984,10.785298,8.841927,19.487901,19.6275,19.487901s19.550516-8.702603,19.6275-19.487901ZM426,256c-.0073,82.349117-59.035725,152.851889-140.101223,167.335052s-160.854992-31.218396-189.376654-108.470528s2.42686-163.838417,73.454877-205.508524c6.139852-3.602312,13.738123-3.64296,19.916165-.106542s9.990817,10.108944,9.993835,17.227542c0,7.71-3.014,13.922-9.753,17.907-39.452298,23.349594-63.669051,65.77186-63.716,111.616c0,71.455,58.136,129.586,129.582,129.586s129.592-58.131,129.592-129.586c-.048959-45.843606-24.265184-88.264947-63.716-111.616-6.110703-3.502866-9.844411-10.041064-9.756-17.084c0-7.807,3.114-14.111,9.994-18.055c6.153955-3.627669,13.802608-3.58427,19.915.113C394.006864,139.925304,425.945061,195.700287,426,256Z" fill="#fff" fill-rule="evenodd"/></g><g id="elcos_new_version-u-circular-arrows" transform="translate(1720.093028 843.931327)" opacity="0"><path id="elcos_new_version-s-path72" d="M47.925,5.022L36.991,0.173c-1.007-.449-2.191.008-2.639,1.018s.008,2.191,1.018,2.639l6.141,2.724C23.888,13.111,10.265,27.986,5.353,46.448c-.284,1.067.351,2.163,1.418,2.447.172.046.345.068.516.068.884,0,1.693-.592,1.931-1.486c4.631-17.404,17.565-31.384,34.258-37.382l-3.505,7.852c-1.046,2.344,2.595,3.998,3.652,1.631L48.941,7.666c.427-.956-.036-2.211-1.016-2.644Z" stroke="#000" stroke-width="2" stroke-linecap="round" stroke-linejoin="round"/><path id="elcos_new_version-s-path73" d="M121.815,34.116c-1.012-.442-2.191.019-2.634,1.031l-2.686,6.142C109.976,23.564,95.212,9.863,76.891,4.919c-1.061-.285-2.164.343-2.452,1.409s.344,2.165,1.41,2.452c17.282,4.664,31.165,17.698,37.118,34.52l-7.771-3.519c-1.007-.454-2.191-.009-2.647.997-.456,1.007-.009,2.191.997,2.647l11.828,5.355c1.001.451,2.219-.017,2.658-1.021l4.815-11.012c.442-1.01-.02-2.189-1.032-2.631Z" stroke="#000" stroke-width="2" stroke-linecap="round" stroke-linejoin="round"/><path id="elcos_new_version-s-path74" d="M116.718,74.476c-1.066-.285-2.163.351-2.447,1.419-4.648,17.496-17.685,31.535-34.501,37.487-.046.016-.091-.029-.074-.075l2.663-7.203c.355-.96.039-2.108-.861-2.596-1.096-.593-2.42-.066-2.837,1.061l-4.149,11.223c0,0,.156,2.255,1.222,2.645l12.134,4.442c2.427.887,3.793-2.87,1.375-3.756l-6.621-2.424c-.049-.018-.049-.085-.001-.104c17.316-6.681,30.667-21.428,35.514-39.673.286-1.067-.349-2.163-1.417-2.446-1.066-.285,1.068.283,0,0Z" stroke="#000" stroke-width="2" stroke-linecap="round" stroke-linejoin="round"/><path id="elcos_new_version-s-path75" d="M48.783,117.071c.285-1.066-.351-2.163-1.419-2.447-17.496-4.648-31.535-17.685-37.487-34.501-.016-.046.029-.091.075-.074l7.203,2.663c.96.355,2.108.039,2.596-.861.593-1.096.066-2.42-1.061-2.837L7.467,74.865c-1.064-.394-2.255.156-2.645,1.222L0.38,88.221c-.887,2.427,2.87,3.793,3.756,1.375L6.56,82.975c.018-.049.085-.049.104-.001c6.681,17.316,21.428,30.667,39.673,35.514c1.067.286,2.163-.349,2.446-1.417.285-1.066-.283,1.068,0,0Z" stroke="#000" stroke-width="2" stroke-linecap="round" stroke-linejoin="round"/></g><g id="elcos_new_version-u-galleggiante" transform="matrix(2.996606 0 0 2.996606 1564.3638 838.857429)" opacity="0"><path id="elcos_new_version-s-path76" d="M62.31,14.26c0,0-6.43-5.4-11.62-6.01-1.6-.19-5.51-.17-5.51-.17v-5.8c0,0,4.83-.12,6.42.08c7.22.89,14.47,7.34,14.47,7.34l-3.76,4.56Z" fill="#dddaeb" stroke="#1d1d1b" stroke-width="3" stroke-linecap="round" stroke-linejoin="round" stroke-miterlimit="10"/><rect id="elcos_new_version-s-rect6" width="44.99" height="7.77" rx="0" ry="0" transform="translate(.5 0.5)" fill="#d2cee7" stroke="#1d1d1b" stroke-width="3" stroke-linecap="round" stroke-linejoin="round" stroke-miterlimit="10"/><rect id="elcos_new_version-s-rect7" width="77.82" height="3.51" rx="0" ry="0" transform="translate(24.62 23.95)" fill="#1d1d1b" stroke-linecap="round" stroke-linejoin="round"/><circle id="elcos_new_version-s-circle3" r="11.57" transform="translate(70.9 19.92)" fill="#dddaeb" stroke="#1d1d1b" stroke-width="3" stroke-linecap="round" stroke-linejoin="round" stroke-miterlimit="10"/></g><g id="elcos_new_version-u-manometer" transform="matrix(.325926 0 0 0.325926 1718.103525 822.356556)" opacity="0"><path id="elcos_new_version-s-path77" d="M368,184C368,82.542969,285.464844,0,184,0s-184,82.542969-184,184c0,90.535156,65.753906,165.960938,152,181.160156L152,384h-8c-4.425781,0-8,3.585938-8,8v24h-8c-4.425781,0-8,3.585938-8,8v32c0,4.414062,3.574219,8,8,8h8v24c0,4.414062,3.574219,8,8,8h80c4.425781,0,8-3.585938,8-8v-24h8c4.425781,0,8-3.585938,8-8v-32c0-4.414062-3.574219-8-8-8h-8v-24c0-4.414062-3.574219-8-8-8h-8v-18.839844C302.246094,349.960938,368,274.535156,368,184ZM16,184C16,91.359375,91.367188,16,184,16s168,75.359375,168,168-75.367188,168-168,168-168-75.359375-168-168ZM216,480h-64v-16h64Zm16-32h-96v-16h96Zm-80-32v-16h64v16Zm48-32h-32v-16.734375C173.28125,367.71875,178.609375,368,184,368s10.71875-.28125,16-.734375Zm0,0"/><path id="elcos_new_version-s-path78" d="M336,184c0-83.816406-68.183594-152-152-152s-152,68.183594-152,152s68.183594,152,152,152s152-68.183594,152-152ZM93.800781,285.511719L109.65625,269.65625l-11.3125-11.3125-15.855469,15.855469C74,264.65625,66.863281,253.945312,61.304688,242.296875l22.261718-11.136719-7.160156-14.3125-21.183594,10.59375C51.441406,216.199219,49.128906,204.320312,48.40625,192L72,192v-16h-23.59375c.722656-12.320312,3.035156-24.199219,6.832031-35.433594l21.1875,10.59375l7.160157-14.3125-22.265626-11.136718C66.878906,114.0625,74.015625,103.34375,82.503906,93.808594l15.855469,15.855468l11.3125-11.3125L93.816406,82.496094c9.542969-8.488282,20.253906-15.625,31.902344-21.183594l11.136719,22.261719l14.3125-7.160157-10.59375-21.183593C151.800781,51.441406,163.679688,49.128906,176,48.40625L176,72h16v-23.59375c12.320312.722656,24.199219,3.035156,35.433594,6.832031l-10.59375,21.1875l14.3125,7.160157l11.136718-22.265626c11.648438,5.558594,22.367188,12.695313,31.902344,21.183594L258.335938,98.359375l11.3125,11.3125l15.855468-15.855469c8.488282,9.542969,15.625,20.253906,21.183594,31.902344l-22.261719,11.136719l7.160157,14.3125l21.183593-10.59375c3.796875,11.234375,6.109375,23.113281,6.832031,35.433593h-23.601562v16h23.59375c-.722656,12.320313-3.035156,24.199219-6.832031,35.433594l-21.1875-10.59375-7.160157,14.3125l22.265626,11.136719c-5.558594,11.648437-12.695313,22.367187-21.183594,31.902344L269.640625,258.34375l-11.3125,11.3125l15.855469,15.855469C250.160156,306.886719,218.625,320,184,320s-66.160156-13.113281-90.199219-34.488281Zm0,0"/><path id="elcos_new_version-s-path79" d="M243.761719,113.214844L181.265625,152.28125C164.910156,153.695312,152,167.296875,152,184c0,17.648438,14.351562,32,32,32c16.710938,0,30.3125-12.921875,31.726562-29.273438l39.058594-62.488281c1.976563-3.160156,1.503906-7.261719-1.128906-9.894531-2.640625-2.632812-6.734375-3.097656-9.894531-1.128906ZM184,200c-8.824219,0-16-7.175781-16-16s7.175781-16,16-16s16,7.175781,16,16-7.175781,16-16,16Zm26.078125-34.425781c-2.101563-2.964844-4.6875-5.550781-7.652344-7.652344l20.421875-12.769531Zm0,0"/><path id="elcos_new_version-s-path80" d="M232,232h-96c-4.425781,0-8,3.585938-8,8v32c0,4.414062,3.574219,8,8,8h96c4.425781,0,8-3.585938,8-8v-32c0-4.414062-3.574219-8-8-8Zm-8,32h-80v-16h80Zm0,0"/></g><g id="elcos_new_version-u-in" opacity="0"><g id="elcos_new_version-u-031-log-in" transform="matrix(.238096 0 0 0.238096 1705.061219 851.109481)"><g id="elcos_new_version-s-g28"><g id="elcos_new_version-s-g29"><path id="elcos_new_version-s-path81" d="M432,0L80,0C35.888,0,0,35.888,0,80v40c0,11.046,8.954,20,20,20s20-8.954,20-20v-40c0-22.056,17.944-40,40-40h352c22.056,0,40,17.944,40,40v352c0,22.056-17.944,40-40,40h-352c-22.056,0-40-17.944-40-40v-40c0-11.046-8.954-20-20-20s-20,8.954-20,20v40c0,44.112,35.888,80,80,80h352c44.112,0,80-35.888,80-80v-352c0-44.112-35.888-80-80-80Z"/></g></g><g id="elcos_new_version-u-arrow-in"><g id="elcos_new_version-s-g30"><g id="elcos_new_version-s-g31"><path id="elcos_new_version-s-path82" d="M335.919,213.567l-74.784-74.716c-7.814-7.807-20.477-7.801-28.284.013s-7.801,20.477.013,28.284l74.778,74.709c7.798,7.798,7.798,20.486,0,28.284-.029.029-.058.059-.087.088l-74.784,75.716c-7.762,7.859-7.684,20.522.175,28.284c3.897,3.85,8.976,5.771,14.053,5.771c5.16,0,10.318-1.985,14.23-5.946l74.746-75.677c23.346-23.398,23.329-61.425-.056-84.81Z"/></g></g><g id="elcos_new_version-s-g32"><g id="elcos_new_version-s-g33"><path id="elcos_new_version-s-path83" d="M233,236h-213c-11.046,0-20,8.954-20,20s8.954,20,20,20h213c11.046,0,20-8.954,20-20s-8.954-20-20-20Z"/></g></g></g></g><text id="elcos_new_version-s-text1" dx="0" dy="0" font-family="&quot;elcos_new_version:::Montserrat&quot;" font-size="75" font-weight="700" transform="matrix(1.308077 0 0 1.308077 1562.578616 948.476363)" stroke-width="0"><tspan id="elcos_new_version-s-tspan7" y="0" font-weight="700" stroke-width="0">IN</tspan></text></g><g id="elcos_new_version-u-start-stop" transform="matrix(4 0 0 4 1691.21806 765.960967)" opacity="0"><path id="elcos_new_version-s-path84" d="M41,27.17v7.83c.002756,3.390016-1.428493,6.623039-3.94,8.9C32.94,47.65,28.67,47,23,47c-6.627417,0-12-5.372583-12-12v-8c0-3.47,6-2.23,6,2v-15c-.001173-.824163.336765-1.612512.934472-2.179956s1.402537-.864,2.225528-.820044c1.632318.146752,2.872848,1.531428,2.84,3.17v7.83c0-1.656854,1.343146-3,3-3s3,1.343146,3,3v2c0-1.656854,1.343146-3,3-3s3,1.343146,3,3v3c-.001173-.824163.336765-1.612512.934472-2.179956s1.402537-.864,2.225528-.820044c1.632318.146752,2.872848,1.531428,2.84,3.17Z" fill="#f6ccaf"/><path id="elcos_new_version-s-path85" d="M41,27.17v7.83c.001501,4.020807-2.010828,7.775153-5.36,10L27,45c-5.522847,0-10-4.477153-10-10v-21c-.014703-.898704.374324-1.756651,1.060034-2.33776s1.595845-.824149,2.479966-.66224c1.478538.322985,2.514207,1.657566,2.46,3.17v7.83c-.001173-.824163.336765-1.612512.934472-2.179956s1.402537-.864,2.225528-.820044c1.62841.146498,2.867538,1.525246,2.84,3.16v1.84c-.001173-.824163.336765-1.612512.934472-2.179956s1.402537-.864,2.225528-.820044c1.62841.146498,2.867538,1.525246,2.84,3.16v2.84c-.014703-.898704.374324-1.756651,1.060034-2.33776s1.595845-.824149,2.479966-.66224c1.478538.322985,2.514207,1.657566,2.46,3.17Z" fill="#ffdec7"/><path id="elcos_new_version-s-path86" d="M17,29v6c0,.552285-.447715,1-1,1s-1-.447715-1-1v-9.47c1.239431.715584,2.00211,2.038831,2,3.47Z" fill="#edb996"/><g id="elcos_new_version-s-g34"><g id="elcos_new_version-u-onde" transform="translate(.000001 0)"><path id="elcos_new_version-s-path87" d="M27.92,14.15c.421825-2.960886-.843138-5.909796-3.279279-7.64473s-5.636571-1.966122-8.296769-.599327-4.335852,4.103285-4.343952,7.094057c0,.95.05,2,1.07,2c.293376.003322.57341-.12236.765929-.343757s.278099-.516171.234071-.806243c-.331111-2.323715.723163-4.627132,2.698276-5.895288s4.508336-1.268155,6.483448,0s3.029387,3.571573,2.698276,5.895288c-.034102.518101.333988.976113.847292,1.054281s1.001043-.249514,1.122708-.754281Z" fill="#231f20"/><path id="elcos_new_version-s-path88" d="M20,2c3.402041.000218,6.612545,1.574566,8.695775,4.264182s2.804735,6.191806,1.954225,9.485818c-.138071.535716.184284,1.081929.72,1.22s1.081929-.184284,1.22-.72c1.353825-5.262124-.707786-10.81116-5.168985-13.912852s-10.380831-3.101691-14.84203,0-6.52281,8.650728-5.168985,13.912852c.138071.535716.684284.858071,1.22.72s.858071-.684284.72-1.22c-.85051-3.294012-.129005-6.796202,1.954225-9.485818s5.293734-4.263964,8.695775-4.264182Z" fill="#231f20"/></g><path id="elcos_new_version-s-path89" d="M36,23.57c-.155676-1.383403-1.019422-2.586363-2.280481-3.176081s-2.738026-.481364-3.899519.286081c-.395706-1.13331-1.279469-2.028992-2.407376-2.439845s-2.380703-.293436-3.412624.319845v-4.39c.068698-1.628084-.857098-3.135093-2.340419-3.80973s-3.227613-.382022-4.409581.73973C15.59,12.67,16,13.43,16,25c-2.7-2-6-.8-6,2v8c0,7.179702,5.820298,13,13,13h6c7.179702,0,13-5.820298,13-13v-7.83c.049897-1.453245-.692779-2.819102-1.939661-3.567231s-2.801545-.760676-4.060339-.032769ZM40,35c0,6.075132-4.924868,11-11,11h-6c-6.075132,0-11-4.924868-11-11v-8c0-1.4,2-1.23,3.09-.16s.91,2.02.91,8.16c0,.552285.447715,1,1,1s1-.447715,1-1v-21c-.000833-.550054.224913-1.076169.624127-1.454571s.936651-.575683,1.485873-.545429c1.097245.124073,1.917729,1.06611,1.89,2.17L22,29c0,.552285.447715,1,1,1s1-.447715,1-1v-7c0-1.104569.895431-2,2-2s2,.895431,2,2v7c0,.552285.447715,1,1,1s1-.447715,1-1v-5c0-1.104569.895431-2,2-2s2,.895431,2,2v5c0,.552285.447715,1,1,1s1-.447715,1-1c0-2.17-.13-2.74.62-3.45.601257-.579671,1.49941-.724698,2.252554-.363723s1.202687,1.151937,1.127446,1.983723Z" fill="#231f20"/></g></g><g id="elcos_new_version-u-switch-on" transform="matrix(.25 0 0 0.25 1035.197235 771.662368)" opacity="0"><path id="elcos_new_version-s-path90" d="M373.333,117.333h-234.666C62.083,117.333,0,179.417,0,256s62.083,138.667,138.667,138.667h234.667C449.917,394.667,512,332.583,512,256s-62.083-138.667-138.667-138.667Z" fill="#cfd8dc"/><circle id="elcos_new_version-s-circle4" r="96" transform="translate(373.333 256)" fill="#4caf50"/><g id="elcos_new_version-s-g35"><path id="elcos_new_version-s-path91" d="M117.333,309.333c-17.673,0-32-14.327-32-32v-42.667c0-17.673,14.327-32,32-32s32,14.327,32,32v42.667c0,17.673-14.327,32-32,32Zm0-85.333c-5.891,0-10.667,4.776-10.667,10.667v42.667c0,5.891,4.776,10.667,10.667,10.667s10.667-4.777,10.667-10.668v-42.667c0-5.89-4.776-10.666-10.667-10.666Z" fill="#455a64"/><path id="elcos_new_version-s-path92" d="M224,309.333c-4.037,0-7.728-2.279-9.536-5.888L192,258.517v40.149c0,5.891-4.776,10.667-10.667,10.667s-10.667-4.776-10.667-10.667v-85.333c.006-4.941,3.405-9.232,8.213-10.368c4.819-1.186,9.812,1.151,11.989,5.611l22.464,44.907v-40.149c0-5.891,4.776-10.667,10.667-10.667s10.667,4.776,10.667,10.667v85.333c-.006,4.941-3.405,9.232-8.213,10.368-.802.202-1.626.302-2.453.298Z" fill="#455a64"/></g><path id="elcos_new_version-s-path93" d="M373.333,352c-53.019,0-96-42.981-96-96s42.981-96,96-96s96,42.981,96,96-42.98,96-96,96v0Zm0-170.667c-41.237,0-74.667,33.429-74.667,74.667s33.429,74.667,74.667,74.667s74.667-33.43,74.667-74.667-33.429-74.667-74.667-74.667Z"/><path id="elcos_new_version-s-path94" d="M373.333,394.667h-234.666C62.083,394.667,0,332.583,0,256s62.083-138.667,138.667-138.667h234.667C449.917,117.333,512,179.417,512,256s-62.083,138.667-138.667,138.667Zm-234.666-256C73.866,138.667,21.334,191.199,21.334,256s52.532,117.333,117.333,117.333h234.667c64.801,0,117.333-52.532,117.333-117.333s-52.532-117.333-117.333-117.333h-234.667Z"/><path id="elcos_new_version-s-path95" d="M117.333,309.333c-17.673,0-32-14.327-32-32v-42.667c0-17.673,14.327-32,32-32s32,14.327,32,32v42.667c0,17.673-14.327,32-32,32Zm0-85.333c-5.891,0-10.667,4.776-10.667,10.667v42.667c0,5.891,4.776,10.667,10.667,10.667s10.667-4.777,10.667-10.668v-42.667c0-5.89-4.776-10.666-10.667-10.666Z"/><path id="elcos_new_version-s-path96" d="M224,309.333c-4.037,0-7.728-2.279-9.536-5.888L192,258.517v40.149c0,5.891-4.776,10.667-10.667,10.667s-10.667-4.776-10.667-10.667v-85.333c0-5.891,4.776-10.666,10.667-10.666c4.036,0,7.727,2.279,9.535,5.887l22.464,44.928v-40.149c0-5.891,4.776-10.667,10.667-10.667s10.667,4.776,10.667,10.667v85.333c-.006,4.941-3.405,9.232-8.213,10.368-.802.201-1.626.301-2.453.299Z"/></g><path id="elcos_new_version-s-path97" d="M466.437202,600.588875v126.898358c0,0-5.44011,46.070496,29.485305,46.070496q34.925415,0,357.081376,2.871657" transform="translate(.000002-2.999999)" fill="none" stroke="#000" stroke-width="10"/><g id="elcos_new_version-u-play" transform="matrix(-.003923 0.175738-.175738-.003923 500.630317 605.850266)"><path id="elcos_new_version-s-path98" d="M144,55.999v272l224-136Z" fill="#4dd0e1"/><path id="elcos_new_version-s-path99" d="M376.304,178.327l-224-136c-4.940064-3.00002-11.113725-3.103985-16.152-.272-5.036182,2.834669-8.15234,8.164859-8.152,13.944v136c0,8.832,7.168,16,16,16s16-7.168,16-16v-107.568L337.168,191.999L160,299.567v-43.568c0-8.832-7.168-16-16-16s-16,7.168-16,16v72c0,8.836556,7.163444,16,16,16c2.88,0,5.752-.776,8.304-2.328l224-136c4.776-2.896,7.696-8.08,7.696-13.672s-2.92-10.776-7.696-13.672ZM16,311.999h72c8.832,0,16-7.168,16-16s-7.168-16-16-16h-72c-8.832,0-16,7.168-16,16s7.168,16,16,16Zm0-208h40c8.832,0,16-7.168,16-16s-7.168-16-16-16h-40c-8.832,0-16,7.168-16,16s7.168,16,16,16Zm88,48c0-8.832-7.168-16-16-16h-8c-8.832,0-16,7.168-16,16s7.168,16,16,16h8c8.832,0,16-7.168,16-16Zm-56,56c-8.832,0-16,7.168-16,16s7.168,16,16,16h24c8.832,0,16-7.168,16-16s-7.168-16-16-16h-24Z"/></g>
</svg>
