<svg id="ecvuhK35n8k1" xmlns="http://www.w3.org/2000/svg" xmlns:xlink="http://www.w3.org/1999/xlink" viewBox="0 0 1920 1080" shape-rendering="geometricPrecision" text-rendering="geometricPrecision"><g transform="matrix(.8 0 0 0.8-298.239316 151.380313)"><g id="ecvuhK35n8k3" transform="matrix(.685163 0 0 0.685161 785.103084 159.031645)" opacity="0"><g><g><path d="M80.27,212.268c6.351,20.319,25.318,35.066,47.73,35.066s41.379-14.747,47.73-35.066Z" fill="#808285" stroke="#000" stroke-width="5"/></g><g><path d="M161.332,212.268c-8.637,14.977-24.801,25.066-43.332,25.066-11.257,0-21.643-3.722-30-10c9.122,12.144,23.643,20,40,20c22.412,0,41.379-14.747,47.73-35.066Z" transform="translate(0-2.919022)" fill="#58595b"/></g><g><path d="M168.857,212.268c-7.702,17.692-25.331,30.066-45.857,30.066-12.534,0-23.982-4.623-32.757-12.243C99.41,240.648,112.92,247.334,128,247.334c22.412,0,41.379-14.747,47.73-35.066Z" transform="translate(0-2.919022)" fill="#414042"/></g><g><path d="M144.697,220.268h-.395c-1.104,0-2-.896-2-2s.896-2,2-2h.395c1.104,0,2,.896,2,2s-.895,2-2,2Zm-8.394,0h-43c-1.104,0-2-.896-2-2s.896-2,2-2h43c1.104,0,2,.896,2,2s-.896,2-2,2Z" fill="#939598"/></g></g><path d="M117.333,30.963v-1.63c0-5.881,4.785-10.666,10.667-10.666s10.667,4.785,10.667,10.666v1.63c4.148.693,8.161,1.779,12,3.227v-4.857c0-12.498-10.168-22.666-22.667-22.666s-22.667,10.168-22.667,22.666v4.857c3.839-1.447,7.852-2.533,12-3.227Z" fill="#808285" stroke="#000" stroke-width="5" stroke-linecap="round" stroke-linejoin="round"/><path d="M145.667,29.333v3.212c1.696.484,3.365,1.028,5,1.645v-4.857c0-12.498-10.168-22.666-22.667-22.666-.845,0-1.679.05-2.5.141c11.326,1.249,20.167,10.872,20.167,22.525Z" transform="translate(.775492 2.814124)" fill="#58595b"/><g><path d="M192.267,141.034v-46.701c0-35.494-28.773-64.267-64.267-64.267s-64.267,28.774-64.267,64.267v46.701c0,12.183-4.565,23.924-12.794,32.908L30.535,196.216c-5.629,6.146-1.27,16.051,7.064,16.051h180.802c8.334,0,12.694-9.906,7.064-16.051l-20.404-22.274c-8.229-8.984-12.794-20.725-12.794-32.908Z" fill="#d10028" stroke="#000" stroke-width="5" stroke-linecap="round" stroke-linejoin="round"/></g><g><path d="M222.473868,196.216l-20.647445-22.274c-8.229-8.983-13.790931-20.361-13.790931-32.544v-47.065c0-29.134-15.633476-51.366799-42.209476-59.248799C161.583016,46.796201,172.267,63.192,172.267,84.333v46.701c0,12.183,4.565,23.924,12.794,32.908l20.404,22.274c5.629,6.146,1.27,16.051-7.064,16.051h-167.468986c-.193,5.064,4.153986,7.889829,10.035986,7.889829l174.68433-.034121c8.334.001,12.451538-7.760708,6.821538-13.906708Z" fill="#b7022d"/></g><g><g><g><path d="M210.475,144.335c-.69,0-1.391-.144-2.061-.446-2.515-1.14-3.63-4.103-2.491-6.618c8.698-19.198,8.698-44.009,0-63.207-1.14-2.516-.024-5.479,2.491-6.618c2.517-1.138,5.478-.023,6.618,2.491c9.834,21.705,9.834,49.756,0,71.461-.836,1.845-2.655,2.937-4.557,2.937Z" fill="#d10028" stroke="#000" stroke-width="5" stroke-linecap="round" stroke-linejoin="round"/></g><g><path d="M229.475,154.335c-.69,0-1.391-.144-2.061-.446-2.515-1.14-3.63-4.103-2.491-6.618c11.451-25.273,11.451-57.934,0-83.207-1.14-2.516-.024-5.479,2.491-6.618c2.518-1.136,5.479-.023,6.618,2.491c12.587,27.78,12.587,63.681,0,91.461-.836,1.845-2.655,2.937-4.557,2.937Z" fill="#d10028" stroke="#000" stroke-width="5" stroke-linecap="round" stroke-linejoin="round"/></g></g><g><g><path d="M45.525,144.335c-1.903,0-3.721-1.092-4.557-2.938-9.834-21.705-9.834-49.755,0-71.461c1.139-2.515,4.104-3.628,6.618-2.491c2.515,1.14,3.63,4.103,2.491,6.618-8.698,19.199-8.698,44.009,0,63.207c1.14,2.516.024,5.479-2.491,6.618-.67.303-1.371.447-2.061.447Z" fill="#d10028" stroke="#000" stroke-width="5" stroke-linecap="round" stroke-linejoin="round"/></g><g><path d="M26.525,154.335c-1.903,0-3.721-1.092-4.557-2.938-12.587-27.78-12.587-63.681,0-91.461c1.14-2.515,4.103-3.629,6.618-2.491c2.515,1.14,3.63,4.103,2.491,6.618-11.451,25.273-11.451,57.934,0,83.207c1.14,2.516.024,5.479-2.491,6.618-.67.303-1.371.447-2.061.447Z" fill="#d10028" stroke="#000" stroke-width="5" stroke-linecap="round" stroke-linejoin="round"/></g></g></g><g><g><path d="M128,69.069c-7.324,0-13.079,5.976-12.454,12.933l5.064,56.318c.329,3.657,3.539,6.467,7.39,6.467s7.061-2.809,7.389-6.467l5.064-56.318c.626-6.957-5.129-12.933-12.453-12.933Z" fill="#f1f2f2" stroke="#000" stroke-width="5" stroke-linecap="round" stroke-linejoin="round"/></g><g><path d="M128,152.845c-6.756,0-12.233,5.221-12.233,11.662s5.477,11.662,12.233,11.662s12.233-5.221,12.233-11.662c.001-6.441-5.477-11.662-12.233-11.662Z" fill="#f1f2f2" stroke="#000" stroke-width="5" stroke-linecap="round" stroke-linejoin="round"/></g></g></g><text id="ecvuhK35n8k35" dx="0" dy="0" font-family="&quot;ecvuhK35n8k1:::Montserrat&quot;" font-size="75" font-weight="700" transform="matrix(1.873842 0 0 1.873842 979.732772 299.688418)" opacity="0" fill="#d10028" stroke-width="0"><tspan y="0" font-weight="700" stroke-width="0">B</tspan></text><text id="ecvuhK35n8k37" dx="0" dy="0" font-family="&quot;ecvuhK35n8k1:::Montserrat&quot;" font-size="75" font-weight="700" transform="matrix(1.873842 0 0 1.873842 979.732772 299.688418)" opacity="0" fill="#d10028" stroke-width="0"><tspan y="0" font-weight="700" stroke-width="0">A</tspan></text></g>
</svg>
