<svg id="e8N2hvEBqJC1" xmlns="http://www.w3.org/2000/svg" xmlns:xlink="http://www.w3.org/1999/xlink" viewBox="0 0 1920 1080" shape-rendering="geometricPrecision" text-rendering="geometricPrecision"><path id="e8N2hvEBqJC2" d="M1665.132224,449.291376l86.889402.000001q13.46698.152837,13.46698-13.661862q0-15.282669,0-206.186375" transform="translate(-.002224-.00314)" opacity="0" fill="none" stroke="#000" stroke-width="3"/><g id="e8N2hvEBqJC3" transform="matrix(.1 0 0 0.1 1703.48 422.47)" opacity="0"><g><circle r="256" transform="translate(256 256)" fill="#e10000"/><path d="M348.6,391c-11.257762.034525-22.061062-4.438041-30-12.42L256,316l-62.6,62.61c-10.717968,10.717968-26.339746,14.903811-40.980762,10.980763s-26.076952-15.358984-30.000001-30.000001.262795-30.262794,10.980763-40.980762L196,256l-62.61-62.6c-16.568542-16.568543-16.568542-43.431457,0-60s43.431457-16.568542,60,0L256,196l62.6-62.61c10.717968-10.717968,26.339746-14.903811,40.980762-10.980763s26.076952,15.358984,30.000001,30.000001-.262795,30.262794-10.980763,40.980762L316,256l62.61,62.6c12.131815,12.130518,15.760227,30.375373,9.192843,46.224659s-22.036784,26.180683-39.192843,26.175341h-.01Z" fill="#fff"/></g></g>
</svg>
