<svg id="eKGOZxr0Y1P1" xmlns="http://www.w3.org/2000/svg" xmlns:xlink="http://www.w3.org/1999/xlink" viewBox="0 0 1920 1080" shape-rendering="geometricPrecision" text-rendering="geometricPrecision"><defs><rect id="eKGOZxr0Y1P2" width="682.7" height="682.7" rx="0" ry="0"/></defs><g transform="matrix(2.44 0 0 2.44 212.2244 469.45)"><rect width="11.34" height="32.26" rx="1.71" ry="1.71" transform="translate(160.1 116.23)" fill="#c6d0da" stroke="#1d1d1b" stroke-width="2" stroke-miterlimit="10"/><rect width="11.34" height="32.26" rx="1.71" ry="1.71" transform="translate(59.48 116.23)" fill="#c6d0da" stroke="#1d1d1b" stroke-width="2" stroke-miterlimit="10"/><rect width="141.73" height="11.34" rx="1.71" ry="1.71" transform="translate(44.68 146.82)" fill="#c6d0da" stroke="#1d1d1b" stroke-width="2" stroke-miterlimit="10"/><rect width="59.09" height="12.18" rx="0" ry="0" transform="translate(203.49 63.317994)" fill="#dae4ea"/><rect width="59.09" height="12.18" rx="0" ry="0" transform="translate(203.49 63.66)" fill="none" stroke="#1d1d1b" stroke-width="2" stroke-miterlimit="10"/><path d="M191.97,31.1v77.29c0,5.49-4.45,9.93-9.93,9.93h-139.23v-97.15h139.23c5.48,0,9.93,4.45,9.93,9.93" fill="#dae4ea"/><path d="M191.97,31.1v77.29c0,5.49-4.45,9.93-9.93,9.93h-139.23v-97.15h139.23c5.48,0,9.93,4.45,9.93,9.93Z" fill="none" stroke="#1d1d1b" stroke-width="2" stroke-miterlimit="10"/><path d="M61.24,22.17v65.27c0,11.97,9.7,21.67,21.67,21.67h108.03c-.37,5.15-3.65,8.22-8.89,8.22h-138.24v-95.16h17.43Z" fill="#c6d0da"/><path d="M76.81,118.33h78.32L146,137.79c-.35.74-1.1,1.22-1.92,1.22h-65.16c-1.17,0-2.12-.95-2.12-2.12v-18.56h.01Z" fill="#808b95"/><path d="M191.97,85.2l9.05-3.46c1.49-.57,2.47-2,2.47-3.59v-16.8c0-1.59-.98-3.02-2.47-3.59l-9.05-3.46v30.9Z" fill="#808b95"/><path d="M76.81,118.33h78.32L146,137.79c-.35.74-1.1,1.22-1.92,1.22h-65.16c-1.17,0-2.12-.95-2.12-2.12v-18.56h.01Z" fill="none" stroke="#1d1d1b" stroke-miterlimit="10"/><path d="M191.97,85.2l9.05-3.46c1.49-.57,2.47-2,2.47-3.59v-16.8c0-1.59-.98-3.02-2.47-3.59l-9.05-3.46v30.9Z" fill="none" stroke="#1d1d1b" stroke-miterlimit="10"/><path d="M64.4,21.17h105.97L161.47,2.2c-.49-1.04-1.53-1.7-2.68-1.7h-82.8c-1.15,0-2.19.66-2.68,1.7l-8.9,18.97h-.01Z" fill="#808b95"/><path d="M64.4,21.17h105.97L161.47,2.2c-.49-1.04-1.53-1.7-2.68-1.7h-82.8c-1.15,0-2.19.66-2.68,1.7l-8.9,18.97h-.01Z" fill="none" stroke="#1d1d1b" stroke-miterlimit="10"/><path d="M131.01,12.02c0-1.91,1.55-3.46,3.46-3.46s3.46,1.55,3.46,3.46v9.15h-6.91v-9.15h-.01Zm17.08,9.15v-9.15c0-1.91,1.55-3.46,3.46-3.46s3.46,1.55,3.46,3.46v9.15h-6.91-.01ZM79.76,12.02c0-1.91,1.55-3.46,3.46-3.46s3.46,1.55,3.46,3.46v9.15h-6.91v-9.15h-.01Zm34.16,0c0-1.91,1.55-3.46,3.46-3.46s3.46,1.55,3.46,3.46v9.15h-6.91v-9.15h-.01Zm-17.08,0c0-1.91,1.55-3.46,3.46-3.46s3.46,1.55,3.46,3.46v9.15h-6.91v-9.15h-.01Z" fill="#5e6b76"/><path d="M131.01,12.02c0-1.91,1.55-3.46,3.46-3.46s3.46,1.55,3.46,3.46v9.15h-6.91v-9.15h-.01Zm17.08,9.15v-9.15c0-1.91,1.55-3.46,3.46-3.46s3.46,1.55,3.46,3.46v9.15h-6.91-.01ZM79.76,12.02c0-1.91,1.55-3.46,3.46-3.46s3.46,1.55,3.46,3.46v9.15h-6.91v-9.15h-.01Zm34.16,0c0-1.91,1.55-3.46,3.46-3.46s3.46,1.55,3.46,3.46v9.15h-6.91v-9.15h-.01Zm-17.08,0c0-1.91,1.55-3.46,3.46-3.46s3.46,1.55,3.46,3.46v9.15h-6.91v-9.15h-.01Z" fill="none" stroke="#1d1d1b" stroke-miterlimit="10"/><rect width="13.82" height="41.29" rx="0" ry="0" transform="translate(28.98 49.11)" fill="#dae4ea"/><rect width="13.82" height="41.29" rx="0" ry="0" transform="translate(28.98 49.11)" fill="none" stroke="#1d1d1b" stroke-miterlimit="10"/><path d="M12.35,17.37h16.63c1.91,0,3.46,1.55,3.46,3.46v97.85c0,1.91-1.55,3.46-3.46,3.46h-16.63c-6.54,0-11.86-5.32-11.86-11.86v-81.05c0-6.54,5.32-11.85,11.86-11.85" fill="#727993"/><path d="M12.35,17.37h16.63c1.91,0,3.46,1.55,3.46,3.46v97.85c0,1.91-1.55,3.46-3.46,3.46h-16.63c-6.54,0-11.85-5.32-11.85-11.85v-81.06c0-6.54,5.32-11.86,11.85-11.86Z" fill="none" stroke="#1d1d1b" stroke-miterlimit="10"/><path d="M12.35,17.37h6.87c-.19.85-.3,1.73-.3,2.64v81.05c0,6.54,5.32,11.85,11.85,11.85h1.65v5.76c0,1.91-1.55,3.46-3.46,3.46h-16.61c-6.54,0-11.86-5.32-11.86-11.86v-81.04c0-6.54,5.32-11.85,11.86-11.85" fill="#3d445a"/><path d="M12.35,17.37h6.87c-.19.85-.3,1.73-.3,2.64v81.05c0,6.54,5.32,11.85,11.85,11.85h1.65v5.76c0,1.91-1.55,3.46-3.46,3.46h-16.61c-6.54,0-11.85-5.32-11.85-11.85v-81.05c0-6.54,5.32-11.86,11.85-11.86Z" fill="none" stroke="#1d1d1b" stroke-miterlimit="10"/><path d="M17.46,126.36c1.91,0,3.46-1.55,3.46-3.46v-106.3c0-1.91-1.55-3.46-3.46-3.46s-3.46,1.55-3.46,3.46v106.31c0,1.91,1.55,3.46,3.46,3.46" fill="#8f8f89"/><path d="M17.46,126.36c1.91,0,3.46-1.55,3.46-3.46v-106.3c0-1.91-1.55-3.46-3.46-3.46s-3.46,1.55-3.46,3.46v106.31c0,1.91,1.55,3.46,3.46,3.46v-.01Z" fill="none" stroke="#1d1d1b" stroke-miterlimit="10"/><path d="M107.38,138.46l4.3-9.15c.81-1.73,2.87-2.47,4.6-1.66s2.47,2.87,1.66,4.6l-3.17,6.76h-7.58c.05-.19.12-.37.2-.55h-.01Zm16.12,0l4.3-9.15c.81-1.73,2.87-2.47,4.6-1.66s2.47,2.87,1.66,4.6l-3.18,6.76h-7.58c.05-.19.12-.37.2-.55Zm-32.25,0l4.3-9.15c.81-1.73,2.87-2.47,4.6-1.66s2.47,2.87,1.66,4.6l-3.17,6.76h-7.58c.05-.19.12-.37.2-.55h-.01Z" fill="#5e6b76"/><path d="M107.38,138.46l4.3-9.15c.81-1.73,2.87-2.47,4.6-1.66s2.47,2.87,1.66,4.6l-3.17,6.76h-7.58c.05-.19.12-.37.2-.55h-.01Zm16.12,0l4.3-9.15c.81-1.73,2.87-2.47,4.6-1.66s2.47,2.87,1.66,4.6l-3.18,6.76h-7.58c.05-.19.12-.37.2-.55Zm-32.25,0l4.3-9.15c.81-1.73,2.87-2.47,4.6-1.66s2.47,2.87,1.66,4.6l-3.17,6.76h-7.58c.05-.19.12-.37.2-.55h-.01Z" fill="none" stroke="#1d1d1b" stroke-miterlimit="10"/><path d="M79.96,100.1c-.22.07-.46.04-.65-.09-.36-.23-.46-.72-.23-1.08l23.78-36.2c.23-.36.72-.46,1.08-.23s.46.72.23,1.08L80.39,99.79c-.11.15-.26.26-.42.31h-.01Z" fill="#373d3d"/><path d="M53.32,91.06c-.17.05-.35.05-.53-.02-.39-.16-.58-.62-.42-1.01L70.7,46.02c.16-.39.62-.58,1.01-.42s.58.62.42,1.01L53.8,90.62c-.1.22-.27.38-.49.45l.01-.01Z" fill="#373d3d"/><circle r="14.06" transform="translate(66.41 94.86)" fill="#626a75"/><path d="M70.82,109.01c-7.81,2.43-16.15-1.94-18.58-9.75s1.94-16.15,9.75-18.58s16.15,1.94,18.58,9.75c2.44,7.82-1.94,16.15-9.75,18.58ZM62.46,82.16c-6.99,2.18-10.91,9.64-8.73,16.63s9.64,10.91,16.63,8.73s10.91-9.64,8.73-16.63c-2.17-7-9.63-10.91-16.63-8.73Z" fill="#373d3d"/><path d="M68.75,102.36c-4.14,1.29-8.56-1.03-9.85-5.17s1.03-8.56,5.17-9.85s8.56,1.03,9.85,5.17-1.02,8.56-5.17,9.85Z" fill="#fff"/><path d="M68.98,103.1c-4.55,1.42-9.39-1.13-10.81-5.67s1.13-9.39,5.67-10.81s9.39,1.13,10.81,5.67c1.42,4.55-1.13,9.39-5.67,10.81ZM64.3,88.09c-3.73,1.16-5.82,5.15-4.66,8.87s5.15,5.82,8.87,4.66s5.82-5.15,4.66-8.87-5.14-5.82-8.87-4.66Z" fill="#373d3d"/><path d="M103.41,51.5c.1,1.48-.05,2.95-.38,4.35l2.99,2.54-2.51,4.77-3.79-1.02c-.96,1.08-2.08,2.02-3.35,2.78l.31,3.93-5.15,1.6-1.97-3.42c-1.48.1-2.93-.04-4.34-.39l-2.54,2.99-4.77-2.5l1.02-3.79c-1.08-.95-2.02-2.09-2.79-3.37l-3.92.32-1.6-5.14l3.4-1.97c-.1-1.48.05-2.95.38-4.35l-2.99-2.54l2.51-4.77l3.79,1.02c.95-1.08,2.08-2.02,3.35-2.78l-.31-3.93l5.15-1.6l1.97,3.42c1.48-.1,2.93.04,4.34.39l2.54-2.99l4.77,2.5-1.02,3.79c1.08.96,2.02,2.09,2.79,3.36l3.93-.31l1.6,5.14-3.42,1.97h.01Z" fill="#dcebf3"/><path d="M96.91,69.6l-5.15,1.6c-.34.11-.72-.04-.9-.36l-1.74-3c-1.22.04-2.43-.07-3.62-.33l-2.24,2.64c-.23.27-.62.35-.95.19l-4.77-2.5c-.32-.17-.49-.53-.39-.88l.9-3.34c-.89-.83-1.66-1.77-2.33-2.81l-3.45.28c-.36.03-.7-.2-.81-.54l-1.6-5.14c-.11-.34.04-.72.36-.9l2.99-1.74c-.03-1.21.07-2.42.33-3.62L70.9,46.91c-.27-.23-.35-.64-.18-.95l2.51-4.77c.17-.32.53-.49.89-.38l3.34.9c.83-.89,1.77-1.66,2.8-2.33l-.27-3.46c-.03-.36.2-.7.54-.81l5.15-1.6c.34-.11.72.04.9.36l1.74,3c1.22-.04,2.43.07,3.62.33l2.24-2.64c.23-.27.62-.35.95-.19l4.77,2.5c.32.17.49.53.39.88l-.9,3.34c.89.85,1.67,1.79,2.33,2.8l3.46-.27c.36-.03.7.2.81.54l1.6,5.14c.11.34-.04.72-.36.9l-3,1.74c.04,1.2-.07,2.42-.33,3.62l2.64,2.24c.27.23.35.64.18.95l-2.51,4.77c-.17.32-.53.49-.89.38L99.98,63c-.83.89-1.77,1.66-2.8,2.33l.27,3.46c.03.36-.2.7-.54.81Zm-5.01-.07l3.96-1.24-.26-3.31c-.02-.29.12-.57.37-.73c1.18-.71,2.26-1.6,3.18-2.63.19-.22.5-.31.78-.23l3.2.86l1.93-3.66-2.52-2.14c-.22-.19-.32-.49-.25-.77.33-1.37.45-2.75.37-4.12-.02-.29.13-.57.39-.72l2.87-1.66-1.23-3.95-3.31.26c-.29.02-.57-.12-.73-.37-.71-1.17-1.6-2.24-2.65-3.18-.21-.19-.31-.5-.23-.78l.86-3.2-3.67-1.92-2.14,2.52c-.19.22-.49.32-.77.25-1.34-.33-2.72-.45-4.11-.36-.29.02-.57-.13-.72-.39l-1.66-2.87-3.96,1.24.26,3.31c.02.29-.12.57-.37.73-1.18.71-2.26,1.6-3.18,2.63-.19.22-.5.31-.78.23l-3.2-.86-1.93,3.66l2.52,2.14c.22.19.32.49.25.77-.33,1.37-.45,2.75-.37,4.12.02.29-.13.57-.39.72l-2.86,1.66l1.23,3.95l3.3-.27c.3-.02.58.11.73.37.72,1.21,1.61,2.28,2.64,3.19.22.19.31.5.23.78l-.86,3.2l3.67,1.92l2.14-2.52c.19-.22.49-.32.77-.25c1.34.33,2.72.45,4.11.36.29-.02.57.13.72.39l1.68,2.88-.01-.01Z" fill="#373d3d"/><circle r="7.64" transform="translate(88.72 52.35)" fill="#fff"/><path d="M91.23,60.39c-4.43,1.38-9.15-1.1-10.53-5.53s1.1-9.15,5.53-10.53s9.15,1.1,10.53,5.53-1.1,9.15-5.53,10.53ZM86.69,45.8c-3.61,1.12-5.63,4.98-4.51,8.59s4.98,5.63,8.59,4.51s5.63-4.98,4.51-8.59-4.98-5.63-8.59-4.51Z" fill="#373d3d"/></g><g transform="translate(-513.300903 68.084374)"><g transform="matrix(.926008 0 0-.926008 1239.60686 794.949547)"><rect width="408.331427" height="23.1502" rx="0" ry="0" transform="matrix(1.082534 0 0 1.275721 24.867375 6.373547)" fill="#d2dbed" stroke-width="0"/><path d="M1646.625496,231.433224l-490.657786-.002671-2.146596,61.078438h109.867645q4.360309,233.522499,7.493542,264.457448t37.077855,90.992303l-31.594919,86.802325-12.719791,3.96346-.000002,20.625431l87.627671-.364112-.000002-20.261319-13.110976-3.963458l28.365662-35.564311q72.964746,26.328977,98.437267,24.87769t99.166563-25.065765l30.576372,35.752387-13.731873,4.175326-.000001,16.988779l85.405524.000002.059375-17.200653-11.516392-3.68095-33.609902-92.503101q32.302146-48.878845,35.330212-112.568055c3.028066-63.68921-64.182729-187.25205-180.703319-187.252052q-116.52059-.000002-133.476205,60.819969l.826582-105.923233l9.09958-8.062114l297.226939-1.218353-3.293025-56.903411Z" transform="matrix(1.094746 0 0-1.094746-1357.693071 862.15461)" fill="#d10028" stroke-width="3.84"/><ellipse rx="121.446356" ry="121.446356" transform="translate(247.118386 277.207048)" fill="#b7022d" stroke-width="0"/><g><g><g clip-path="url(#eKGOZxr0Y1P96)"><g><g transform="matrix(-.008236 0.999966-.999966-.008236 524.916225 35.01143)"><g transform="translate(406.844 406.475)"><path d="M0,0h-160.8" fill="none" stroke="#000" stroke-width="5" stroke-linecap="round" stroke-linejoin="round" stroke-miterlimit="13.3333"/></g><g transform="translate(483.943965 404.700136)"><path d="M0,0l-3.90132-.08894c-4.2,0-7.7,3.4-7.7,7.7v92.1c0,4.2,3.4,7.7,7.7,7.7L0,107.5c4.2,0,7.7-3.4,7.7-7.7v-92.1C7.7,3.4,4.2,0,0,0Z" transform="translate(-15.539246-5.564231)" fill="#bababa" stroke="#000" stroke-width="5" stroke-linecap="round" stroke-linejoin="round" stroke-miterlimit="13.3333"/></g><g transform="translate(156.695 371.313)"><path d="M0,0c-25.7-23.9-41.7-58-41.7-95.8c0-40.5,18.4-76.7,47.3-100.7" fill="none" stroke="#000" stroke-width="5" stroke-linecap="round" stroke-linejoin="round" stroke-miterlimit="13.3333"/></g><g transform="translate(329.745 174.734)"><path d="M0,0C28.9,24,47.3,60.2,47.3,100.7c0,72.3-58.7,131-131,131-22,0-42.8-5.4-61-15" transform="matrix(.859659-.510869 0.510869 0.859659-65.259129-28.635731)" fill="none" stroke="#000" stroke-width="5" stroke-linecap="round" stroke-linejoin="round" stroke-miterlimit="13.3333"/></g><g transform="translate(329.745 85.271)"><path d="M0,0C73.3,32,124.5,105.1,124.5,190.2c0,49.7-17.5,95.3-46.6,131h48.4v88.7L-84,403.7c-115.4-3.4-207.2-98-207.2-213.4c0-84.8,50.8-157.6,123.7-189.8" fill="none" stroke="#000" stroke-width="5" stroke-linecap="round" stroke-linejoin="round" stroke-miterlimit="13.3333"/></g><g transform="translate(259.429 450.94)"><path d="M0,0c0-6.9-5.6-12.5-12.5-12.5s-12.5,5.6-12.5,12.5s5.6,12.5,12.5,12.5s12.5-5.6,12.5-12.5Z" fill="#dddaeb" stroke="#000" stroke-width="5" stroke-linecap="round" stroke-linejoin="round" stroke-miterlimit="13.3333"/></g><g transform="translate(376.16 453.791)"><path d="M0,0c0-6.9-5.6-12.5-12.5-12.5s-12.5,5.6-12.5,12.5s5.6,12.5,12.5,12.5s12.5-5.6,12.5-12.5Z" fill="#dddaeb" stroke="#000" stroke-width="5" stroke-linecap="round" stroke-linejoin="round" stroke-miterlimit="13.3333"/></g><g transform="translate(138.669 397.754)"><path d="M0,0c0-6.9-5.6-12.5-12.5-12.5s-12.5,5.6-12.5,12.5s5.6,12.5,12.5,12.5s12.5-5.6,12.5-12.5Z" fill="#dddaeb" stroke="#000" stroke-width="5" stroke-linecap="round" stroke-linejoin="round" stroke-miterlimit="13.3333"/></g><g transform="translate(357.079 394.368)"><path d="M0,0c-.2-6.9,12.1-12.9,12.1-12.9s12.7,5.2,12.9,12.1-5.2,12.7-12.1,12.9C6,12.3,0.2,6.9,0,0Z" fill="#dddaeb" stroke="#000" stroke-width="5" stroke-linecap="round" stroke-linejoin="round" stroke-miterlimit="13.3333"/></g><g transform="translate(136.769 157.625)"><path d="M0,0c0,6.9-5.6,12.5-12.5,12.5s-12.5-5.6-12.5-12.5s5.6-12.5,12.5-12.5s12.5,5.6,12.5,12.5Z" fill="#dddaeb" stroke="#000" stroke-width="5" stroke-linecap="round" stroke-linejoin="round" stroke-miterlimit="13.3333"/></g><g transform="translate(258.508 106.046)"><path d="M0,0c0,6.9-5.6,12.5-12.5,12.5s-12.5-5.6-12.5-12.5s5.6-12.5,12.5-12.5s12.5,5.6,12.5,12.5Z" fill="#dddaeb" stroke="#000" stroke-width="5" stroke-linecap="round" stroke-linejoin="round" stroke-miterlimit="13.3333"/></g><g transform="translate(89.0742 275.476)"><path d="M0,0c0-6.9-5.6-12.5-12.5-12.5s-12.5,5.6-12.5,12.5s5.6,12.5,12.5,12.5s12.5-5.6,12.5-12.5Z" fill="#dddaeb" stroke="#000" stroke-width="5" stroke-linecap="round" stroke-linejoin="round" stroke-miterlimit="13.3333"/></g><g transform="translate(356.241 157.625)"><path d="M0,0C0,6.9,5.6,12.5,12.5,12.5s12.5-5.6,12.5-12.5-5.6-12.5-12.5-12.5-12.5,5.6-12.5,12.5Z" fill="#dddaeb" stroke="#000" stroke-width="5" stroke-linecap="round" stroke-linejoin="round" stroke-miterlimit="13.3333"/></g><g transform="translate(403.935 275.476)"><path d="M0,0c0-6.9,5.6-12.5,12.5-12.5s12.5,5.6,12.5,12.5-5.6,12.5-12.5,12.5C5.6,12.5,0,6.9,0,0Z" fill="#dddaeb" stroke="#000" stroke-width="5" stroke-linecap="round" stroke-linejoin="round" stroke-miterlimit="13.3333"/></g><g transform="translate(190.065 75.6768)"><path d="M0,0c17.9-5,36.8-7.7,56.4-7.6c19.2,0,37.8,2.5,55.5,7.4" fill="none" stroke="#000" stroke-width="5" stroke-linecap="round" stroke-linejoin="round" stroke-miterlimit="13.3333"/></g></g><g transform="translate(250.5 32.5)"><path d="M0,0h216.4v-25h-441v25L-35,0" fill="none" stroke="#000" stroke-width="5" stroke-linecap="round" stroke-linejoin="round" stroke-miterlimit="13.3333"/></g><g transform="translate(120.994 32.5)"><path d="M0,0h-95.1v16.3c0,4.8,3.9,8.7,8.7,8.7h77.7C-3.9,25,0,21.1,0,16.3L0,0Z" fill="none" stroke="#000" stroke-width="5" stroke-linecap="round" stroke-linejoin="round" stroke-miterlimit="13.3333"/></g><g transform="translate(371.865 32.5)"><path d="M0,0h95.1v16.3c0,4.8-3.9,8.7-8.7,8.7h-77.7C3.9,25,0,21.1,0,16.3L0,0Z" fill="none" stroke="#000" stroke-width="5" stroke-linecap="round" stroke-linejoin="round" stroke-miterlimit="13.3333"/></g><g transform="translate(106.883 57.5)"><path d="M0,0l.7,1.6C8,17.6,20.6,30.4,36.3,37.8" fill="none" stroke="#000" stroke-width="5" stroke-linecap="round" stroke-linejoin="round" stroke-miterlimit="13.3333"/></g><g transform="translate(74.5195 158.736)"><path d="M0,0l-34.5-101.2" fill="none" stroke="#000" stroke-width="5" stroke-linecap="round" stroke-linejoin="round" stroke-miterlimit="13.3333"/></g><g transform="translate(385.977 57.5)"><path d="M0,0l-.7,1.6c-7.3,16-19.9,28.8-35.6,36.2" fill="none" stroke="#000" stroke-width="5" stroke-linecap="round" stroke-linejoin="round" stroke-miterlimit="13.3333"/></g><g transform="translate(439.966 95.2686)"><path d="M0,0c3.87-11.34,12.9-37.8,12.9-37.8" fill="none" stroke="#000" stroke-width="5" stroke-linecap="round" stroke-linejoin="round" stroke-miterlimit="13.3333"/></g><g transform="translate(418.34 158.736)"><path d="M0,0l10.6-31.1" fill="none" stroke="#000" stroke-width="5" stroke-linecap="round" stroke-linejoin="round" stroke-miterlimit="13.3333"/></g></g><clipPath id="eKGOZxr0Y1P96"><use width="682.700012" height="682.700012" xlink:href="#eKGOZxr0Y1P2" transform="translate(-85.3-85.3)"/></clipPath></g></g><g id="eKGOZxr0Y1P98" transform="translate(0 1.079904)"><ellipse rx="98.2581" ry="98.2581" transform="translate(248.886847 270.720673)" fill="#c7e7ff" stroke-width="0"/><g transform="translate(223.559 244.919)"><path d="M46,28.2c0-13-10.6-23.6-23.6-23.6s-23.6,10.6-23.6,23.6s10.6,23.6,23.6,23.6C35.5,51.8,46,41.3,46,28.2Z" fill="none" stroke="#000" stroke-width="5" stroke-linecap="round" stroke-linejoin="round" stroke-miterlimit="13.3333"/></g><g transform="translate(195.534 272.945)"><path d="M50.5,23.8c0,0-22.1,36,0,69.8" fill="none" stroke="#000" stroke-width="5" stroke-linecap="round" stroke-linejoin="round" stroke-miterlimit="13.3333"/></g><g transform="translate(215.351 264.737)"><path d="M47.3,25.1c0,0,9.8,41.1,49.4,49.4" fill="none" stroke="#000" stroke-width="5" stroke-linecap="round" stroke-linejoin="round" stroke-miterlimit="13.3333"/></g><g transform="translate(223.559 244.919)"><path d="M46,28.2c0,0,36,22.1,69.8,0" fill="none" stroke="#000" stroke-width="5" stroke-linecap="round" stroke-linejoin="round" stroke-miterlimit="13.3333"/></g><g transform="translate(215.351 225.102)"><path d="M47.3,31.4c0,0,41.1-9.8,49.4-49.4" fill="none" stroke="#000" stroke-width="5" stroke-linecap="round" stroke-linejoin="round" stroke-miterlimit="13.3333"/></g><g transform="translate(195.534 216.893)"><path d="M50.5,32.7c0,0,22.1-36,0-69.8" fill="none" stroke="#000" stroke-width="5" stroke-linecap="round" stroke-linejoin="round" stroke-miterlimit="13.3333"/></g><g transform="translate(175.716 225.102)"><path d="M53.6,31.4c0,0-9.8-41.1-49.4-49.4" fill="none" stroke="#000" stroke-width="5" stroke-linecap="round" stroke-linejoin="round" stroke-miterlimit="13.3333"/></g><g transform="translate(167.508 244.919)"><path d="M54.9,28.2c0,0-36-22.1-69.8,0" fill="none" stroke="#000" stroke-width="5" stroke-linecap="round" stroke-linejoin="round" stroke-miterlimit="13.3333"/></g><g transform="translate(175.716 264.737)"><path d="M53.6,25.1c0,0-41.1,9.8-49.4,49.4" fill="none" stroke="#000" stroke-width="5" stroke-linecap="round" stroke-linejoin="round" stroke-miterlimit="13.3333"/></g><g transform="translate(135.37 338.187)"><path d="M60,13.5C34.2,-3.2,17.2,-32.1,17.2,-65c0-51.6,41.8-93.4,93.4-93.4s93.4,41.8,93.4,93.4-41.8,93.4-93.4,93.4c-9.8,0-19.3-1.5-28.2-4.3" fill="none" stroke="#000" stroke-width="5" stroke-linecap="round" stroke-linejoin="round" stroke-miterlimit="13.3333"/></g></g></g><g transform="matrix(1 0 0-1-1231.237595 832.523695)"><rect width="259.950883" height="72.006238" rx="0" ry="0" transform="matrix(.676536 0 0 0.90948 1138.597201 225.016983)" fill="none" stroke="#000" stroke-width="5"/><path d="M1262.074874,314.792036q-.229554-26.300875-.229554-52.07158c0-25.770706,9.242819-41.229226,30.793555-45.746191q21.550736-4.516965,384.160217-4.516966v64.987971q-270.09077,3.190039-303.056654,3.190039c-32.965884,0-30.150437.258792-30.150437,34.774131l-81.517127-.617404Z" transform="translate(-1.546975 9.300682)" fill="#d10028" stroke="#000" stroke-width="5"/></g></g><g transform="matrix(.7 0 0 0.7 1291.123951 358.262032)" opacity="0"><path d="M346.329,0h-180.658c-10.059,0-19.705,3.995-26.817,11.109L11.109,138.853C3.995,145.965,0,155.612,0,165.671v180.659c0,10.059,3.995,19.705,11.109,26.817L138.854,500.892c7.112,7.112,16.759,11.109,26.817,11.109h180.659c10.059,0,19.705-3.995,26.817-11.109L500.892,373.147c7.112-7.112,11.109-16.76,11.109-26.817v-180.659c0-10.059-3.995-19.705-11.109-26.817L373.147,11.109C366.035,3.995,356.388,0,346.329,0Z" fill="#ff5050"/><path d="M94.815,379.259c0-171.838,106.362-318.739,256.799-378.737-1.75-.247-3.497-.522-5.285-.522h-180.658c-10.059,0-19.705,3.995-26.817,11.109L11.109,138.853C3.996,145.965,0,155.611,0,165.671v180.659c0,10.059,3.996,19.705,11.109,26.817l93.103,93.103c-6.098-28.041-9.397-57.124-9.397-86.991Z" fill="#c84146"/><g><path d="M246.519,187.259h-75.852c-6.546,0-11.852,5.306-11.852,11.852s5.306,11.852,11.852,11.852h26.074v101.926c0,6.546,5.306,11.852,11.852,11.852s11.852-5.306,11.852-11.852v-101.926h26.074c6.546,0,11.852-5.306,11.852-11.852s-5.307-11.852-11.852-11.852Z" fill="#fff"/><path d="M312.889,187.259c-27.444,0-49.778,22.329-49.778,49.778v37.926c0,27.449,22.334,49.778,49.778,49.778s49.778-22.329,49.778-49.778v-37.926c0-27.449-22.334-49.778-49.778-49.778Zm26.074,87.704c0,14.38-11.694,26.074-26.074,26.074s-26.074-11.694-26.074-26.074v-37.926c0-14.38,11.694-26.074,26.074-26.074s26.074,11.694,26.074,26.074v37.926Z" fill="#fff"/><path d="M421.926,187.259h-33.185c-6.546,0-11.852,5.306-11.852,11.852v113.778c0,6.546,5.306,11.852,11.852,11.852s11.852-5.306,11.852-11.852v-35.556h21.333c24.833,0,45.037-20.204,45.037-45.037s-20.204-45.037-45.037-45.037Zm0,66.371h-21.333v-42.667h21.333c11.759,0,21.333,9.569,21.333,21.333s-9.574,21.334-21.333,21.334Z" fill="#fff"/><path d="M109.037,210.963c12.574,0,21.333,6.871,21.333,13.037c0,6.546,5.306,11.852,11.852,11.852s11.852-5.306,11.852-11.852c0-20.602-19.787-36.741-45.037-36.741s-45.037,16.139-45.037,36.741c0,28.495,25.695,37.676,41.047,43.162c21.666,7.736,25.324,12.68,25.324,20.838c0,6.167-8.76,13.037-21.333,13.037s-21.334-6.87-21.334-13.037c0-6.546-5.306-11.852-11.852-11.852s-11.852,5.306-11.852,11.852c0,20.602,19.787,36.741,45.037,36.741s45.037-16.139,45.037-36.741c0-28.495-25.695-37.676-41.047-43.162-21.666-7.736-25.324-12.68-25.324-20.838.001-6.167,8.76-13.037,21.334-13.037Z" fill="#fff"/></g></g></g><g transform="matrix(.65 0 0 0.65-102.520021 351.862856)"><g id="eKGOZxr0Y1P132" transform="matrix(.246342 0 0 0.246342 1033.491273 772.091572)" opacity="0"><path d="M373.333,117.333h-234.666C62.083,117.333,0,179.417,0,256s62.083,138.667,138.667,138.667h234.667C449.917,394.667,512,332.583,512,256s-62.083-138.667-138.667-138.667Z" fill="#cfd8dc"/><circle r="96" transform="translate(138.667 256)" fill="#f44336"/><g><path d="M288,309.333c-17.673,0-32-14.327-32-32v-42.667c0-17.673,14.327-32,32-32s32,14.327,32,32v42.667c0,17.673-14.327,32-32,32ZM288,224c-5.891,0-10.667,4.776-10.667,10.667v42.667c0,5.891,4.776,10.667,10.667,10.667s10.667-4.776,10.667-10.667v-42.667c0-5.891-4.776-10.667-10.667-10.667Z" fill="#455a64"/><path d="M352,309.333c-5.891,0-10.667-4.776-10.667-10.667v-85.333c0-5.891,4.776-10.667,10.667-10.667h32c5.891,0,10.667,4.776,10.667,10.667s-4.776,10.667-10.667,10.667h-21.333v74.667c0,5.891-4.776,10.666-10.667,10.666Z" fill="#455a64"/><path d="M373.333,266.667h-21.333c-5.891,0-10.667-4.776-10.667-10.667s4.776-10.667,10.667-10.667h21.333c5.891,0,10.667,4.776,10.667,10.667s-4.776,10.667-10.667,10.667Z" fill="#455a64"/><path d="M416,309.333c-5.891,0-10.667-4.776-10.667-10.667v-85.333c0-5.891,4.776-10.667,10.667-10.667h32c5.891,0,10.667,4.776,10.667,10.667s-4.776,10.667-10.667,10.667h-21.333v74.667c0,5.891-4.776,10.666-10.667,10.666Z" fill="#455a64"/><path d="M437.333,266.667h-21.333c-5.891,0-10.667-4.776-10.667-10.667s4.776-10.667,10.667-10.667h21.333c5.891,0,10.667,4.776,10.667,10.667s-4.776,10.667-10.667,10.667Z" fill="#455a64"/></g><path d="M138.667,352c-53.019,0-96-42.981-96-96s42.981-96,96-96s96,42.981,96,96-42.981,96-96,96v0Zm0-170.667C97.429,181.333,64,214.763,64,256s33.429,74.667,74.667,74.667s74.667-33.429,74.667-74.667-33.43-74.667-74.667-74.667Z"/><path d="M373.333,394.667h-234.666C62.083,394.667,0,332.583,0,256s62.083-138.667,138.667-138.667h234.667C449.917,117.333,512,179.417,512,256s-62.083,138.667-138.667,138.667Zm-234.666-256C73.866,138.667,21.334,191.199,21.334,256s52.532,117.333,117.333,117.333h234.667c64.801,0,117.333-52.532,117.333-117.333s-52.532-117.333-117.333-117.333h-234.667Z"/><path d="M288,309.333c-17.673,0-32-14.327-32-32v-42.667c0-17.673,14.327-32,32-32s32,14.327,32,32v42.667c0,17.673-14.327,32-32,32ZM288,224c-5.891,0-10.667,4.776-10.667,10.667v42.667c0,5.891,4.776,10.667,10.667,10.667s10.667-4.776,10.667-10.667v-42.667c0-5.891-4.776-10.667-10.667-10.667Z"/><path d="M352,309.333c-5.891,0-10.667-4.776-10.667-10.667v-85.333c0-5.891,4.776-10.667,10.667-10.667h32c5.891,0,10.667,4.776,10.667,10.667s-4.776,10.667-10.667,10.667h-21.333v74.667c0,5.891-4.776,10.666-10.667,10.666Z"/><path d="M373.333,266.667h-21.333c-5.891,0-10.667-4.776-10.667-10.667s4.776-10.667,10.667-10.667h21.333c5.891,0,10.667,4.776,10.667,10.667s-4.776,10.667-10.667,10.667Z"/><path d="M416,309.333c-5.891,0-10.667-4.776-10.667-10.667v-85.333c0-5.891,4.776-10.667,10.667-10.667h32c5.891,0,10.667,4.776,10.667,10.667s-4.776,10.667-10.667,10.667h-21.333v74.667c0,5.891-4.776,10.666-10.667,10.666Z"/><path d="M437.333,266.667h-21.333c-5.891,0-10.667-4.776-10.667-10.667s4.776-10.667,10.667-10.667h21.333c5.891,0,10.667,4.776,10.667,10.667s-4.776,10.667-10.667,10.667Z"/></g><g id="eKGOZxr0Y1P148" transform="translate(889.369921 811.493091)" opacity="0"><path d="M47.925,5.022L36.991,0.173c-1.007-.449-2.191.008-2.639,1.018s.008,2.191,1.018,2.639l6.141,2.724C23.888,13.111,10.265,27.986,5.353,46.448c-.284,1.067.351,2.163,1.418,2.447.172.046.345.068.516.068.884,0,1.693-.592,1.931-1.486c4.631-17.404,17.565-31.384,34.258-37.382l-3.505,7.852c-1.046,2.344,2.595,3.998,3.652,1.631L48.941,7.666c.427-.956-.036-2.211-1.016-2.644Z" stroke="#050505" stroke-width="2" stroke-linecap="round" stroke-linejoin="round"/><path d="M121.815,34.116c-1.012-.442-2.191.019-2.634,1.031l-2.686,6.142C109.976,23.564,95.212,9.863,76.891,4.919c-1.061-.285-2.164.343-2.452,1.409s.344,2.165,1.41,2.452c17.282,4.664,31.165,17.698,37.118,34.52l-7.771-3.519c-1.007-.454-2.191-.009-2.647.997-.456,1.007-.009,2.191.997,2.647l11.828,5.355c1.001.451,2.219-.017,2.658-1.021l4.815-11.012c.442-1.01-.02-2.189-1.032-2.631Z" stroke="#050505" stroke-width="2" stroke-linecap="round" stroke-linejoin="round"/><path d="M116.718,74.476c-1.066-.285-2.163.351-2.447,1.419-4.648,17.496-17.685,31.535-34.501,37.487-.046.016-.091-.029-.074-.075l2.663-7.203c.355-.96.039-2.108-.861-2.596-1.096-.593-2.42-.066-2.837,1.061l-4.149,11.223c-.394,1.064.156,2.255,1.222,2.645l12.134,4.442c2.427.887,3.793-2.87,1.375-3.756l-6.621-2.424c-.049-.018-.049-.085-.001-.104c17.316-6.681,30.667-21.428,35.514-39.673.286-1.067-.349-2.163-1.417-2.446-1.066-.285,1.068.283,0,0Z" stroke="#000" stroke-width="2" stroke-linecap="round" stroke-linejoin="round"/><path d="M48.783,117.071c.285-1.066-.351-2.163-1.419-2.447-17.496-4.648-31.535-17.685-37.487-34.501-.016-.046.029-.091.075-.074l7.203,2.663c.96.355,2.108.039,2.596-.861.593-1.096.066-2.42-1.061-2.837L7.467,74.865c-1.064-.394-2.255.156-2.645,1.222L0.38,88.221c-.887,2.427,2.87,3.793,3.756,1.375L6.56,82.975c.018-.049.085-.049.104-.001c6.681,17.316,21.428,30.667,39.673,35.514c1.067.286,2.163-.349,2.446-1.417.285-1.066-.283,1.068,0,0Z" stroke="#000" stroke-width="2" stroke-linecap="round" stroke-linejoin="round"/></g><g id="eKGOZxr0Y1P153" transform="matrix(.25 0 0 0.25 1035.197235 771.662368)" opacity="0"><path d="M373.333,117.333h-234.666C62.083,117.333,0,179.417,0,256s62.083,138.667,138.667,138.667h234.667C449.917,394.667,512,332.583,512,256s-62.083-138.667-138.667-138.667Z" fill="#cfd8dc"/><circle r="96" transform="translate(373.333 256)" fill="#4caf50"/><g><path d="M117.333,309.333c-17.673,0-32-14.327-32-32v-42.667c0-17.673,14.327-32,32-32s32,14.327,32,32v42.667c0,17.673-14.327,32-32,32Zm0-85.333c-5.891,0-10.667,4.776-10.667,10.667v42.667c0,5.891,4.776,10.667,10.667,10.667s10.667-4.777,10.667-10.668v-42.667c0-5.89-4.776-10.666-10.667-10.666Z" fill="#455a64"/><path d="M224,309.333c-4.037,0-7.728-2.279-9.536-5.888L192,258.517v40.149c0,5.891-4.776,10.667-10.667,10.667s-10.667-4.776-10.667-10.667v-85.333c.006-4.941,3.405-9.232,8.213-10.368c4.819-1.186,9.812,1.151,11.989,5.611l22.464,44.907v-40.149c0-5.891,4.776-10.667,10.667-10.667s10.667,4.776,10.667,10.667v85.333c-.006,4.941-3.405,9.232-8.213,10.368-.802.202-1.626.302-2.453.298Z" fill="#455a64"/></g><path d="M373.333,352c-53.019,0-96-42.981-96-96s42.981-96,96-96s96,42.981,96,96-42.98,96-96,96v0Zm0-170.667c-41.237,0-74.667,33.429-74.667,74.667s33.429,74.667,74.667,74.667s74.667-33.43,74.667-74.667-33.429-74.667-74.667-74.667Z"/><path d="M373.333,394.667h-234.666C62.083,394.667,0,332.583,0,256s62.083-138.667,138.667-138.667h234.667C449.917,117.333,512,179.417,512,256s-62.083,138.667-138.667,138.667Zm-234.666-256C73.866,138.667,21.334,191.199,21.334,256s52.532,117.333,117.333,117.333h234.667c64.801,0,117.333-52.532,117.333-117.333s-52.532-117.333-117.333-117.333h-234.667Z"/><path d="M117.333,309.333c-17.673,0-32-14.327-32-32v-42.667c0-17.673,14.327-32,32-32s32,14.327,32,32v42.667c0,17.673-14.327,32-32,32Zm0-85.333c-5.891,0-10.667,4.776-10.667,10.667v42.667c0,5.891,4.776,10.667,10.667,10.667s10.667-4.777,10.667-10.668v-42.667c0-5.89-4.776-10.666-10.667-10.666Z"/><path d="M224,309.333c-4.037,0-7.728-2.279-9.536-5.888L192,258.517v40.149c0,5.891-4.776,10.667-10.667,10.667s-10.667-4.776-10.667-10.667v-85.333c0-5.891,4.776-10.666,10.667-10.666c4.036,0,7.727,2.279,9.535,5.887l22.464,44.928v-40.149c0-5.891,4.776-10.667,10.667-10.667s10.667,4.776,10.667,10.667v85.333c-.006,4.941-3.405,9.232-8.213,10.368-.802.201-1.626.301-2.453.299Z"/></g></g>
</svg>
