<svg id="eUZAyWHV1GD1" xmlns="http://www.w3.org/2000/svg" xmlns:xlink="http://www.w3.org/1999/xlink" viewBox="0 0 1920 1080" shape-rendering="geometricPrecision" text-rendering="geometricPrecision"><g id="eUZAyWHV1GD2" transform="matrix(2.2 0 0 2.2 517.342 556.9865)" opacity="0"><path d="M51.11,8.24C47.33,7.84,43.6,7,40.01,5.73c-3.29-1.16-6.45-2.68-9.42-4.51-1.58-.97-3.57-.97-5.15,0-2.97,1.83-6.13,3.35-9.42,4.51-3.59,1.26-7.31,2.11-11.1,2.51-2.52.26-4.43,2.38-4.43,4.91v14.66c0,11.02,5.98,21.17,15.61,26.52l9.51,5.28c1.49.84,3.31.84,4.8,0l9.51-5.29c9.63-5.35,15.6-15.5,15.6-26.52v-14.66c0-2.53-1.91-4.65-4.43-4.91l.02.01Z" fill="#727993" stroke="#010101" stroke-miterlimit="10"/></g>
</svg>
