<svg id="elcos-sinotticostatus" xmlns="http://www.w3.org/2000/svg" xmlns:xlink="http://www.w3.org/1999/xlink" viewBox="0 0 1920 1080" shape-rendering="geometricPrecision" text-rendering="geometricPrecision"><g id="elcos-sinotticostatus-u-accetto" transform="matrix(.246342 0 0 0.246342 53.047369 489.296293)"><path id="elcos-sinotticostatus-s-path1" d="M256,0C114.8,0,0,114.8,0,256s114.8,256,256,256s256-114.8,256-256-114.8-256-256-256Z" clip-rule="evenodd" fill="#4bae4f" fill-rule="evenodd"/><path id="elcos-sinotticostatus-s-path2" d="M206.7,373.1c-32.7-32.7-65.2-65.7-98-98.4-3.6-3.6-3.6-9.6,0-13.2l37.7-37.7c3.6-3.6,9.6-3.6,13.2,0l53.9,53.9L352.1,139c3.7-3.6,9.6-3.6,13.3,0l37.8,37.8c3.7,3.7,3.7,9.6,0,13.2L219.9,373.1c-3.6,3.7-9.5,3.7-13.2,0Z" fill="#fff"/></g><g id="elcos-sinotticostatus-u-anom-yes" transform="matrix(.25 0 0 0.25 50.577817 487.319608)" opacity="0"><g id="elcos-sinotticostatus-u-exclamation_"><path id="elcos-sinotticostatus-s-path3" d="M256,0C114.6,0,0,114.6,0,256s114.6,256,256,256s256-114.6,256-256-114.6-256-256-256Zm44.2,384.5c0,24.4-19.8,44.2-44.2,44.2s-44.2-19.8-44.2-44.2s19.8-44.2,44.2-44.2s44.2,19.8,44.2,44.2Zm0-107.8c-.9,23.7-20.4,42.5-44.2,42.5s-43.3-18.8-44.2-42.5L206,129.4c-1-24.4,18-45,42.5-46h1.7h11.7c24.4,0,44.3,19.8,44.3,44.3v1.7Z" fill="#ff2147"/></g></g>
</svg>
