<svg cache-id="1766254b35524ff2aafb9067161e2008" id="elcos-sinotticoreq" xmlns="http://www.w3.org/2000/svg" xmlns:xlink="http://www.w3.org/1999/xlink" viewBox="0 0 1920 1080" shape-rendering="geometricPrecision" text-rendering="geometricPrecision"><g id="elcos-sinotticoreq-u-touch" transform="matrix(4 0 0 4 1693.800838 765.960967)"><path id="elcos-sinotticoreq-s-path1" d="M41,27.17v7.83c.002756,3.390016-1.428493,6.623039-3.94,8.9C32.94,47.65,28.67,47,23,47c-6.627417,0-12-5.372583-12-12v-8c0-3.47,6-2.23,6,2v-15c-.001173-.824163.336765-1.612512.934472-2.179956s1.402537-.864,2.225528-.820044c1.632318.146752,2.872848,1.531428,2.84,3.17v7.83c0-1.656854,1.343146-3,3-3s3,1.343146,3,3v2c0-1.656854,1.343146-3,3-3s3,1.343146,3,3v3c-.001173-.824163.336765-1.612512.934472-2.179956s1.402537-.864,2.225528-.820044c1.632318.146752,2.872848,1.531428,2.84,3.17Z" fill="#f6ccaf"/><path id="elcos-sinotticoreq-s-path2" d="M41,27.17v7.83c.001501,4.020807-2.010828,7.775153-5.36,10L27,45c-5.522847,0-10-4.477153-10-10v-21c-.014703-.898704.374324-1.756651,1.060034-2.33776s1.595845-.824149,2.479966-.66224c1.478538.322985,2.514207,1.657566,2.46,3.17v7.83c-.001173-.824163.336765-1.612512.934472-2.179956s1.402537-.864,2.225528-.820044c1.62841.146498,2.867538,1.525246,2.84,3.16v1.84c-.001173-.824163.336765-1.612512.934472-2.179956s1.402537-.864,2.225528-.820044c1.62841.146498,2.867538,1.525246,2.84,3.16v2.84c-.014703-.898704.374324-1.756651,1.060034-2.33776s1.595845-.824149,2.479966-.66224c1.478538.322985,2.514207,1.657566,2.46,3.17Z" fill="#ffdec7"/><path id="elcos-sinotticoreq-s-path3" d="M17,29v6c0,.552285-.447715,1-1,1s-1-.447715-1-1v-9.47c1.239431.715584,2.00211,2.038831,2,3.47Z" fill="#edb996"/><g id="elcos-sinotticoreq-s-g1"><g id="elcos-sinotticoreq-u-onde-dito" opacity="0"><path id="elcos-sinotticoreq-s-path4" d="M27.92,14.15c.421825-2.960886-.843138-5.909796-3.279279-7.64473s-5.636571-1.966122-8.296769-.599327-4.335852,4.103285-4.343952,7.094057c0,.95.05,2,1.07,2c.293376.003322.57341-.12236.765929-.343757s.278099-.516171.234071-.806243c-.331111-2.323715.723163-4.627132,2.698276-5.895288s4.508336-1.268155,6.483448,0s3.029387,3.571573,2.698276,5.895288c-.034102.518101.333988.976113.847292,1.054281s1.001043-.249514,1.122708-.754281Z" fill="#231f20"/><path id="elcos-sinotticoreq-s-path5" d="M20,2c3.402041.000218,6.612545,1.574566,8.695775,4.264182s2.804735,6.191806,1.954225,9.485818c-.138071.535716.184284,1.081929.72,1.22s1.081929-.184284,1.22-.72c1.353825-5.262124-.707786-10.81116-5.168985-13.912852s-10.380831-3.101691-14.84203,0-6.52281,8.650728-5.168985,13.912852c.138071.535716.684284.858071,1.22.72s.858071-.684284.72-1.22c-.85051-3.294012-.129005-6.796202,1.954225-9.485818s5.293734-4.263964,8.695775-4.264182Z" fill="#231f20"/></g><path id="elcos-sinotticoreq-s-path6" d="M36,23.57c-.155676-1.383403-1.019422-2.586363-2.280481-3.176081s-2.738026-.481364-3.899519.286081c-.395706-1.13331-1.279469-2.028992-2.407376-2.439845s-2.380703-.293436-3.412624.319845v-4.39c.068698-1.628084-.857098-3.135093-2.340419-3.80973s-3.227613-.382022-4.409581.73973C15.59,12.67,16,13.43,16,25c-2.7-2-6-.8-6,2v8c0,7.179702,5.820298,13,13,13h6c7.179702,0,13-5.820298,13-13v-7.83c.049897-1.453245-.692779-2.819102-1.939661-3.567231s-2.801545-.760676-4.060339-.032769ZM40,35c0,6.075132-4.924868,11-11,11h-6c-6.075132,0-11-4.924868-11-11v-8c0-1.4,2-1.23,3.09-.16s.91,2.02.91,8.16c0,.552285.447715,1,1,1s1-.447715,1-1v-21c-.000833-.550054.224913-1.076169.624127-1.454571s.936651-.575683,1.485873-.545429c1.097245.124073,1.917729,1.06611,1.89,2.17L22,29c0,.552285.447715,1,1,1s1-.447715,1-1v-7c0-1.104569.895431-2,2-2s2,.895431,2,2v7c0,.552285.447715,1,1,1s1-.447715,1-1v-5c0-1.104569.895431-2,2-2s2,.895431,2,2v5c0,.552285.447715,1,1,1s1-.447715,1-1c0-2.17-.13-2.74.62-3.45.601257-.579671,1.49941-.724698,2.252554-.363723s1.202687,1.151937,1.127446,1.983723Z" fill="#231f20"/></g></g><g id="elcos-sinotticoreq-u-power-on" transform="matrix(.27021 0 0 0.27021 1705.429656 600.588876)" opacity="0"><circle id="elcos-sinotticoreq-s-circle1" r="256" transform="translate(256 256)" fill="#f44336"/><path id="elcos-sinotticoreq-s-path7" d="M275.631,229.351v-123.727c-.076984-10.785298-8.841927-19.487901-19.6275-19.487901s-19.550516,8.702603-19.6275,19.487901v123.727c.076984,10.785298,8.841927,19.487901,19.6275,19.487901s19.550516-8.702603,19.6275-19.487901ZM426,256c-.0073,82.349117-59.035725,152.851889-140.101223,167.335052s-160.854992-31.218396-189.376654-108.470528s2.42686-163.838417,73.454877-205.508524c6.139852-3.602312,13.738123-3.64296,19.916165-.106542s9.990817,10.108944,9.993835,17.227542c0,7.71-3.014,13.922-9.753,17.907-39.452298,23.349594-63.669051,65.77186-63.716,111.616c0,71.455,58.136,129.586,129.582,129.586s129.592-58.131,129.592-129.586c-.048959-45.843606-24.265184-88.264947-63.716-111.616-6.110703-3.502866-9.844411-10.041064-9.756-17.084c0-7.807,3.114-14.111,9.994-18.055c6.153955-3.627669,13.802608-3.58427,19.915.113C394.006864,139.925304,425.945061,195.700287,426,256Z" fill="#fff" fill-rule="evenodd"/></g><g id="elcos-sinotticoreq-u-galleggiante" transform="matrix(2.996606 0 0 2.996606 1564.3638 838.857429)" opacity="0"><path id="elcos-sinotticoreq-s-path8" d="M62.31,14.26c0,0-6.43-5.4-11.62-6.01-1.6-.19-5.51-.17-5.51-.17v-5.8c0,0,4.83-.12,6.42.08c7.22.89,14.47,7.34,14.47,7.34l-3.76,4.56Z" fill="#dddaeb" stroke="#1d1d1b" stroke-width="3" stroke-linecap="round" stroke-linejoin="round" stroke-miterlimit="10"/><rect id="elcos-sinotticoreq-s-rect1" width="44.99" height="7.77" rx="0" ry="0" transform="translate(.5 0.5)" fill="#d2cee7" stroke="#1d1d1b" stroke-width="3" stroke-linecap="round" stroke-linejoin="round" stroke-miterlimit="10"/><rect id="elcos-sinotticoreq-s-rect2" width="77.82" height="3.51" rx="0" ry="0" transform="translate(24.62 23.95)" fill="#1d1d1b" stroke-linecap="round" stroke-linejoin="round"/><circle id="elcos-sinotticoreq-s-circle2" r="11.57" transform="translate(70.9 19.92)" fill="#dddaeb" stroke="#1d1d1b" stroke-width="3" stroke-linecap="round" stroke-linejoin="round" stroke-miterlimit="10"/></g><g id="elcos-sinotticoreq-u-manometer" transform="matrix(.325926 0 0 0.325926 1718.103525 822.356556)" opacity="0"><path id="elcos-sinotticoreq-s-path9" d="M368,184C368,82.542969,285.464844,0,184,0s-184,82.542969-184,184c0,90.535156,65.753906,165.960938,152,181.160156L152,384h-8c-4.425781,0-8,3.585938-8,8v24h-8c-4.425781,0-8,3.585938-8,8v32c0,4.414062,3.574219,8,8,8h8v24c0,4.414062,3.574219,8,8,8h80c4.425781,0,8-3.585938,8-8v-24h8c4.425781,0,8-3.585938,8-8v-32c0-4.414062-3.574219-8-8-8h-8v-24c0-4.414062-3.574219-8-8-8h-8v-18.839844C302.246094,349.960938,368,274.535156,368,184ZM16,184C16,91.359375,91.367188,16,184,16s168,75.359375,168,168-75.367188,168-168,168-168-75.359375-168-168ZM216,480h-64v-16h64Zm16-32h-96v-16h96Zm-80-32v-16h64v16Zm48-32h-32v-16.734375C173.28125,367.71875,178.609375,368,184,368s10.71875-.28125,16-.734375Zm0,0"/><path id="elcos-sinotticoreq-s-path10" d="M336,184c0-83.816406-68.183594-152-152-152s-152,68.183594-152,152s68.183594,152,152,152s152-68.183594,152-152ZM93.800781,285.511719L109.65625,269.65625l-11.3125-11.3125-15.855469,15.855469C74,264.65625,66.863281,253.945312,61.304688,242.296875l22.261718-11.136719-7.160156-14.3125-21.183594,10.59375C51.441406,216.199219,49.128906,204.320312,48.40625,192L72,192v-16h-23.59375c.722656-12.320312,3.035156-24.199219,6.832031-35.433594l21.1875,10.59375l7.160157-14.3125-22.265626-11.136718C66.878906,114.0625,74.015625,103.34375,82.503906,93.808594l15.855469,15.855468l11.3125-11.3125L93.816406,82.496094c9.542969-8.488282,20.253906-15.625,31.902344-21.183594l11.136719,22.261719l14.3125-7.160157-10.59375-21.183593C151.800781,51.441406,163.679688,49.128906,176,48.40625L176,72h16v-23.59375c12.320312.722656,24.199219,3.035156,35.433594,6.832031l-10.59375,21.1875l14.3125,7.160157l11.136718-22.265626c11.648438,5.558594,22.367188,12.695313,31.902344,21.183594L258.335938,98.359375l11.3125,11.3125l15.855468-15.855469c8.488282,9.542969,15.625,20.253906,21.183594,31.902344l-22.261719,11.136719l7.160157,14.3125l21.183593-10.59375c3.796875,11.234375,6.109375,23.113281,6.832031,35.433593h-23.601562v16h23.59375c-.722656,12.320313-3.035156,24.199219-6.832031,35.433594l-21.1875-10.59375-7.160157,14.3125l22.265626,11.136719c-5.558594,11.648437-12.695313,22.367187-21.183594,31.902344L269.640625,258.34375l-11.3125,11.3125l15.855469,15.855469C250.160156,306.886719,218.625,320,184,320s-66.160156-13.113281-90.199219-34.488281Zm0,0"/><path id="elcos-sinotticoreq-s-path11" d="M243.761719,113.214844L181.265625,152.28125C164.910156,153.695312,152,167.296875,152,184c0,17.648438,14.351562,32,32,32c16.710938,0,30.3125-12.921875,31.726562-29.273438l39.058594-62.488281c1.976563-3.160156,1.503906-7.261719-1.128906-9.894531-2.640625-2.632812-6.734375-3.097656-9.894531-1.128906ZM184,200c-8.824219,0-16-7.175781-16-16s7.175781-16,16-16s16,7.175781,16,16-7.175781,16-16,16Zm26.078125-34.425781c-2.101563-2.964844-4.6875-5.550781-7.652344-7.652344l20.421875-12.769531Zm0,0"/><path id="elcos-sinotticoreq-s-path12" d="M232,232h-96c-4.425781,0-8,3.585938-8,8v32c0,4.414062,3.574219,8,8,8h96c4.425781,0,8-3.585938,8-8v-32c0-4.414062-3.574219-8-8-8Zm-8,32h-80v-16h80Zm0,0"/></g><g id="elcos-sinotticoreq-u-in" opacity="0"><g id="elcos-sinotticoreq-u-031-log-in" transform="matrix(.238096 0 0 0.238096 1705.061219 851.109481)"><g id="elcos-sinotticoreq-s-g2"><g id="elcos-sinotticoreq-s-g3"><path id="elcos-sinotticoreq-s-path13" d="M432,0L80,0C35.888,0,0,35.888,0,80v40c0,11.046,8.954,20,20,20s20-8.954,20-20v-40c0-22.056,17.944-40,40-40h352c22.056,0,40,17.944,40,40v352c0,22.056-17.944,40-40,40h-352c-22.056,0-40-17.944-40-40v-40c0-11.046-8.954-20-20-20s-20,8.954-20,20v40c0,44.112,35.888,80,80,80h352c44.112,0,80-35.888,80-80v-352c0-44.112-35.888-80-80-80Z"/></g></g><g id="elcos-sinotticoreq-u-arrow-in"><g id="elcos-sinotticoreq-s-g4"><g id="elcos-sinotticoreq-s-g5"><path id="elcos-sinotticoreq-s-path14" d="M335.919,213.567l-74.784-74.716c-7.814-7.807-20.477-7.801-28.284.013s-7.801,20.477.013,28.284l74.778,74.709c7.798,7.798,7.798,20.486,0,28.284-.029.029-.058.059-.087.088l-74.784,75.716c-7.762,7.859-7.684,20.522.175,28.284c3.897,3.85,8.976,5.771,14.053,5.771c5.16,0,10.318-1.985,14.23-5.946l74.746-75.677c23.346-23.398,23.329-61.425-.056-84.81Z"/></g></g><g id="elcos-sinotticoreq-s-g6"><g id="elcos-sinotticoreq-s-g7"><path id="elcos-sinotticoreq-s-path15" d="M233,236h-213c-11.046,0-20,8.954-20,20s8.954,20,20,20h213c11.046,0,20-8.954,20-20s-8.954-20-20-20Z"/></g></g></g></g><text id="elcos-sinotticoreq-s-text1" dx="0" dy="0" font-family="&quot;elcos-sinotticoreq:::Montserrat&quot;" font-size="75" font-weight="700" transform="matrix(1.308077 0 0 1.308077 1562.578616 948.476363)" stroke-width="0"><tspan id="elcos-sinotticoreq-s-tspan1" y="0" font-weight="700" stroke-width="0">IN</tspan></text></g><g id="elcos-sinotticoreq-u-start-stop" transform="matrix(4 0 0 4 1691.21806 765.960967)" opacity="0"><path id="elcos-sinotticoreq-s-path16" d="M41,27.17v7.83c.002756,3.390016-1.428493,6.623039-3.94,8.9C32.94,47.65,28.67,47,23,47c-6.627417,0-12-5.372583-12-12v-8c0-3.47,6-2.23,6,2v-15c-.001173-.824163.336765-1.612512.934472-2.179956s1.402537-.864,2.225528-.820044c1.632318.146752,2.872848,1.531428,2.84,3.17v7.83c0-1.656854,1.343146-3,3-3s3,1.343146,3,3v2c0-1.656854,1.343146-3,3-3s3,1.343146,3,3v3c-.001173-.824163.336765-1.612512.934472-2.179956s1.402537-.864,2.225528-.820044c1.632318.146752,2.872848,1.531428,2.84,3.17Z" fill="#f6ccaf"/><path id="elcos-sinotticoreq-s-path17" d="M41,27.17v7.83c.001501,4.020807-2.010828,7.775153-5.36,10L27,45c-5.522847,0-10-4.477153-10-10v-21c-.014703-.898704.374324-1.756651,1.060034-2.33776s1.595845-.824149,2.479966-.66224c1.478538.322985,2.514207,1.657566,2.46,3.17v7.83c-.001173-.824163.336765-1.612512.934472-2.179956s1.402537-.864,2.225528-.820044c1.62841.146498,2.867538,1.525246,2.84,3.16v1.84c-.001173-.824163.336765-1.612512.934472-2.179956s1.402537-.864,2.225528-.820044c1.62841.146498,2.867538,1.525246,2.84,3.16v2.84c-.014703-.898704.374324-1.756651,1.060034-2.33776s1.595845-.824149,2.479966-.66224c1.478538.322985,2.514207,1.657566,2.46,3.17Z" fill="#ffdec7"/><path id="elcos-sinotticoreq-s-path18" d="M17,29v6c0,.552285-.447715,1-1,1s-1-.447715-1-1v-9.47c1.239431.715584,2.00211,2.038831,2,3.47Z" fill="#edb996"/><g id="elcos-sinotticoreq-s-g8"><g id="elcos-sinotticoreq-u-onde" transform="translate(.000001 0)"><path id="elcos-sinotticoreq-s-path19" d="M27.92,14.15c.421825-2.960886-.843138-5.909796-3.279279-7.64473s-5.636571-1.966122-8.296769-.599327-4.335852,4.103285-4.343952,7.094057c0,.95.05,2,1.07,2c.293376.003322.57341-.12236.765929-.343757s.278099-.516171.234071-.806243c-.331111-2.323715.723163-4.627132,2.698276-5.895288s4.508336-1.268155,6.483448,0s3.029387,3.571573,2.698276,5.895288c-.034102.518101.333988.976113.847292,1.054281s1.001043-.249514,1.122708-.754281Z" fill="#231f20"/><path id="elcos-sinotticoreq-s-path20" d="M20,2c3.402041.000218,6.612545,1.574566,8.695775,4.264182s2.804735,6.191806,1.954225,9.485818c-.138071.535716.184284,1.081929.72,1.22s1.081929-.184284,1.22-.72c1.353825-5.262124-.707786-10.81116-5.168985-13.912852s-10.380831-3.101691-14.84203,0-6.52281,8.650728-5.168985,13.912852c.138071.535716.684284.858071,1.22.72s.858071-.684284.72-1.22c-.85051-3.294012-.129005-6.796202,1.954225-9.485818s5.293734-4.263964,8.695775-4.264182Z" fill="#231f20"/></g><path id="elcos-sinotticoreq-s-path21" d="M36,23.57c-.155676-1.383403-1.019422-2.586363-2.280481-3.176081s-2.738026-.481364-3.899519.286081c-.395706-1.13331-1.279469-2.028992-2.407376-2.439845s-2.380703-.293436-3.412624.319845v-4.39c.068698-1.628084-.857098-3.135093-2.340419-3.80973s-3.227613-.382022-4.409581.73973C15.59,12.67,16,13.43,16,25c-2.7-2-6-.8-6,2v8c0,7.179702,5.820298,13,13,13h6c7.179702,0,13-5.820298,13-13v-7.83c.049897-1.453245-.692779-2.819102-1.939661-3.567231s-2.801545-.760676-4.060339-.032769ZM40,35c0,6.075132-4.924868,11-11,11h-6c-6.075132,0-11-4.924868-11-11v-8c0-1.4,2-1.23,3.09-.16s.91,2.02.91,8.16c0,.552285.447715,1,1,1s1-.447715,1-1v-21c-.000833-.550054.224913-1.076169.624127-1.454571s.936651-.575683,1.485873-.545429c1.097245.124073,1.917729,1.06611,1.89,2.17L22,29c0,.552285.447715,1,1,1s1-.447715,1-1v-7c0-1.104569.895431-2,2-2s2,.895431,2,2v7c0,.552285.447715,1,1,1s1-.447715,1-1v-5c0-1.104569.895431-2,2-2s2,.895431,2,2v5c0,.552285.447715,1,1,1s1-.447715,1-1c0-2.17-.13-2.74.62-3.45.601257-.579671,1.49941-.724698,2.252554-.363723s1.202687,1.151937,1.127446,1.983723Z" fill="#231f20"/></g></g>
</svg>
