<svg id="elcos-sinotticostatus" xmlns="http://www.w3.org/2000/svg" xmlns:xlink="http://www.w3.org/1999/xlink" viewBox="0 0 1920 1080" shape-rendering="geometricPrecision" text-rendering="geometricPrecision"><g id="elcos-sinotticostatus-u-accetto" transform="matrix(.246342 0 0 0.246342 53.047369 489.296293)"><path id="elcos-sinotticostatus-s-path1" d="M256,0C114.8,0,0,114.8,0,256s114.8,256,256,256s256-114.8,256-256-114.8-256-256-256Z" clip-rule="evenodd" fill="#4bae4f" fill-rule="evenodd"/><path id="elcos-sinotticostatus-s-path2" d="M206.7,373.1c-32.7-32.7-65.2-65.7-98-98.4-3.6-3.6-3.6-9.6,0-13.2l37.7-37.7c3.6-3.6,9.6-3.6,13.2,0l53.9,53.9L352.1,139c3.7-3.6,9.6-3.6,13.3,0l37.8,37.8c3.7,3.7,3.7,9.6,0,13.2L219.9,373.1c-3.6,3.7-9.5,3.7-13.2,0Z" fill="#fff"/></g><g id="elcos-sinotticostatus-u-anom-yes" transform="matrix(.25 0 0 0.25 50.577817 487.319608)" opacity="0"><g id="elcos-sinotticostatus-u-alarm" transform="translate(-.014063-13.399999)"><path id="elcos-sinotticostatus-s-path3" d="M506.4,432.6L294.7,36.1c-2.8-5.3-6.7-9.8-11.2-13.4-3.8-3-8-5.3-12.7-6.9-.9-.3-1.9-.6-2.8-.9-3.8-1-7.8-1.5-12-1.5-16.6,0-31.1,8.5-38.7,22.7L5.6,432.6C-2,447,-1.9,462.9,6,476.5c8,13.8,22.3,22.1,38.3,22.1h211.7h211.7v0c16,0,30.3-8.3,38.3-22.1c7.9-13.6,8-29.5.4-43.9Z" fill="#f44336"/><g id="elcos-sinotticostatus-s-g1"><path id="elcos-sinotticostatus-s-path4" d="M256,313.5v0v0c22.1,0,40-18,40-40v-86.5c0-21.4-16.8-38.9-38-40-.7,0-1.4-.1-2.1-.1v0v0c-22.1,0-40,18-40,40v86.5c.1,22.2,18,40.1,40.1,40.1Z" fill="#fff"/><path id="elcos-sinotticostatus-s-path5" d="M282.9,363.9c-.9-.9-1.9-1.7-3-2.4-1.5-1.2-3.2-2.2-4.9-3.1-5.7-3.1-12.2-4.8-19.1-4.8v0v0v0c-22.1,0-40,18-40,40c0,22.1,18,40,40,40v0v0v0c6.9,0,13.4-1.8,19.1-4.8c1.7-.9,3.3-2,4.9-3.1c1-.8,2-1.6,3-2.4C291,416,296,405.4,296,393.7c0-11.9-5-22.4-13.1-29.8Z" fill="#fff"/></g></g></g>
</svg>
