<svg id="ewFE1d5xCZp1" xmlns="http://www.w3.org/2000/svg" xmlns:xlink="http://www.w3.org/1999/xlink" viewBox="0 0 1920 850" shape-rendering="geometricPrecision" text-rendering="geometricPrecision" project-id="78152e9d8afe40568249380ed86fe935" export-id="e8c3d2d88904478cbc39f17b335cd3cb" cached="false"><g transform="translate(213.904774 661.104295)"><rect width="162.61" height="16.06" rx="0" ry="0" transform="matrix(0 1.11174-1 0 833.575226-39.814292)"/><rect width="137.43" height="16.06" rx="0" ry="0" transform="matrix(0 1.04974-1 0 169.06-13.148986)"/><rect id="ewFE1d5xCZp5" width="215.21" height="16.06" rx="0" ry="0" transform="matrix(.98777 0.155917-.155917 0.98777 290.550083 87.223647)"/><rect width="112.03" height="16.06" rx="0" ry="0" transform="translate(153 123.09)"/><rect width="619.830143" height="16.06" rx="0" ry="0" transform="matrix(.524676 0 0 1 505.675226 124.905705)"/><circle r="23.94" transform="translate(485.45 131.12)" fill="#fff" stroke="#000" stroke-width="10" stroke-miterlimit="10"/><circle r="23.94" transform="translate(287.59 131.12)" fill="#fff" stroke="#000" stroke-width="10" stroke-miterlimit="10"/></g><g transform="matrix(.74 0 0 0.74 214.24 367.92)"><g><g><path d="M187.71,204.44h-82.97L118.25,3h55.97l13.5,201.44h-.01Z" fill="#f4f6f8" stroke="#1d1d1b" stroke-width="6" stroke-miterlimit="10"/><g opacity="0.1"><path d="M187.71,204.44h-19.23L154.98,3h19.23l13.5,201.44Z"/></g></g><g><path d="M310.76,204.44h-82.97L241.3,3h55.97l13.5,201.44h-.01Z" fill="#f4f6f8" stroke="#1d1d1b" stroke-width="6" stroke-miterlimit="10"/><g opacity="0.1"><path d="M310.76,204.44h-19.23L278.04,3h19.23l13.5,201.44h-.01Z"/></g></g><polygon points="131.17,178.24 131.17,119.58 259.34,178.24 259.34,119.58 387.56,178.24 387.56,119.58 515.73,178.24 515.73,381.48 131.17,381.48 3,381.48 3,119.58 131.17,178.24" fill="#dae4ea" stroke="#000" stroke-width="6" stroke-miterlimit="10"/><g opacity="0.1"><path d="M413.43,178.24l-25.9-11.86v-46.8c0,0,25.9,11.86,25.9,11.86v46.8Z"/></g><g opacity="0.1"><path d="M285.26,178.24l-25.9-11.86v-46.8c0,0,25.9,11.86,25.9,11.86v46.8Z"/></g><g opacity="0.1"><path d="M159.18,178.24l-25.9-11.86v-46.8c0,0,25.9,11.86,25.9,11.86v46.8Z"/></g><g opacity="0.1"><path d="M28.9,135.44v250.08h-25.9v-261.94c0,0,25.9,11.86,25.9,11.86Z"/></g><path d="M395.79,258.68h84.73v122.73h-84.73v-122.73Z" fill="#656d78" stroke="#1d1d1b" stroke-width="6" stroke-miterlimit="10"/><g><rect width="53.72" height="53.67" rx="6.75" ry="6.75" transform="translate(300.42 227.87)" fill="#f4f6f8" stroke="#1d1d1b" stroke-width="6" stroke-miterlimit="10"/><g opacity="0.1"><path d="M354.13,234.74v40.09c.02,3.68-2.94,6.69-6.63,6.71-.03,0-.05,0-.08,0h-14.56c3.71.02,6.73-2.96,6.75-6.67c0-.01,0-.03,0-.04v-40.09c0-3.71-3-6.71-6.71-6.71-.01,0-.03,0-.04,0h14.56c3.68-.02,6.69,2.94,6.71,6.63c0,.03,0,.05,0,.08Z"/></g></g><g><rect width="53.72" height="53.67" rx="6.75" ry="6.75" transform="translate(215.46 227.87)" fill="#f4f6f8" stroke="#1d1d1b" stroke-width="6" stroke-miterlimit="10"/><g opacity="0.1"><path d="M269.17,234.74v40.09c.02,3.68-2.94,6.69-6.63,6.71-.03,0-.05,0-.08,0h-14.56c3.71.02,6.73-2.96,6.75-6.67c0-.01,0-.03,0-.04v-40.09c0-3.71-3-6.71-6.71-6.71-.01,0-.03,0-.04,0h14.56c3.68-.02,6.69,2.94,6.71,6.63c0,.03,0,.05,0,.08Z"/></g></g><g><rect width="53.72" height="53.67" rx="6.75" ry="6.75" transform="translate(130.49 227.87)" fill="#f4f6f8" stroke="#1d1d1b" stroke-width="6" stroke-miterlimit="10"/><g opacity="0.1"><path d="M184.21,234.74v40.09c.02,3.68-2.94,6.69-6.63,6.71-.03,0-.05,0-.08,0h-14.56c3.71.02,6.73-2.96,6.75-6.67c0-.01,0-.03,0-.04v-40.09c0-3.71-3-6.71-6.71-6.71-.01,0-.03,0-.04,0h14.56c3.68-.02,6.69,2.94,6.71,6.63c0,.03,0,.05,0,.08Z"/></g></g><g><rect width="53.72" height="53.67" rx="6.75" ry="6.75" transform="translate(45.53 227.87)" fill="#f4f6f8" stroke="#1d1d1b" stroke-width="6" stroke-miterlimit="10"/><g opacity="0.1"><path d="M99.24,234.74v40.09c.02,3.68-2.94,6.69-6.63,6.71-.03,0-.05,0-.08,0h-14.56c3.71.02,6.73-2.96,6.75-6.67c0-.01,0-.03,0-.04v-40.09c0-3.71-3-6.71-6.71-6.71-.01,0-.03,0-.04,0h14.56c3.68-.02,6.69,2.94,6.71,6.63c0,.03,0,.05,0,.08Z"/></g></g></g></g>
</svg>
