<svg id="eWAEutwjVaQ1" xmlns="http://www.w3.org/2000/svg" xmlns:xlink="http://www.w3.org/1999/xlink" viewBox="0 0 1920 850" shape-rendering="geometricPrecision" text-rendering="geometricPrecision" project-id="8c1a1c643a9d4a2aba3d6d08f5717327" export-id="1ea27893d9a64856ab6ddc1617aac674" cached="true"><g id="eWAEutwjVaQ2" transform="translate(525.789997 20.960005)"><rect width="438.12" height="254.45" rx="0" ry="0" transform="translate(118.37 367.89)" fill="#3d445a" stroke="#1d1d1b" stroke-width="6" stroke-miterlimit="24.43"/><path d="M505.6,388.31v181.98c0,9.4-7.62,17.03-17.03,17.03l-294.78,1.6v32l311.81-1.6h47.41v-231.01h-47.41Z" fill="#282d3a"/><rect width="178.75" height="124.77" rx="0" ry="0" transform="translate(366.91 294.29)" fill="#3d445a" stroke="#1d1d1b" stroke-width="6" stroke-miterlimit="24.43"/><rect width="188.56" height="11.92" rx="0" ry="0" transform="translate(362 282.37)" fill="#3d445a" stroke="#1d1d1b" stroke-width="6" stroke-miterlimit="24.43"/><circle r="10.69" transform="translate(290.12 348.88)" fill="#fff"/><rect width="72.16" height="263.06" rx="2.7" ry="2.7" transform="translate(118.37 363.58)" fill="#808b95" stroke="#000" stroke-width="6" stroke-miterlimit="10"/><path d="M174.3,379.43h-42.85c-2.24,0-4.06,1.82-4.06,4.06v0v4.06h50.96v-4.06v0c0-2.24-1.82-4.06-4.06-4.06h.01Z" fill="#dae4ea"/><path d="M174.3,390.1h-42.85c-2.24,0-4.06,1.82-4.06,4.06v0v4.06h50.96v-4.06v0c0-2.24-1.82-4.06-4.06-4.06h.01Z" fill="#dae4ea"/><path d="M174.3,400.76h-42.85c-2.24,0-4.06,1.82-4.06,4.06v0v4.06h50.96v-4.06v0c0-2.24-1.82-4.06-4.06-4.06h.01Z" fill="#dae4ea"/><path d="M174.3,411.42h-42.85c-2.24,0-4.06,1.82-4.06,4.06v0v4.06h50.96v-4.06v0c0-2.24-1.82-4.06-4.06-4.06h.01Z" fill="#dae4ea"/><path d="M174.3,422.09h-42.85c-2.24,0-4.06,1.82-4.06,4.06v0v4.06h50.96v-4.06v0c0-2.24-1.82-4.06-4.06-4.06h.01Z" fill="#dae4ea"/><path d="M174.3,432.75h-42.85c-2.24,0-4.06,1.82-4.06,4.06v0v4.06h50.96v-4.06v0c0-2.24-1.82-4.06-4.06-4.06h.01Z" fill="#dae4ea"/><path d="M174.3,443.42h-42.85c-2.24,0-4.06,1.82-4.06,4.06v0v4.06h50.96v-4.06v0c0-2.24-1.82-4.06-4.06-4.06h.01Z" fill="#dae4ea"/><path d="M174.3,454.08h-42.85c-2.24,0-4.06,1.82-4.06,4.06v0v4.06h50.96v-4.06v0c0-2.24-1.82-4.06-4.06-4.06h.01Z" fill="#dae4ea"/><path d="M174.3,464.75h-42.85c-2.24,0-4.06,1.82-4.06,4.06v0v4.06h50.96v-4.06v0c0-2.24-1.82-4.06-4.06-4.06h.01Z" fill="#dae4ea"/><path d="M174.3,475.41h-42.85c-2.24,0-4.06,1.82-4.06,4.06v0v4.06h50.96v-4.06v0c0-2.24-1.82-4.06-4.06-4.06h.01Z" fill="#dae4ea"/><path d="M174.3,503.77h-42.85c-2.24,0-4.06,1.82-4.06,4.06v0v4.06h50.96v-4.06v0c0-2.24-1.82-4.06-4.06-4.06h.01Z" fill="#dae4ea"/><path d="M174.3,514.43h-42.85c-2.24,0-4.06,1.82-4.06,4.06v0v4.06h50.96v-4.06v0c0-2.24-1.82-4.06-4.06-4.06h.01Z" fill="#dae4ea"/><path d="M174.3,525.1h-42.85c-2.24,0-4.06,1.82-4.06,4.06v0v4.06h50.96v-4.06v0c0-2.24-1.82-4.06-4.06-4.06h.01Z" fill="#dae4ea"/><path d="M174.3,535.76h-42.85c-2.24,0-4.06,1.82-4.06,4.06v0v4.06h50.96v-4.06v0c0-2.24-1.82-4.06-4.06-4.06h.01Z" fill="#dae4ea"/><path d="M174.3,546.43h-42.85c-2.24,0-4.06,1.82-4.06,4.06v0v4.06h50.96v-4.06v0c0-2.24-1.82-4.06-4.06-4.06h.01Z" fill="#dae4ea"/><path d="M174.3,557.09h-42.85c-2.24,0-4.06,1.82-4.06,4.06v0v4.06h50.96v-4.06v0c0-2.24-1.82-4.06-4.06-4.06h.01Z" fill="#dae4ea"/><path d="M174.3,567.76h-42.85c-2.24,0-4.06,1.82-4.06,4.06v0v4.06h50.96v-4.06v0c0-2.24-1.82-4.06-4.06-4.06h.01Z" fill="#dae4ea"/><path d="M174.3,578.42h-42.85c-2.24,0-4.06,1.82-4.06,4.06v0v4.06h50.96v-4.06v0c0-2.24-1.82-4.06-4.06-4.06h.01Z" fill="#dae4ea"/><path d="M174.3,589.08h-42.85c-2.24,0-4.06,1.82-4.06,4.06v0v4.06h50.96v-4.06v0c0-2.24-1.82-4.06-4.06-4.06h.01Z" fill="#dae4ea"/><path d="M174.3,599.75h-42.85c-2.24,0-4.06,1.82-4.06,4.06v0v4.06h50.96v-4.06v0c0-2.24-1.82-4.06-4.06-4.06h.01Z" fill="#dae4ea"/><rect width="192.39" height="39.13" rx="0" ry="0" transform="translate(230.72 599.75)" fill="#3d445a" stroke="#1d1d1b" stroke-width="6" stroke-miterlimit="24.43"/></g><g id="eWAEutwjVaQ30" transform="translate(888.580729 364.6)" opacity="0"><rect width="180.33" height="180.33" rx="0" ry="0" transform="translate(3 3)" fill="#dae4ea" stroke="#000" stroke-width="6" stroke-miterlimit="10"/><g id="eWAEutwjVaQ32" opacity="0"><path d="M87.43,147.34l45.41-78.19c1.03-1.77-.43-3.95-2.46-3.67l-30.21,4.11l7.22-37.89c.24-1.28-1.4-2.01-2.19-.97L60.55,89.67c-1.3,1.72.08,4.16,2.22,3.93l33.3-3.51L85.15,146.5c-.26,1.36,1.58,2.05,2.27.85l.01-.01Z" fill="#ffdc64"/><path d="M74.52,85.48c-.83.07-1.39-.84-.94-1.55l33.38-53.41c-.5-.39-1.28-.42-1.75.21L60.56,89.67c-1.3,1.72.08,4.16,2.22,3.93l33.3-3.51L85.16,146.5c-.15.76.37,1.3.97,1.42l18.71-59.2c.88-2.77-1.34-5.55-4.24-5.32c0,0-26.08,2.09-26.08,2.09v-.01Z" fill="#ffc850"/><path d="M136.96,63.73c-.41-.61-1.13-.93-1.85-.83l-32.55,4.42l5.75-30.18l1.95-10.25c.17-.88-.29-1.75-1.1-2.11s-1.77-.12-2.31.59L55.6,93.02c-.46.61-.52,1.43-.14,2.1s1.11,1.04,1.87.96L93.7,92.25l-.3,1.56-11.51,59.45c-.18.92.33,1.83,1.21,2.16.22.08.45.12.67.12.67,0,1.31-.35,1.66-.95l51.59-88.83c.37-.63.34-1.42-.06-2.03ZM87.81,142.86l9.35-48.31c0,0,0,0,0,0l.79-4.1c.12-.6-.06-1.21-.47-1.66s-1.01-.67-1.61-.61L61.32,91.82l43.63-57.59-.42,2.2-6.25,32.8c-.12.61.07,1.23.49,1.68s1.04.66,1.65.58l31.3-4.26L87.8,142.86h.01Z"/></g></g><g id="eWAEutwjVaQ36" transform="matrix(1.183378 0 0 1.183378 888.030599 364.049866)" opacity="0"><rect width="152.09" height="152.09" rx="0" ry="0" transform="translate(3 3)" fill="#dae4ea" stroke="#000" stroke-width="6" stroke-miterlimit="10"/><path d="M56.91,62.32c3.06,1.66,5.46,3.94,7.21,6.84s2.62,6.15,2.62,9.76-.88,6.93-2.62,9.86c-1.75,2.93-4.15,5.25-7.21,6.95s-6.48,2.54-10.26,2.54-7.2-.84-10.26-2.52-5.46-3.99-7.21-6.95c-1.75-2.95-2.62-6.25-2.62-9.89s.87-6.86,2.62-9.76s4.15-5.18,7.21-6.84s6.48-2.49,10.26-2.49s7.2.83,10.26,2.49v.01ZM41.64,69.48c-1.57.95-2.82,2.27-3.74,3.95s-1.38,3.53-1.38,5.54.47,3.92,1.4,5.59c.94,1.68,2.18,3,3.74,3.98c1.56.97,3.25,1.46,5.09,1.46s3.53-.49,5.06-1.46c1.54-.97,2.75-2.3,3.63-3.98s1.33-3.54,1.33-5.59-.44-3.86-1.33-5.54c-.88-1.68-2.09-3-3.63-3.95-1.54-.96-3.23-1.43-5.06-1.43s-3.54.48-5.12,1.43h.01Z"/><path d="M71.57,60.41h27.78l-.05,7.74h-18.03v8.27h16.65v7.74h-16.65v13.42h-9.7v-37.17Z"/><path d="M103.75,60.41h27.78l-.05,7.74h-18.03v8.27h16.65v7.74h-16.65v13.42h-9.7v-37.17Z"/></g><g id="eWAEutwjVaQ41" transform="matrix(1.177395 0 0 1.177394 888.958549 364.067818)" opacity="0"><rect width="152.09" height="152.09" rx="0" ry="0" transform="translate(3 3)" fill="#dae4ea" stroke="#000" stroke-width="6" stroke-miterlimit="10"/><path d="M131.37,118.16L87.13,30.33c-.59-1.17-1.4-2.17-2.34-2.97-.79-.66-1.67-1.17-2.65-1.53-.19-.07-.4-.13-.59-.2-.79-.22-1.63-.33-2.51-.33-3.47,0-6.5,1.88-8.09,5.03L26.72,118.16c-1.59,3.19-1.57,6.71.08,9.72c1.67,3.06,4.66,4.9,8,4.9h88.48c3.34,0,6.33-1.84,8-4.9c1.65-3.01,1.67-6.53.08-9.72h.01Z" fill="#e53935"/><path d="M79.04,91.78v0c4.62,0,8.36-3.99,8.36-8.86v-19.16c0-4.74-3.51-8.62-7.94-8.86-.15,0-.29-.02-.44-.02v0c-4.62,0-8.36,3.99-8.36,8.86v19.16c.02,4.92,3.76,8.88,8.38,8.88Z" fill="#fff"/><path d="M84.67,102.95c-.19-.2-.4-.38-.63-.53-.31-.27-.67-.49-1.02-.69-1.19-.69-2.55-1.06-3.99-1.06v0c-4.62,0-8.36,3.99-8.36,8.86s3.76,8.86,8.36,8.86v0c1.44,0,2.8-.4,3.99-1.06.36-.2.69-.44,1.02-.69.21-.18.42-.35.63-.53c1.69-1.62,2.74-3.97,2.74-6.56s-1.04-4.96-2.74-6.6Z" fill="#fff"/></g>
</svg>
