<svg id="ewsvbUcm2tl1" xmlns="http://www.w3.org/2000/svg" xmlns:xlink="http://www.w3.org/1999/xlink" viewBox="0 0 1920 1080" shape-rendering="geometricPrecision" text-rendering="geometricPrecision" project-id="51e096d3c8b74c3db4dc5e673b7c8ae0" export-id="961b645710d74661a5756c8f553107fd" cached="false"><g transform="translate(1096.83714 182)"><rect width="171.18" height="35.28" rx="0" ry="0" transform="translate(108.64 289.24)" fill="#dae4ea"/><rect width="171.18" height="35.28" rx="0" ry="0" transform="translate(108.64 289.24)" fill="none" stroke="#1d1d1b" stroke-width="6" stroke-miterlimit="24.43"/><path d="M230.19,194.92c0-15.88,12.89-28.77,28.77-28.77h403.34v281.44h-403.34c-15.88,0-28.77-12.86-28.77-28.77v-223.9" fill="#dae4ea"/><path d="M258.96,166.15h403.34v281.44h-403.34c-15.88,0-28.77-12.86-28.77-28.77v-223.9c0-15.88,12.89-28.77,28.77-28.77Z" fill="none" stroke="#1d1d1b" stroke-width="6" stroke-miterlimit="24.43"/><path d="M609.05,169.56h50.39v275.16h-399.68c-15.15,0-24.63-8.88-25.7-23.77h312.34c34.61,0,62.65-28.05,62.65-62.66v-188.73v0Z" fill="#c6d0da"/><path d="M230.19,351.64v-89.52c0,0-26.22,10.02-26.22,10.02-4.32,1.65-7.16,5.79-7.16,10.4v48.67c0,4.61,2.84,8.75,7.16,10.4l26.22,10.02v0v.01Z" fill="#808b95"/><path d="M230.19,351.64v-89.52c0,0-26.22,10.02-26.22,10.02-4.32,1.65-7.16,5.79-7.16,10.4v48.67c0,4.61,2.84,8.75,7.16,10.4l26.22,10.02v0v.01Z" fill="none" stroke="#1d1d1b" stroke-width="6" stroke-miterlimit="24.43"/><path d="M599.72,166.15L573.94,111.2c-1.42-3.01-4.43-4.92-7.76-4.92h-239.87c-3.33,0-6.34,1.91-7.76,4.92l-25.78,54.95h306.99c0,0-.03,0-.03,0h-.01Z" fill="#808b95"/><path d="M599.72,166.15L573.94,111.2c-1.42-3.01-4.43-4.92-7.76-4.92h-239.87c-3.33,0-6.34,1.91-7.76,4.92l-25.78,54.95h306.99c0,0-.03,0-.03,0h-.01Z" fill="none" stroke="#1d1d1b" stroke-width="6" stroke-miterlimit="24.43"/><path d="M406.79,139.65h-.03v26.51h-20.02v-26.51c0-5.53,4.49-10.02,10.02-10.02s10.02,4.49,10.02,10.02v0h.01Zm-49.48,26.51h-20.05v-26.51c0-5.53,4.49-10.02,10.02-10.02s10.02,4.49,10.02,10.02v26.51v0h.01Zm197.92-26.51v26.51h-20.02v-26.51c0-5.53,4.49-10.02,10.02-10.02s10.02,4.49,10.02,10.02h-.03.01Zm-98.93,0h-.03v26.51h-20.02v-26.51c0-5.53,4.49-10.02,10.02-10.02s10.02,4.49,10.02,10.02v0h.01Zm49.48,0h-.03v26.51h-20.02v-26.51c0-5.53,4.49-10.02,10.02-10.02s10.02,4.49,10.02,10.02v0h.01Z" fill="#5e6b76"/><path d="M406.79,139.65h-.03v26.51h-20.02v-26.51c0-5.53,4.49-10.02,10.02-10.02s10.02,4.49,10.02,10.02v0h.01Zm-49.48,26.51h-20.05v-26.51c0-5.53,4.49-10.02,10.02-10.02s10.02,4.49,10.02,10.02v26.51v0h.01Zm197.92-26.51v26.51h-20.02v-26.51c0-5.53,4.49-10.02,10.02-10.02s10.02,4.49,10.02,10.02h-.03.01Zm-98.93,0h-.03v26.51h-20.02v-26.51c0-5.53,4.49-10.02,10.02-10.02s10.02,4.49,10.02,10.02v0h.01Zm49.48,0h-.03v26.51h-20.02v-26.51c0-5.53,4.49-10.02,10.02-10.02s10.02,4.49,10.02,10.02v0h.01Z" fill="none" stroke="#1d1d1b" stroke-width="3" stroke-miterlimit="24.43"/><rect width="40.04" height="119.61" rx="0" ry="0" transform="translate(663.61 247.06)" fill="#dae4ea"/><rect width="40.04" height="119.61" rx="0" ry="0" transform="translate(663.61 247.06)" fill="none" stroke="#1d1d1b" stroke-width="6" stroke-miterlimit="24.43"/><path d="M751.82,155.14c18.95,0,34.36,15.38,34.36,34.33v234.8c0,18.95-15.41,34.36-34.36,34.36h-48.18c-5.53,0-10.02-4.49-10.02-10.02v-283.47c0-5.53,4.49-10.02,10.02-10.02h48.18" fill="#727993"/><path d="M786.15,189.47v234.83c0,18.92-15.38,34.33-34.33,34.33h-48.18c-5.53,0-10.02-4.49-10.02-10.02v-283.47c0-5.53,4.49-10.02,10.02-10.02h48.18c18.92,0,34.33,15.41,34.33,34.36v-.01Z" fill="none" stroke="#1d1d1b" stroke-width="6" stroke-miterlimit="24.43"/><path d="M751.82,155.14c18.95,0,34.36,15.38,34.36,34.33v234.77c0,18.95-15.41,34.36-34.36,34.36h-48.12c-5.53,0-10.02-4.49-10.02-10.02v-16.69h4.78c18.92,0,34.33-15.38,34.33-34.33v-234.8c0-2.64-.32-5.19-.87-7.65h19.9" fill="#3d445a"/><path d="M786.15,189.47v234.8c0,18.92-15.38,34.33-34.33,34.33h-48.12c-5.53,0-10.02-4.49-10.02-10.02v-16.69h4.78c18.92,0,34.33-15.38,34.33-34.33v-234.8c0-2.64-.32-5.19-.87-7.65h19.9c18.92,0,34.33,15.41,34.33,34.36Z" fill="none" stroke="#1d1d1b" stroke-width="2.44" stroke-miterlimit="24.43"/><path d="M737.02,470.88c5.53,0,10.02-4.49,10.02-10.02v-307.98c0-5.53-4.49-10.02-10.02-10.02s-10.02,4.49-10.02,10.02v307.94c0,5.53,4.49,10.02,10.02,10.02" fill="#8f8f89"/><path d="M737.02,470.85v.03c5.53,0,10.02-4.49,10.02-10.02v-307.98c0-5.53-4.49-10.02-10.02-10.02s-10.02,4.49-10.02,10.02v307.94c0,5.53,4.49,10.02,10.02,10.02v0v.01Z" fill="none" stroke="#1d1d1b" stroke-width="6" stroke-miterlimit="24.43"/><path d="M662.3,448.8v53.77c0,3.39-2.75,6.14-6.14,6.14h-188.76c-2.38,0-4.55-1.39-5.56-3.53l-26.45-56.37h226.89c0,0,.03,0,.03,0l-.01-.01Z" fill="#808b95"/><path d="M662.3,448.8v53.77c0,3.39-2.75,6.14-6.14,6.14h-188.76c-2.38,0-4.55-1.39-5.56-3.53l-26.45-56.37h226.89c0,0,.03,0,.03,0l-.01-.01Z" fill="none" stroke="#1d1d1b" stroke-width="6" stroke-linecap="round" stroke-linejoin="bevel" stroke-miterlimit="24.43"/><path d="M573.68,507.12c.23.52.43,1.04.58,1.59h-21.96c0,0-9.18-19.58-9.18-19.58-2.35-5.01-.2-10.98,4.81-13.33s10.98-.2,13.33,4.81l12.46,26.51h-.03-.01Zm-46.67,0c.23.52.43,1.04.58,1.59h-21.96c0,0-9.21-19.58-9.21-19.58-2.35-5.01-.2-10.98,4.81-13.33s10.98-.2,13.33,4.81l12.46,26.51v0h-.01Zm93.4,0c.23.52.43,1.04.58,1.59h-21.96c0,0-9.18-19.58-9.18-19.58-2.35-5.01-.2-10.98,4.81-13.33s10.98-.2,13.33,4.81l12.46,26.51h-.03-.01Z" fill="#5e6b76"/><path d="M573.68,507.12c.23.52.43,1.04.58,1.59h-21.96c0,0-9.18-19.58-9.18-19.58-2.35-5.01-.2-10.98,4.81-13.33s10.98-.2,13.33,4.81l12.46,26.51h-.03-.01Zm-46.67,0c.23.52.43,1.04.58,1.59h-21.96c0,0-9.21-19.58-9.21-19.58-2.35-5.01-.2-10.98,4.81-13.33s10.98-.2,13.33,4.81l12.46,26.51v0h-.01Zm93.4,0c.23.52.43,1.04.58,1.59h-21.96c0,0-9.18-19.58-9.18-19.58-2.35-5.01-.2-10.98,4.81-13.33s10.98-.2,13.33,4.81l12.46,26.51h-.03-.01Z" fill="none" stroke="#1d1d1b" stroke-width="3" stroke-miterlimit="24.43"/><path d="M362.3,72.48l7.45,26.55c1.2,4.28,5.1,7.24,9.55,7.24h113.9c4.45,0,8.35-2.96,9.55-7.24l7.45-26.55h-147.9Z" fill="#dae4ea" stroke="#000" stroke-width="6" stroke-miterlimit="10"/><path d="M296.08,41.5v23.47c0,4.15,3.36,7.51,7.51,7.51h265.31c4.15,0,7.51-3.36,7.51-7.51v-23.47h-280.33Z" fill="#727993" stroke="#000" stroke-width="6" stroke-miterlimit="10"/><rect width="310.1" height="38.5" rx="6.34" ry="6.34" transform="translate(281.2 3)" fill="#3d445a" stroke="#000" stroke-width="6" stroke-miterlimit="10"/></g><g id="ewsvbUcm2tl29" transform="translate(1414.180119 382.768275)" opacity="0"><g id="ewsvbUcm2tl30"><path d="M47.92,5.63L37.08,0.82c-1-.45-2.17,0-2.62,1.01s0,2.17,1.01,2.62l6.09,2.7C24.09,13.65,10.58,28.39,5.71,46.7c-.28,1.06.35,2.14,1.41,2.43.17.05.34.07.51.07.88,0,1.68-.59,1.91-1.47c4.6-17.27,17.42-31.13,33.97-37.07l-3.47,7.78c-1.04,2.32,2.57,3.96,3.62,1.62L48.93,8.25c.42-.95-.04-2.19-1.01-2.62Z" stroke="#050505" stroke-width="1.3" stroke-linecap="round" stroke-linejoin="round"/><path d="M121.18,34.47c-1-.44-2.17.02-2.61,1.02l-2.66,6.09c-6.46-17.57-21.1-31.16-39.26-36.06-1.05-.28-2.15.34-2.43,1.4s.34,2.15,1.4,2.43c17.13,4.62,30.9,17.55,36.8,34.22l-7.7-3.49c-1-.45-2.17,0-2.62.99-.45,1,0,2.17.99,2.62L114.82,49c.99.45,2.2-.02,2.64-1.01l4.77-10.92c.44-1-.02-2.17-1.02-2.61l-.03.01Z" stroke="#050505" stroke-width="1.3" stroke-linecap="round" stroke-linejoin="round"/><path d="M116.12,74.49c-1.06-.28-2.14.35-2.43,1.41-4.61,17.35-17.53,31.26-34.21,37.17-.05.02-.09-.03-.07-.07l2.64-7.14c.35-.95.04-2.09-.85-2.57-1.09-.59-2.4-.07-2.81,1.05l-4.11,11.13c-.39,1.05.15,2.24,1.21,2.62l12.03,4.4c2.41.88,3.76-2.85,1.36-3.72l-6.56-2.4c0,0-.05-.08,0-.1c17.17-6.62,30.4-21.24,35.21-39.33.28-1.06-.35-2.14-1.4-2.43-1.06-.28,1.06.28,0,0l-.01-.02Z" stroke="#000" stroke-width="1.3" stroke-linecap="round" stroke-linejoin="round"/><path d="M48.77,116.72c.28-1.06-.35-2.14-1.41-2.43-17.35-4.61-31.26-17.53-37.17-34.21-.02-.05.03-.09.07-.07l7.14,2.64c.95.35,2.09.04,2.57-.85.59-1.09.07-2.4-1.05-2.81L7.79,74.88c-1.05-.39-2.24.15-2.62,1.21L0.77,88.12c-.88,2.41,2.85,3.76,3.72,1.36l2.4-6.56c0,0,.08-.05.1,0c6.62,17.17,21.24,30.4,39.33,35.21c1.06.28,2.14-.35,2.43-1.4.28-1.06-.28,1.06,0,0l.02-.01Z" stroke="#000" stroke-width="1.3" stroke-linecap="round" stroke-linejoin="round"/></g><g><path d="M96.63,69.08c.6,1.47-.11,3.15-1.58,3.75l-8,3.25l7.41,4.45c1.38.79,1.86,2.55,1.07,3.93s-2.55,1.86-3.93,1.07c-.04-.02-.07-.04-.11-.07l-7.4-4.45.88,8.6c.14,1.58-1.04,2.98-2.62,3.12-1.55.13-2.92-.99-3.11-2.53L77.92,77.31l-14.15-8.5v16.51l10.37,7.77c1.27.95,1.53,2.76.58,4.03s-2.76,1.53-4.03.58l-6.91-5.18v8.64c0,1.59-1.29,2.88-2.88,2.88s-2.88-1.29-2.88-2.88v-8.64L51.11,97.7c-1.27.95-3.08.7-4.03-.58-.95-1.27-.7-3.08.58-4.03l10.37-7.77v-16.51l-14.15,8.5L42.56,90.2c-.15,1.47-1.39,2.58-2.86,2.59-.1,0-.2,0-.3-.02-1.58-.16-2.73-1.57-2.57-3.15c0,0,0,0,0,0l.88-8.6-7.4,4.45c-1.34.85-3.12.45-3.97-.9s-.45-3.12.9-3.97c.04-.02.07-.04.11-.07l7.41-4.45-8-3.25c-1.46-.62-2.15-2.31-1.52-3.78.61-1.43,2.24-2.12,3.69-1.56l12,4.88l14.4-8.66-14.4-8.66-12,4.88c-1.48.58-3.15-.16-3.73-1.64-.56-1.45.13-3.08,1.56-3.69l8-3.25-7.41-4.45c-1.38-.79-1.86-2.55-1.07-3.93s2.55-1.86,3.93-1.07c.04.02.07.04.11.07l7.4,4.45-.88-8.6c-.16-1.58.99-3,2.57-3.16s3,.99,3.16,2.57l1.32,12.89l14.15,8.5v-16.51L47.67,34.34c-1.27-.95-1.53-2.76-.58-4.03s2.76-1.53,4.03-.58c0,0,0,0,0,0l6.91,5.18v-8.64c0-1.59,1.29-2.88,2.88-2.88s2.88,1.29,2.88,2.88v8.64l6.91-5.18c1.27-.95,3.08-.7,4.03.58.95,1.27.7,3.08-.58,4.03v0L63.78,42.11v16.51l14.15-8.5l1.32-12.89c.19-1.58,1.62-2.71,3.2-2.52c1.54.18,2.66,1.56,2.53,3.11l-.88,8.6l7.4-4.45c1.34-.85,3.12-.45,3.97.9.85,1.34.45,3.12-.9,3.97-.04.02-.07.04-.11.07l-7.41,4.45l8,3.25c1.46.62,2.15,2.31,1.52,3.78-.61,1.43-2.24,2.12-3.69,1.56l-12-4.88-14.4,8.66l14.4,8.66l12-4.88c1.47-.6,3.15.11,3.75,1.58c0,0,0,0,0,0v-.01Z" fill="#2d7f95"/></g></g><g id="ewsvbUcm2tl37" transform="matrix(1.167416 0 0 1.167415 1414.983063 383.225353)" opacity="0"><g id="ewsvbUcm2tl38"><path d="M40.52,4.85L31.37,0.79c-.84-.38-1.83,0-2.21.85s0,1.83.85,2.21l5.13,2.28C20.42,11.61,9.03,24.05,4.92,39.49c-.24.89.29,1.81,1.19,2.05.14.04.29.06.43.06.74,0,1.42-.5,1.61-1.24C12.02,25.81,22.84,14.12,36.8,9.1l-2.93,6.57c-.87,1.96,2.17,3.34,3.05,1.36l4.45-9.96c.36-.8-.03-1.85-.85-2.21v-.01Z" stroke="#050505" stroke-width="1.3" stroke-linecap="round" stroke-linejoin="round"/><path d="M102.3,29.18c-.85-.37-1.83.02-2.2.86l-2.25,5.14C92.4,20.36,80.05,8.9,64.73,4.77c-.89-.24-1.81.29-2.05,1.18s.29,1.81,1.18,2.05C78.31,11.9,89.92,22.8,94.9,36.86l-6.5-2.94c-.84-.38-1.83,0-2.21.83-.38.84,0,1.83.83,2.21l9.89,4.48c.84.38,1.86-.01,2.22-.85l4.03-9.21c.37-.84-.02-1.83-.86-2.2Z" stroke="#050505" stroke-width="1.3" stroke-linecap="round" stroke-linejoin="round"/><path d="M98.04,62.92c-.89-.24-1.81.29-2.05,1.19C92.1,78.74,81.2,90.48,67.14,95.46c-.04.01-.08-.02-.06-.06l2.23-6.02c.3-.8.03-1.76-.72-2.17-.92-.5-2.02-.06-2.37.89l-3.47,9.38c-.33.89.13,1.89,1.02,2.21l10.15,3.71c2.03.74,3.17-2.4,1.15-3.14l-5.54-2.03c0,0-.04-.07,0-.09c14.48-5.59,25.64-17.92,29.7-33.17.24-.89-.29-1.81-1.18-2.05s.89.24,0,0h-.01Z" stroke="#000" stroke-width="1.3" stroke-linecap="round" stroke-linejoin="round"/><path d="M41.23,98.54c.24-.89-.29-1.81-1.19-2.05C25.41,92.6,13.67,81.7,8.69,67.64c-.01-.04.02-.08.06-.06l6.02,2.23c.8.3,1.76.03,2.17-.72.5-.92.06-2.02-.89-2.37L6.67,63.25c-.89-.33-1.89.13-2.21,1.02L0.75,74.42c-.74,2.03,2.4,3.17,3.14,1.15l2.03-5.54c0,0,.07-.04.09,0c5.59,14.48,17.92,25.64,33.17,29.7.89.24,1.81-.29,2.05-1.18s-.24.89,0,0v-.01Z" stroke="#000" stroke-width="1.3" stroke-linecap="round" stroke-linejoin="round"/></g><path d="M45.39,39.68c2.13,1.16,3.8,2.74,5.02,4.76s1.83,4.28,1.83,6.79-.61,4.82-1.83,6.86-2.89,3.65-5.02,4.83-4.51,1.77-7.14,1.77-5.01-.58-7.14-1.75-3.8-2.78-5.02-4.83-1.83-4.35-1.83-6.88.61-4.77,1.83-6.79s2.89-3.6,5.02-4.76s4.51-1.73,7.14-1.73s5.01.58,7.14,1.73ZM34.76,44.66c-1.1.66-1.96,1.58-2.6,2.75s-.96,2.45-.96,3.86.33,2.72.98,3.89s1.52,2.09,2.6,2.77s2.26,1.01,3.54,1.01s2.45-.34,3.52-1.01c1.07-.68,1.91-1.6,2.53-2.77.61-1.17.92-2.47.92-3.89s-.31-2.69-.92-3.86c-.62-1.17-1.46-2.08-2.53-2.75-1.07-.66-2.24-1-3.52-1s-2.47.33-3.56,1Z"/><path d="M73.26,38.35h6.27v25.87h-5.9L61.9,48.76v15.46h-6.31v-25.87h5.94L73.3,53.92l-.04-15.57Z"/></g><g id="ewsvbUcm2tl45" transform="matrix(1.17714 0 0 1.17714 1414.978595 382.498234)" opacity="0"><g id="ewsvbUcm2tl46"><path d="M40.52,4.85L31.37,0.79c-.84-.38-1.83,0-2.21.85s0,1.83.85,2.21l5.13,2.28C20.42,11.61,9.03,24.05,4.92,39.49c-.24.89.29,1.81,1.19,2.05.14.04.29.06.43.06.74,0,1.42-.5,1.61-1.24C12.02,25.81,22.84,14.12,36.8,9.1l-2.93,6.57c-.87,1.96,2.17,3.34,3.05,1.36l4.45-9.96c.36-.8-.03-1.85-.85-2.21v-.01Z" stroke="#050505" stroke-width="1.3" stroke-linecap="round" stroke-linejoin="round"/><path d="M102.3,29.18c-.85-.37-1.83.02-2.2.86l-2.25,5.14C92.4,20.36,80.05,8.9,64.73,4.77c-.89-.24-1.81.29-2.05,1.18s.29,1.81,1.18,2.05C78.31,11.9,89.92,22.8,94.9,36.86l-6.5-2.94c-.84-.38-1.83,0-2.21.83-.38.84,0,1.83.83,2.21l9.89,4.48c.84.38,1.86-.01,2.22-.85l4.03-9.21c.37-.84-.02-1.83-.86-2.2Z" stroke="#050505" stroke-width="1.3" stroke-linecap="round" stroke-linejoin="round"/><path d="M98.04,62.92c-.89-.24-1.81.29-2.05,1.19C92.1,78.74,81.2,90.48,67.14,95.46c-.04.01-.08-.02-.06-.06l2.23-6.02c.3-.8.03-1.76-.72-2.17-.92-.5-2.02-.06-2.37.89l-3.47,9.38c-.33.89.13,1.89,1.02,2.21l10.15,3.71c2.03.74,3.17-2.4,1.15-3.14l-5.54-2.03c0,0-.04-.07,0-.09c14.48-5.59,25.64-17.92,29.7-33.17.24-.89-.29-1.81-1.18-2.05s.89.24,0,0h-.01Z" stroke="#000" stroke-width="1.3" stroke-linecap="round" stroke-linejoin="round"/><path d="M41.23,98.54c.24-.89-.29-1.81-1.19-2.05C25.41,92.6,13.67,81.7,8.69,67.64c-.01-.04.02-.08.06-.06l6.02,2.23c.8.3,1.76.03,2.17-.72.5-.92.06-2.02-.89-2.37L6.67,63.25c-.89-.33-1.89.13-2.21,1.02L0.75,74.42c-.74,2.03,2.4,3.17,3.14,1.15l2.03-5.54c0,0,.07-.04.09,0c5.59,14.48,17.92,25.64,33.17,29.7.89.24,1.81-.29,2.05-1.18s-.24.89,0,0v-.01Z" stroke="#000" stroke-width="1.3" stroke-linecap="round" stroke-linejoin="round"/></g><path d="M47.15,75.35c11.08-12.45,8.12-16.62,2.23-24.94-.8-1.12-1.63-2.3-2.46-3.54-6.53-9.78-.33-20.29,3.86-24.47c1.04-1.02,2.72-1,3.74.04c1,1.03,1,2.66,0,3.69-.39.4-8.93,9.21-3.2,17.81.8,1.2,1.6,2.33,2.37,3.42c6.05,8.54,11.28,15.92-2.6,31.51-.97,1.09-2.64,1.19-3.73.22s-1.19-2.64-.22-3.73l.01-.01ZM67.6,48.72c-1.24-2.28-2.52-4.63-3.52-6.99-1.16-2.73-.69-5.3,1.8-9.83.74-1.26.32-2.88-.94-3.62s-2.88-.32-3.62.94c-.03.04-.05.09-.07.13-2.39,4.35-4.3,9.12-2.04,14.44c1.11,2.6,2.45,5.07,3.74,7.45c4.83,8.88,8.32,15.3-.69,23.96-1.05,1.01-1.08,2.68-.07,3.74c1.01,1.05,2.68,1.08,3.74.07C77.85,67.56,72.4,57.55,67.6,48.72v0ZM31.86,47.21c1.28,2.85,2.76,5.59,4.44,8.22c4.57,7.49,7.08,11.62-1.39,19.76-1.05,1.01-1.08,2.68-.07,3.74c1.01,1.05,2.68,1.08,3.74.07c11.53-11.08,6.81-18.83,2.24-26.32-1.55-2.41-2.91-4.93-4.09-7.54-1.16-2.72-.69-5.3,1.8-9.83.7-1.28.23-2.89-1.05-3.59s-2.89-.23-3.59,1.05c-2.39,4.36-4.29,9.12-2.04,14.44v0h.01Z" fill="#e53935"/></g><text id="ewsvbUcm2tl52" dx="0" dy="0" font-family="&quot;ewsvbUcm2tl1:::Montserrat&quot;" font-size="38" font-weight="800" transform="translate(1435.499174 456.735307)" opacity="0" stroke-width="0"><tspan y="0" font-weight="800" stroke-width="0">OFF</tspan></text>
</svg>
