<svg id="e2gABuqLbPW1" xmlns="http://www.w3.org/2000/svg" xmlns:xlink="http://www.w3.org/1999/xlink" viewBox="0 0 1920 1080" shape-rendering="geometricPrecision" text-rendering="geometricPrecision" project-id="0d680b3ec2264c4b81942e1934adbab6" export-id="6f434d59ea934957af92f4fd4a640a5e" cached="false"><g id="e2gABuqLbPW2" transform="translate(1583.238471 438.992722)" opacity="0"><rect width="105.94" height="105.94" rx="9.39" ry="9.39" transform="translate(27.72 27.48)" fill="none" stroke="#000" stroke-width="3" stroke-miterlimit="10"/><rect width="21.4" height="6.58" rx="2.77" ry="2.77" transform="translate(7.54 50.29)"/><rect width="28.94" height="6.58" rx="2.77" ry="2.77" transform="translate(0 68.12)"/><rect width="28.94" height="6.58" rx="2.77" ry="2.77" transform="translate(0 103.97)"/><rect width="20.77" height="6.58" rx="2.77" ry="2.77" transform="translate(8.17 86.34)"/><rect width="21.4" height="6.58" rx="2.77" ry="2.77" transform="matrix(0 1-1 0 110.83 7.55)"/><rect width="28.94" height="6.58" rx="2.77" ry="2.77" transform="matrix(0 1-1 0 93 0)"/><rect width="28.94" height="6.58" rx="2.77" ry="2.77" transform="matrix(0 1-1 0 57.14 0)"/><rect width="20.77" height="6.58" rx="2.77" ry="2.77" transform="matrix(0 1-1 0 74.77 8.17)"/><rect width="21.4" height="6.58" rx="2.77" ry="2.77" transform="matrix(-1 0 0-1 153.24 110.58)"/><rect width="28.94" height="6.58" rx="2.77" ry="2.77" transform="matrix(-1 0 0-1 160.78 92.76)"/><rect width="28.94" height="6.58" rx="2.77" ry="2.77" transform="matrix(-1 0 0-1 160.78 56.9)"/><rect width="20.77" height="6.58" rx="2.77" ry="2.77" transform="matrix(-1 0 0-1 152.61 74.53)"/><rect width="21.4" height="6.58" rx="2.77" ry="2.77" transform="matrix(0-1 1 0 49.38 153.63)"/><rect width="28.94" height="6.58" rx="2.77" ry="2.77" transform="matrix(0-1 1 0 67.21 161.17)"/><rect width="28.94" height="6.58" rx="2.77" ry="2.77" transform="matrix(0-1 1 0 103.06 161.18)"/><rect width="20.77" height="6.58" rx="2.77" ry="2.77" transform="matrix(0-1 1 0 85.43 153)"/><rect id="e2gABuqLbPW20" width="38.71" height="55.23" rx="7.94" ry="7.94" transform="translate(37.88 68.12)" opacity="0" fill="#feea5e" stroke-width="4" stroke-miterlimit="10"/><rect id="e2gABuqLbPW21" width="38.71" height="55.23" rx="7.94" ry="7.94" transform="translate(37.88 68.12)" opacity="0" fill="none" stroke="#000" stroke-width="4" stroke-miterlimit="10"/><rect id="e2gABuqLbPW22" width="38.71" height="55.23" rx="7.94" ry="7.94" transform="translate(84.86 68.12)" opacity="0" fill="#e53935" stroke-width="4" stroke-miterlimit="10"/><rect id="e2gABuqLbPW23" width="38.71" height="55.23" rx="7.94" ry="7.94" transform="translate(84.86 68.12)" opacity="0" fill="none" stroke="#000" stroke-width="4" stroke-miterlimit="10"/><path d="M45.99,37.93h19.19v5.07h-12.84v4.55h11.59v5.03l-11.59.03v4.58h13.19v5.07h-19.54v-24.33Z"/><path d="M84.2,43.81c-1.09-.59-2.16-.89-3.23-.89-1.23,0-2.34.31-3.35.92s-1.8,1.46-2.38,2.53c-.58,1.08-.87,2.27-.87,3.59s.29,2.52.87,3.59c.58,1.08,1.37,1.92,2.38,2.53s2.12.92,3.35.92c.99,0,2.04-.25,3.12-.76c1.09-.51,2.06-1.2,2.91-2.08l3.71,3.99c-1.32,1.39-2.89,2.49-4.7,3.32-1.82.82-3.62,1.23-5.4,1.23-2.41,0-4.58-.56-6.53-1.67-1.94-1.11-3.47-2.63-4.58-4.55s-1.67-4.07-1.67-6.46.57-4.49,1.7-6.39s2.69-3.39,4.67-4.48s4.19-1.63,6.65-1.63c1.81,0,3.59.38,5.34,1.13c1.76.75,3.25,1.78,4.48,3.07l-3.68,4.44c-.79-.99-1.72-1.79-2.81-2.38l.02.03Z"/><path d="M100.72,55.91c.9.93,2.05,1.39,3.44,1.39s2.47-.46,3.32-1.37c.84-.91,1.27-2.15,1.27-3.7v-14.3h6.35v14.3c0,2.11-.45,3.95-1.34,5.54s-2.16,2.81-3.82,3.66c-1.65.86-3.59,1.28-5.81,1.28s-4.17-.43-5.85-1.28c-1.68-.86-2.97-2.08-3.89-3.66-.91-1.58-1.37-3.43-1.37-5.54v-14.3h6.35v14.3c0,1.53.45,2.75,1.35,3.68Z"/></g>
</svg>
