<svg id="ehIUEHZeW8R1" xmlns="http://www.w3.org/2000/svg" xmlns:xlink="http://www.w3.org/1999/xlink" viewBox="0 0 1920 1080" shape-rendering="geometricPrecision" text-rendering="geometricPrecision" project-id="b48b71208cb1407b98a74c98d1a1f01b" export-id="1967545d1b6643439fa90b6bacb23c76" cached="false"><g transform="translate(69.17332 319.167074)"><g><path d="M307.17,121.4L206.63,92.68v-50.2h63.79v11.56h-9.51c-2.99,0-5.41,2.42-5.41,5.41v22.39c0,2.99,2.42,5.41,5.41,5.41h29.85c2.99,0,5.41-2.42,5.41-5.41v-22.38c0-2.99-2.42-5.41-5.41-5.41h-9.51v-11.56h24.43c2.7,0,4.99-1.99,5.36-4.66s-1.28-5.21-3.87-5.96L202.83,2.05c0,0-.01,0-.02,0l-.11-.03c0,0-.08-.02-.13-.03-.12-.03-.23-.06-.35-.08-.09-.02-.17-.03-.26-.04s-.17-.03-.26-.03c-.12-.01-.24-.02-.36-.02-.04,0-.09,0-.13,0h-89.54c0,0-.08,0-.12,0-.12,0-.25,0-.37.02-.08,0-.16.02-.25.03s-.18.02-.27.04c-.12.02-.23.05-.34.08-.04.01-.09.02-.13.03l-.11.03c0,0,0,0-.01,0L5.73,31.86c-2.6.74-4.25,3.28-3.87,5.96s2.66,4.66,5.36,4.66h24.43v11.56h-9.51c-2.99,0-5.41,2.42-5.41,5.41v22.39c0,2.99,2.42,5.41,5.41,5.41h29.85c2.99,0,5.41-2.42,5.41-5.41v-22.38c0-2.99-2.42-5.41-5.41-5.41h-9.51v-11.56h63.79v50.2L5.73,121.4c-2.6.74-4.25,3.28-3.87,5.96s2.66,4.66,5.36,4.66h24.43v11.56h-9.51c-2.99,0-5.41,2.42-5.41,5.41v22.39c0,2.99,2.42,5.41,5.41,5.41h29.85c2.99,0,5.41-2.42,5.41-5.41v-22.39c0-2.99-2.42-5.41-5.41-5.41h-9.51v-11.56h63.79v53.52L84.13,263.03c0,0,0,0,0,0l-.04.15c0,0,0,0,0,0v.04c0,0-.01.01-.02.02L62.83,337.56h-10.84c-2.99,0-5.41,2.42-5.41,5.41v16.97h-11.06c-2.99,0-5.41,1.42-5.41,4.41s2.41,3.41,5.4,3.41h241.89c2.99,0,5.41-.42,5.41-3.41s-2.42-4.41-5.41-4.41h-11.06v-16.97c0-2.99-2.42-5.41-5.41-5.41h-10.84l-21.23-74.32c0,0,0-.02,0-.03l-.05-.17c0,0,0-.02,0-.03l-22.14-77.49v-53.52h63.79v11.56h-9.51c-2.99,0-5.41,2.42-5.41,5.41v22.39c0,2.99,2.42,5.41,5.41,5.41h29.85c2.99,0,5.41-2.42,5.41-5.41v-22.38c0-2.99-2.42-5.41-5.41-5.41h-9.51v-11.56h24.43c2.7,0,4.99-1.99,5.36-4.66s-1.28-5.21-3.88-5.96l-.03.01ZM285.34,64.86v11.56h-19.02v-11.56h19.02ZM206.63,14.39l60.39,17.26h-60.39v-17.26ZM46.57,64.86v11.56h-19.02v-11.56h19.02Zm0,89.54v11.56h-19.02v-11.56h19.02ZM117.09,12.63h78.71v19.02h-78.71v-19.02ZM195.8,42.48v44.16L129.55,42.48h66.25Zm-78.71,4.7l66.24,44.16h-66.24v-44.16Zm0,54.99h78.71v19.02h-78.71v-19.02ZM89.84,337.57l66.61-33.3l66.61,33.3h-133.22Zm22.39-67.52h88.44l-44.22,22.11-44.22-22.11Zm-5.76-10.82l49.98-34.99l49.98,34.99h-99.96Zm49.98-48.21L128.86,191.7h55.19l-27.59,19.32h-.01Zm39.35-79.01v44.16l-66.24-44.16h66.24Zm-78.71,4.71l66.25,44.16h-66.25v-44.16ZM45.87,31.65l60.4-17.26v17.26c0,0-60.4,0-60.4,0Zm0,89.54l60.4-17.26v17.26h-60.4Zm68.93,73.9v0c0,0,32.21,22.55,32.21,22.55L98.69,251.46l16.1-56.37h.01ZM92.71,272.4l51.64,25.82L75.5,332.64L92.71,272.4Zm153.27,76v0c0,0,.01,0,.02,0h9.49v11.56h-198.09v-11.56h9.49c0,0,.01,0,.02,0c0,0,.02,0,.02,0h179.02c0,0,.02,0,.02,0h.01Zm-8.58-15.76v0l-68.85-34.42l51.64-25.82l17.21,60.24Zm-23.2-81.19l-48.32-33.82l32.21-22.55l16.11,56.37Zm-7.57-130.26v-17.26l60.4,17.26h-60.4Zm78.71,33.21v11.56h-19.02v-11.56h19.02Z" paint-order="markers stroke fill" stroke="rgba(255,255,255,0.01)" stroke-width="3.6" stroke-miterlimit="2.88"/><path d="M277.4,358.147871h-11.06v-15.177871c0-2.99-2.42-5.41-5.41-5.41h-10.84l-21.23-74.32c0,0,0-.02,0-.03l-.05-.17c0,0,0-.02,0-.03l-22.14-77.49v-53.52h63.79v11.56h-9.51c-2.99,0-5.41,2.42-5.41,5.41v22.39c0,2.99,2.42,5.41,5.41,5.41h29.85c2.99,0,5.41-2.42,5.41-5.41v-22.38c0-2.99-2.42-5.41-5.41-5.41h-9.51v-11.56h24.43c2.7,0,4.99-1.99,5.36-4.66s-1.28-5.21-3.88-5.96l-.03.01L206.63,92.68v-50.2h63.79v11.56h-9.51c-2.99,0-5.41,2.42-5.41,5.41v22.39c0,2.99,2.42,5.41,5.41,5.41h29.85c2.99,0,5.41-2.42,5.41-5.41v-22.38c0-2.99-2.42-5.41-5.41-5.41h-9.51v-11.56h24.43c2.7,0,4.99-1.99,5.36-4.66s-1.28-5.21-3.87-5.96L202.83,2.05c0,0-.01,0-.02,0l-.11-.03c0,0-.08-.02-.13-.03-.12-.03-.23-.06-.35-.08-.09-.02-.17-.03-.26-.04s-.17-.03-.26-.03c-.12-.01-.24-.02-.36-.02-.04,0-.09,0-.13,0h-89.54c0,0-.08,0-.12,0-.12,0-.25,0-.37.02-.08,0-.16.02-.25.03s-.18.02-.27.04c-.12.02-.23.05-.34.08-.04.01-.09.02-.13.03l-.11.03c0,0,0,0-.01,0L5.73,31.86c-2.6.74-4.25,3.28-3.87,5.96s2.66,4.66,5.36,4.66h24.43v11.56h-9.51c-2.99,0-5.41,2.42-5.41,5.41v22.39c0,2.99,2.42,5.41,5.41,5.41h29.85c2.99,0,5.41-2.42,5.41-5.41v-22.38c0-2.99-2.42-5.41-5.41-5.41h-9.51v-11.56h63.79v50.2L5.73,121.4c-2.6.74-4.25,3.28-3.87,5.96s2.66,4.66,5.36,4.66h24.43v11.56h-9.51c-2.99,0-5.41,2.42-5.41,5.41v22.39c0,2.99,2.42,5.41,5.41,5.41h29.85c2.99,0,5.41-2.42,5.41-5.41v-22.39c0-2.99-2.42-5.41-5.41-5.41h-9.51v-11.56h63.79v53.52L84.13,263.03c0,0,0,0,0,0l-.04.15c0,0,0,0,0,0v.04c0,0-.01.01-.02.02L62.83,337.56h-10.84c-2.99,0-5.41,2.42-5.41,5.41l-.01,15.150003h-11.06M285.34,64.86v11.56h-19.02v-11.56h19.02ZM206.63,14.39l60.39,17.26h-60.39v-17.26ZM46.57,64.86v11.56h-19.02v-11.56h19.02Zm0,89.54v11.56h-19.02v-11.56h19.02ZM117.09,12.63h78.71v19.02h-78.71v-19.02ZM195.8,42.48v44.16L129.55,42.48h66.25Zm-78.71,4.7l66.24,44.16h-66.24v-44.16Zm0,54.99h78.71v19.02h-78.71v-19.02ZM89.84,337.57l66.61-33.3l66.61,33.3h-133.22Zm22.39-67.52h88.44l-44.22,22.11-44.22-22.11Zm-5.76-10.82l49.98-34.99l49.98,34.99h-99.96Zm49.98-48.21L128.86,191.7h55.19l-27.59,19.32h-.01Zm39.35-79.01v44.16l-66.24-44.16h66.24Zm-78.71,4.71l66.25,44.16h-66.25v-44.16ZM45.87,31.65l60.4-17.26v17.26c0,0-60.4,0-60.4,0Zm0,89.54l60.4-17.26v17.26h-60.4Zm68.93,73.9v0c0,0,32.21,22.55,32.21,22.55L98.69,251.46l16.1-56.37h.01ZM92.71,272.4l51.64,25.82L75.5,332.64L92.71,272.4Zm153.27,76v0c0,0,.01,0,.02,0h9.49v9.767871h-198.09v-9.767871h9.49c0,0,.01,0,.02,0c0,0,.02,0,.02,0h179.02c0,0,.02,0,.02,0h.01Zm-8.58-15.76v0l-68.85-34.42l51.64-25.82l17.21,60.24Zm-23.2-81.19l-48.32-33.82l32.21-22.55l16.11,56.37Zm-7.57-130.26v-17.26l60.4,17.26h-60.4Zm78.71,33.21v11.56h-19.02v-11.56h19.02Z" fill="rgba(0,0,0,0)" stroke="#fff" stroke-width="3.6" stroke-miterlimit="2.88"/><g><rect width="23.35" height="16.91" rx="0" ry="0" transform="translate(24.98 61.71)" fill="#fbd104"/><rect width="25.8" height="16.91" rx="0" ry="0" transform="translate(263.38 61.78)" fill="#fbd104"/><rect width="23.8" height="16.91" rx="0" ry="0" transform="translate(263.38 150.74)" fill="#fbd104"/><rect width="23.8" height="16.91" rx="0" ry="0" transform="translate(24.53 150.74)" fill="#fbd104"/></g></g></g><g id="ehIUEHZeW8R11" transform="translate(184.606847 553.997077)"><g><path d="M32.22,122.73L77.63,44.54c1.03-1.77-.43-3.95-2.46-3.67L44.96,44.98L52.18,7.09c.24-1.28-1.4-2.01-2.19-.97L5.35,65.04c-1.3,1.72.08,4.16,2.22,3.93l33.3-3.51-10.92,56.41c-.26,1.36,1.58,2.05,2.27.85v.01Z" fill="#ffdc64"/><path d="M19.31,60.87c-.83.07-1.39-.84-.94-1.55L51.75,5.9c-.5-.39-1.28-.42-1.75.21L5.35,65.04c-1.3,1.72.08,4.16,2.22,3.93l33.3-3.51-10.92,56.41c-.15.76.37,1.3.97,1.42l18.71-59.2c.88-2.77-1.34-5.55-4.24-5.32L19.31,60.86v.01Z" fill="#ffc850"/><path d="M81.75,39.12c-.41-.61-1.13-.93-1.85-.83L47.35,42.71L53.1,12.53L55.05,2.28c.17-.88-.29-1.75-1.1-2.11s-1.77-.12-2.31.59L0.39,68.41c-.46.61-.52,1.43-.14,2.1s1.11,1.04,1.87.96l36.37-3.83-.3,1.56-11.51,59.45c-.18.92.33,1.83,1.21,2.16.22.08.45.12.67.12.67,0,1.31-.35,1.66-.95L81.81,41.15c.37-.63.34-1.42-.06-2.03ZM32.61,118.25l9.35-48.31c0,0,0,0,0,0l.79-4.1c.12-.6-.06-1.21-.47-1.66s-1.01-.67-1.61-.61L6.12,67.21L49.75,9.6l-.42,2.2-6.25,32.8c-.12.61.07,1.23.49,1.68s1.04.66,1.65.58l31.3-4.26L32.6,118.23l.01.02Z"/></g></g><g id="ehIUEHZeW8R16" transform="matrix(.18 0 0 0.18 179.93401 587.928293)" opacity="0"><g><circle r="256" transform="translate(256 256)" fill="#e10000"/><path d="M348.6,391c-11.257762.034525-22.061062-4.438041-30-12.42L256,316l-62.6,62.61c-10.717968,10.717968-26.339746,14.903811-40.980762,10.980763s-26.076952-15.358984-30.000001-30.000001.262795-30.262794,10.980763-40.980762L196,256l-62.61-62.6c-16.568542-16.568543-16.568542-43.431457,0-60s43.431457-16.568542,60,0L256,196l62.6-62.61c10.717968-10.717968,26.339746-14.903811,40.980762-10.980763s26.076952,15.358984,30.000001,30.000001-.262795,30.262794-10.980763,40.980762L316,256l62.61,62.6c12.131815,12.130518,15.760227,30.375373,9.192843,46.224659s-22.036784,26.180683-39.192843,26.175341h-.01Z" fill="#fff"/></g></g><g id="ehIUEHZeW8R20" transform="matrix(.18 0 0 0.18 179.936532 585.516293)" opacity="0"><path d="M506.4,432.6L294.7,36.1c-2.8-5.3-6.7-9.8-11.2-13.4-3.8-3-8-5.3-12.7-6.9-.9-.3-1.9-.6-2.8-.9-3.8-1-7.8-1.5-12-1.5-16.6,0-31.1,8.5-38.7,22.7L5.6,432.6C-2,447,-1.9,462.9,6,476.5c8,13.8,22.3,22.1,38.3,22.1h211.7h211.7v0c16,0,30.3-8.3,38.3-22.1c7.9-13.6,8-29.5.4-43.9Z" fill="#e10000"/><g><path d="M256,313.5v0v0c22.1,0,40-18,40-40v-86.5c0-21.4-16.8-38.9-38-40-.7,0-1.4-.1-2.1-.1v0v0c-22.1,0-40,18-40,40v86.5c.1,22.2,18,40.1,40.1,40.1Z" fill="#fff"/><path d="M282.9,363.9c-.9-.9-1.9-1.7-3-2.4-1.5-1.2-3.2-2.2-4.9-3.1-5.7-3.1-12.2-4.8-19.1-4.8v0v0v0c-22.1,0-40,18-40,40c0,22.1,18,40,40,40v0v0v0c6.9,0,13.4-1.8,19.1-4.8c1.7-.9,3.3-2,4.9-3.1c1-.8,2-1.6,3-2.4C291,416,296,405.4,296,393.7c0-11.9-5-22.4-13.1-29.8Z" fill="#fff"/></g></g><g transform="matrix(.735285 0 0 0.735304 394.794145 405.383288)"><g><g><path d="M187.71,204.44h-82.97L118.25,3h55.97l13.5,201.44h-.01Z" fill="#f4f6f8" stroke="#1d1d1b" stroke-width="6" stroke-miterlimit="10"/><g opacity="0.1"><path d="M187.71,204.44h-19.23L154.98,3h19.23l13.5,201.44Z"/></g></g><g><path d="M310.76,204.44h-82.97L241.3,3h55.97l13.5,201.44h-.01Z" fill="#f4f6f8" stroke="#1d1d1b" stroke-width="6" stroke-miterlimit="10"/><g opacity="0.1"><path d="M310.76,204.44h-19.23L278.04,3h19.23l13.5,201.44h-.01Z"/></g></g><polygon points="131.17,178.24 131.17,119.58 259.34,178.24 259.34,119.58 387.56,178.24 387.56,119.58 515.73,178.24 515.73,381.48 131.17,381.48 3,381.48 3,119.58 131.17,178.24" fill="#dae4ea" stroke="#000" stroke-width="6" stroke-miterlimit="10"/><g opacity="0.1"><path d="M413.43,178.24l-25.9-11.86v-46.8c0,0,25.9,11.86,25.9,11.86v46.8Z"/></g><g opacity="0.1"><path d="M285.26,178.24l-25.9-11.86v-46.8c0,0,25.9,11.86,25.9,11.86v46.8Z"/></g><g opacity="0.1"><path d="M159.18,178.24l-25.9-11.86v-46.8c0,0,25.9,11.86,25.9,11.86v46.8Z"/></g><g opacity="0.1"><path d="M28.9,135.44v250.08h-25.9v-261.94c0,0,25.9,11.86,25.9,11.86Z"/></g><path d="M395.79,258.68h84.73v122.73h-84.73v-122.73Z" transform="translate(-95.201183 0)" fill="#656d78" stroke="#1d1d1b" stroke-width="6" stroke-miterlimit="10"/><g><rect width="53.72" height="53.67" rx="6.75" ry="6.75" transform="translate(422.821521 227.87)" fill="#f4f6f8" stroke="#1d1d1b" stroke-width="6" stroke-miterlimit="10"/><g opacity="0.1"><path d="M354.13,234.74v40.09c.02,3.68-2.94,6.69-6.63,6.71-.03,0-.05,0-.08,0h-14.56c3.71.02,6.73-2.96,6.75-6.67c0-.01,0-.03,0-.04v-40.09c0-3.71-3-6.71-6.71-6.71-.01,0-.03,0-.04,0h14.56c3.68-.02,6.69,2.94,6.71,6.63c0,.03,0,.05,0,.08Z" transform="translate(119.681488 0)"/></g></g><g><rect width="53.72" height="53.67" rx="6.75" ry="6.75" transform="translate(215.46 227.87)" fill="#f4f6f8" stroke="#1d1d1b" stroke-width="6" stroke-miterlimit="10"/><g opacity="0.1"><path d="M269.17,234.74v40.09c.02,3.68-2.94,6.69-6.63,6.71-.03,0-.05,0-.08,0h-14.56c3.71.02,6.73-2.96,6.75-6.67c0-.01,0-.03,0-.04v-40.09c0-3.71-3-6.71-6.71-6.71-.01,0-.03,0-.04,0h14.56c3.68-.02,6.69,2.94,6.71,6.63c0,.03,0,.05,0,.08Z"/></g></g><g><rect width="53.72" height="53.67" rx="6.75" ry="6.75" transform="translate(130.49 227.87)" fill="#f4f6f8" stroke="#1d1d1b" stroke-width="6" stroke-miterlimit="10"/><g opacity="0.1"><path d="M184.21,234.74v40.09c.02,3.68-2.94,6.69-6.63,6.71-.03,0-.05,0-.08,0h-14.56c3.71.02,6.73-2.96,6.75-6.67c0-.01,0-.03,0-.04v-40.09c0-3.71-3-6.71-6.71-6.71-.01,0-.03,0-.04,0h14.56c3.68-.02,6.69,2.94,6.71,6.63c0,.03,0,.05,0,.08Z"/></g></g><g><rect width="53.72" height="53.67" rx="6.75" ry="6.75" transform="translate(45.53 227.87)" fill="#f4f6f8" stroke="#1d1d1b" stroke-width="6" stroke-miterlimit="10"/><g opacity="0.1"><path d="M99.24,234.74v40.09c.02,3.68-2.94,6.69-6.63,6.71-.03,0-.05,0-.08,0h-14.56c3.71.02,6.73-2.96,6.75-6.67c0-.01,0-.03,0-.04v-40.09c0-3.71-3-6.71-6.71-6.71-.01,0-.03,0-.04,0h14.56c3.68-.02,6.69,2.94,6.71,6.63c0,.03,0,.05,0,.08Z"/></g></g></g></g>
</svg>
