<svg id="eQTw64jCcpW1" xmlns="http://www.w3.org/2000/svg" xmlns:xlink="http://www.w3.org/1999/xlink" viewBox="0 0 1920 1080" shape-rendering="geometricPrecision" text-rendering="geometricPrecision" project-id="fc59e4ec9801456bae10cc03bd8d06c3" export-id="bfface2b5f5a47deae948aabfa2b9a93" cached="false"><g transform="translate(213.904774 661.104295)"><rect width="162.61" height="16.06" rx="0" ry="0" transform="matrix(0 0.844312-1 0 528.69 25.680079)"/><rect width="137.43" height="16.06" rx="0" ry="0" transform="matrix(0 1.04974-1 0 16.06 18.851014)"/><rect id="eQTw64jCcpW5" width="215.21" height="16.06" rx="0" ry="0" transform="matrix(.98777 0.155917-.155917 0.98777 137.550083 119.223647)"/><rect width="173.78" height="16.06" rx="0" ry="0" transform="matrix(0 0.851099-1 0 1032.46 25.68008)"/><rect width="112.03" height="16.06" rx="0" ry="0" transform="translate(0 155.09)"/><rect width="325.21" height="16.06" rx="0" ry="0" transform="translate(358.06 155.09)"/><circle r="23.94" transform="translate(707.6 163.12)" fill="#fff" stroke="#000" stroke-width="10" stroke-miterlimit="10"/><circle r="23.94" transform="translate(332.45 163.12)" fill="#fff" stroke="#000" stroke-width="10" stroke-miterlimit="10"/><circle r="23.94" transform="translate(134.59 163.12)" fill="#fff" stroke="#000" stroke-width="10" stroke-miterlimit="10"/><rect width="110.06" height="16.06" rx="0" ry="0" transform="translate(914.37 157.72)"/><circle r="23.94" transform="translate(901.87 162.18)" fill="#fff" stroke="#000" stroke-width="10" stroke-miterlimit="10"/></g>
</svg>
