<svg id="e03iONd5UfW1" xmlns="http://www.w3.org/2000/svg" xmlns:xlink="http://www.w3.org/1999/xlink" viewBox="0 0 1920 1080" shape-rendering="geometricPrecision" text-rendering="geometricPrecision" project-id="74eecbcaa9c341f594d21443fe0571fc" export-id="3b039614ca8d4765848bf949dc56d286" cached="false"><g id="e03iONd5UfW2" transform="translate(33.004032 31.190621)" opacity="0"><path d="M87.82,77.06L51.11,4.17c-.49-.97-1.16-1.8-1.94-2.46-.66-.55-1.39-.97-2.2-1.27-.16-.06-.33-.11-.49-.17-.66-.18-1.35-.28-2.08-.28-2.88,0-5.39,1.56-6.71,4.17L0.97,77.06c-1.32,2.65-1.3,5.57.07,8.07c1.39,2.54,3.87,4.06,6.64,4.06h73.42c2.77,0,5.25-1.53,6.64-4.06c1.37-2.5,1.39-5.42.07-8.07h.01Z" fill="#feea5e"/><path d="M44.4,55.17v0c3.83,0,6.94-3.31,6.94-7.35v-15.9c0-3.93-2.91-7.15-6.59-7.35-.12,0-.24-.02-.36-.02v0c-3.83,0-6.94,3.31-6.94,7.35v15.9c.02,4.08,3.12,7.37,6.95,7.37Z"/><path d="M49.06,64.43c-.16-.17-.33-.31-.52-.44-.26-.22-.55-.4-.85-.57-.99-.57-2.12-.88-3.31-.88v0c-3.83,0-6.94,3.31-6.94,7.35s3.12,7.35,6.94,7.35v0c1.2,0,2.32-.33,3.31-.88.29-.17.57-.37.85-.57.17-.15.35-.29.52-.44c1.4-1.34,2.27-3.29,2.27-5.44s-.87-4.12-2.27-5.48Z"/></g><g id="e03iONd5UfW6" transform="translate(210 30.640619)" opacity="0"><g><path d="M87.54,25.32L62.68,0.46c-.3-.29-.69-.46-1.11-.46h-35.14c-.42,0-.82.17-1.11.46L0.46,25.32c-.29.29-.46.69-.46,1.11v35.14c0,.42.17.82.46,1.11L25.32,87.54c.29.29.69.46,1.11.46h35.14c.42,0,.82-.17,1.11-.46L87.54,62.68c.29-.29.46-.69.46-1.11v-35.14c0-.42-.17-.82-.46-1.11Z" fill="#e53935"/><path d="M18.61,38.67c-1.17-.39-2.15-.58-2.94-.58-.63,0-1.12.12-1.48.35s-.54.57-.54,1.01.16.78.47,1.06c.31.29.7.52,1.16.69s1.14.4,2.04.68c1.34.39,2.45.77,3.32,1.16s1.62.98,2.25,1.78c.62.8.94,1.84.94,3.13s-.34,2.39-1.02,3.3-1.61,1.6-2.8,2.06-2.51.69-3.96.69c-1.6,0-3.2-.28-4.79-.84s-2.97-1.33-4.13-2.3l1.96-3.95c.98.87,2.13,1.57,3.46,2.12s2.52.83,3.55.83c.75,0,1.35-.14,1.78-.41s.65-.68.65-1.21c0-.44-.16-.81-.48-1.1s-.73-.53-1.21-.7c-.49-.17-1.17-.38-2.06-.62-1.32-.37-2.42-.74-3.28-1.12s-1.6-.95-2.22-1.71-.92-1.78-.92-3.05c0-1.2.32-2.24.95-3.15.63-.9,1.54-1.6,2.7-2.08c1.17-.49,2.52-.73,4.07-.73c1.4,0,2.78.2,4.14.59c1.36.4,2.56.92,3.59,1.59l-1.9,4.03c-1.03-.61-2.13-1.1-3.3-1.49v-.03Z" fill="#fff"/><path d="M24.73,34.34h16.58v4.17h-5.79v15.18h-5.05v-15.18h-5.74v-4.17Z" fill="#fff"/><path d="M56.94,35.34c1.59.86,2.84,2.05,3.75,3.56s1.37,3.2,1.37,5.08-.46,3.61-1.37,5.13c-.91,1.53-2.16,2.73-3.75,3.61s-3.37,1.32-5.34,1.32-3.75-.44-5.34-1.31-2.84-2.08-3.75-3.61c-.91-1.54-1.37-3.25-1.37-5.15s.46-3.57,1.37-5.08s2.16-2.69,3.75-3.56c1.59-.86,3.37-1.3,5.34-1.3s3.75.43,5.34,1.3v.01Zm-7.95,3.73c-.82.5-1.47,1.18-1.95,2.06-.48.87-.72,1.83-.72,2.88s.24,2.04.73,2.91s1.14,1.56,1.95,2.07s1.69.76,2.65.76s1.83-.25,2.63-.76s1.43-1.2,1.89-2.07.69-1.84.69-2.91-.23-2.01-.69-2.88-1.09-1.56-1.89-2.06-1.68-.75-2.63-.75-1.84.25-2.66.75Z" fill="#fff"/><path d="M78.81,36.12c1.36,1.19,2.04,2.86,2.04,5.01c0,2.28-.68,4.05-2.04,5.31s-3.27,1.89-5.74,1.89h-3.45v5.35h-5.05v-19.34h8.5c2.46,0,4.38.59,5.74,1.78Zm-3.6,7.41c.56-.51.84-1.26.84-2.24s-.28-1.66-.84-2.17-1.36-.76-2.39-.76h-3.2v5.93h3.2c1.03,0,1.83-.26,2.39-.77v.01Z" fill="#fff"/></g></g><g id="e03iONd5UfW13" transform="matrix(.175875 0 0 0.175872 115.952 28.448814)" opacity="0"><path d="M256,0C114.8,0,0,114.8,0,256s114.8,256,256,256s256-114.8,256-256-114.8-256-256-256Z" clip-rule="evenodd" fill="#4bae4f" fill-rule="evenodd"/><path d="M206.7,373.1c-32.7-32.7-65.2-65.7-98-98.4-3.6-3.6-3.6-9.6,0-13.2l37.7-37.7c3.6-3.6,9.6-3.6,13.2,0l53.9,53.9L352.1,139c3.7-3.6,9.6-3.6,13.3,0l37.8,37.8c3.7,3.7,3.7,9.6,0,13.2L219.9,373.1c-3.6,3.7-9.5,3.7-13.2,0Z" fill="#fff"/></g>
</svg>
