<svg id="exAoULm4ThJ1" xmlns="http://www.w3.org/2000/svg" xmlns:xlink="http://www.w3.org/1999/xlink" viewBox="0 0 1920 1080" shape-rendering="geometricPrecision" text-rendering="geometricPrecision" project-id="57af9f82bec9455cbd986165a61c28d2" export-id="98ed34a0dc9b443e9acb960989de95f4" cached="false"><g id="exAoULm4ThJ2" transform="translate(813.610001 361.799996)" opacity="0"><g><rect width="244.14" height="35.19" rx="0" ry="0" transform="translate(3 104.45)" fill="#dae4ea" stroke="#1d1d1b" stroke-width="6" stroke-miterlimit="24.43"/><path d="M240.31,241.13c-8.22,0-16.2-3.13-23.72-9.31-7.26-5.97-13.77-14.51-19.37-25.39-5.59-10.88-9.99-23.55-13.06-37.66-3.18-14.61-4.79-30.12-4.79-46.12s1.61-31.51,4.79-46.12c3.07-14.11,7.46-26.78,13.06-37.66c5.59-10.88,12.11-19.42,19.37-25.39c7.51-6.18,15.49-9.31,23.72-9.31s16.2,3.13,23.72,9.31c7.26,5.97,13.77,14.51,19.37,25.39c5.59,10.88,9.99,23.55,13.06,37.66c3.18,14.61,4.79,30.12,4.79,46.12s-1.61,31.51-4.79,46.12c-3.07,14.11-7.46,26.78-13.06,37.66-5.59,10.88-12.11,19.42-19.37,25.39-7.51,6.18-15.49,9.31-23.72,9.31Z" fill="#c6d0da" fill-rule="evenodd" stroke="#000" stroke-width="6" stroke-miterlimit="10"/><ellipse rx="57.12" ry="111.07" transform="translate(248.03 122.66)" fill="#c6d0da"/><path d="M248.03,47.57c-21.29,0-38.62,33.69-38.62,75.09s17.32,75.09,38.62,75.09s38.62-33.69,38.62-75.09c0-41.41-17.32-75.09-38.62-75.09v0Z" fill="#727993" fill-rule="evenodd"/><path d="M247.57,71.26c-14.58,0-26.43,23.06-26.43,51.4s11.86,51.4,26.43,51.4s26.43-23.06,26.43-51.4-11.86-51.4-26.43-51.4v0Z" fill="#c6d0da" fill-rule="evenodd"/><path d="M248.03,241.13c-8.22,0-16.2-3.13-23.72-9.31-7.26-5.97-13.77-14.51-19.37-25.39-5.59-10.88-9.99-23.55-13.06-37.66-3.18-14.61-4.79-30.12-4.79-46.12s1.61-31.51,4.79-46.12c3.07-14.11,7.46-26.78,13.06-37.66c5.59-10.88,12.11-19.42,19.37-25.39c7.51-6.18,15.49-9.31,23.72-9.31s16.2,3.13,23.72,9.31c7.26,5.97,13.77,14.51,19.37,25.39c5.59,10.88,9.99,23.55,13.06,37.66c3.18,14.61,4.79,30.12,4.79,46.12s-1.61,31.51-4.79,46.12c-3.07,14.11-7.46,26.78-13.06,37.66-5.59,10.88-12.11,19.42-19.37,25.39-7.51,6.18-15.49,9.31-23.72,9.31Zm0-229.54c-31.49,0-57.12,49.82-57.12,111.07s25.62,111.07,57.12,111.07s57.12-49.82,57.12-111.07-25.62-111.07-57.12-111.07Z" fill="#212121" fill-rule="evenodd"/><path d="M248.03,205.16c-5.73,0-11.28-2.18-16.52-6.48-5.05-4.16-9.59-10.1-13.49-17.68s-6.95-16.4-9.09-26.22c-2.21-10.17-3.33-20.98-3.33-32.11s1.12-21.94,3.33-32.11c2.14-9.82,5.2-18.65,9.09-26.22s8.43-13.52,13.49-17.68c5.23-4.3,10.79-6.48,16.52-6.48s11.28,2.18,16.52,6.48c5.05,4.16,9.59,10.1,13.49,17.68s6.95,16.4,9.09,26.22c2.21,10.17,3.33,20.98,3.33,32.11s-1.12,21.94-3.33,32.11c-2.14,9.82-5.2,18.65-9.09,26.22-3.9,7.58-8.43,13.52-13.49,17.68-5.23,4.3-10.79,6.48-16.52,6.48Zm0-157.59c-21.29,0-38.62,33.69-38.62,75.09s17.32,75.09,38.62,75.09s38.62-33.69,38.62-75.09c0-41.41-17.32-75.09-38.62-75.09v0Z" fill="#212121" fill-rule="evenodd"/><path d="M248.03,181.46c-4.08,0-8.04-1.56-11.77-4.62-3.6-2.96-6.84-7.2-9.61-12.6s-4.96-11.69-6.48-18.69c-1.58-7.25-2.38-14.95-2.38-22.89s.8-15.64,2.38-22.89c1.52-7,3.7-13.29,6.48-18.69s6.01-9.64,9.61-12.6c3.73-3.07,7.69-4.62,11.77-4.62s8.04,1.56,11.77,4.62c3.6,2.96,6.84,7.2,9.61,12.6c2.78,5.4,4.96,11.69,6.48,18.69c1.58,7.25,2.38,14.95,2.38,22.89s-.8,15.64-2.38,22.89c-1.52,7-3.7,13.29-6.48,18.69s-6.01,9.64-9.61,12.6c-3.73,3.07-7.69,4.62-11.77,4.62v0Zm0-110.2c-14.58,0-26.43,23.06-26.43,51.4s11.86,51.4,26.43,51.4s26.43-23.06,26.43-51.4-11.86-51.4-26.43-51.4v0Z" fill="#212121" fill-rule="evenodd"/><path d="M248.03,142.52c-5.63,0-10.21-8.91-10.21-19.86s4.58-19.86,10.21-19.86s10.21,8.91,10.21,19.86-4.58,19.86-10.21,19.86Zm0-32.31c-3.53,0-6.4,5.59-6.4,12.45s2.87,12.45,6.4,12.45s6.4-5.59,6.4-12.45-2.87-12.45-6.4-12.45v0Z" fill="#212121" fill-rule="evenodd"/><path d="M260.62,107.98c-1.34,0-2.61-1.02-3.56-2.87s-1.47-4.31-1.47-6.92.52-5.07,1.47-6.92s2.21-2.87,3.56-2.87s2.61,1.02,3.56,2.87c1.96,3.82,1.96,10.02,0,13.84-.95,1.85-2.21,2.87-3.56,2.87Zm0-12.17c-.33,0-.63.25-.87.7s-.36,1.05-.36,1.68.13,1.23.36,1.68.54.7.87.7.63-.25.87-.7c.23-.45.36-1.05.36-1.68s-.13-1.23-.36-1.68-.54-.7-.87-.7Z" fill="#212121" fill-rule="evenodd"/><path d="M235.45,156.92c-1.34,0-2.61-1.02-3.56-2.87-1.96-3.82-1.96-10.02,0-13.84s5.16-3.82,7.12,0c.95,1.85,1.47,4.31,1.47,6.92s-.52,5.07-1.47,6.92-2.21,2.87-3.56,2.87Zm0-12.17c-.33,0-.63.25-.87.7-.23.45-.36,1.05-.36,1.68s.13,1.23.36,1.68.54.7.87.7.63-.25.87-.7.36-1.05.36-1.68-.13-1.23-.36-1.68-.54-.7-.87-.7Z" fill="#212121" fill-rule="evenodd"/><path d="M235.45,107.97c-1.29,0-2.58-.95-3.56-2.86-1.96-3.82-1.96-10.02,0-13.84s5.16-3.82,7.12,0s1.96,10.02,0,13.84c-.98,1.91-2.27,2.86-3.56,2.86Zm0-12.16c-.33,0-.63.25-.87.7s-.36,1.05-.36,1.68.13,1.23.36,1.68.54.7.87.7.63-.25.87-.7c.23-.45.36-1.05.36-1.68s-.13-1.23-.36-1.68-.54-.7-.87-.7Z" fill="#212121" fill-rule="evenodd"/><path d="M260.62,156.91c-1.29,0-2.58-.95-3.56-2.86s-1.47-4.31-1.47-6.92.52-5.07,1.47-6.92s2.21-2.87,3.56-2.87s2.61,1.02,3.56,2.87c1.96,3.82,1.96,10.02,0,13.84-.98,1.91-2.27,2.86-3.56,2.86Zm0-12.16c-.33,0-.63.25-.87.7-.23.45-.36,1.05-.36,1.68s.13,1.23.36,1.68.54.7.87.7.63-.25.87-.7.36-1.05.36-1.68-.13-1.23-.36-1.68-.54-.7-.87-.7Z" fill="#212121" fill-rule="evenodd"/><path d="M230.24,132.45c-2.78,0-5.03-4.39-5.03-9.79s2.26-9.79,5.03-9.79s5.03,4.39,5.03,9.79-2.26,9.79-5.03,9.79Zm0-12.17c-.68,0-1.22,1.07-1.22,2.38s.55,2.38,1.22,2.38s1.22-1.07,1.22-2.38-.55-2.38-1.22-2.38Z" fill="#212121" fill-rule="evenodd"/><path d="M265.83,132.45c-2.78,0-5.03-4.39-5.03-9.79s2.26-9.79,5.03-9.79s5.03,4.39,5.03,9.79-2.26,9.79-5.03,9.79Zm0-12.17c-.68,0-1.22,1.07-1.22,2.38s.55,2.38,1.22,2.38s1.22-1.07,1.22-2.38-.55-2.38-1.22-2.38Z" fill="#212121" fill-rule="evenodd"/><path d="M248.03,167.05c-2.78,0-5.03-4.39-5.03-9.79s2.26-9.79,5.03-9.79s5.03,4.39,5.03,9.79-2.26,9.79-5.03,9.79Zm0-12.17c-.68,0-1.22,1.07-1.22,2.38s.55,2.38,1.22,2.38s1.22-1.07,1.22-2.38-.55-2.38-1.22-2.38Z" fill="#212121" fill-rule="evenodd"/><path d="M248.03,97.84c-2.78,0-5.03-4.39-5.03-9.79s2.26-9.79,5.03-9.79s5.03,4.39,5.03,9.79-2.26,9.79-5.03,9.79Zm0-12.17c-.68,0-1.22,1.07-1.22,2.38s.55,2.38,1.22,2.38s1.22-1.07,1.22-2.38-.55-2.38-1.22-2.38Z" fill="#212121" fill-rule="evenodd"/><path d="M248.03,229.25c-2.78,0-5.03-4.39-5.03-9.79s2.26-9.79,5.03-9.79s5.03,4.39,5.03,9.79-2.26,9.79-5.03,9.79Zm0-12.17c-.68,0-1.22,1.07-1.22,2.38s.55,2.38,1.22,2.38s1.22-1.07,1.22-2.38-.55-2.38-1.22-2.38Z" fill="#212121" fill-rule="evenodd"/><path d="M248.03,35.64c-2.78,0-5.03-4.39-5.03-9.79s2.26-9.79,5.03-9.79s5.03,4.39,5.03,9.79-2.26,9.79-5.03,9.79Zm0-12.17c-.68,0-1.22,1.07-1.22,2.38s.55,2.38,1.22,2.38s1.22-1.07,1.22-2.38-.55-2.38-1.22-2.38Z" fill="#212121" fill-rule="evenodd"/><path d="M223.13,216.29c-.87,0-1.73-.44-2.51-1.32-1.16-1.31-2-3.42-2.34-5.94-.35-2.53-.17-5.16.5-7.43.67-2.26,1.76-3.88,3.06-4.56s2.65-.33,3.82.98s2,3.42,2.34,5.94c.35,2.53.17,5.16-.5,7.43-.67,2.26-1.76,3.88-3.06,4.56-.43.23-.87.34-1.31.34Zm.01-12.17c-.43,0-.85.46-1.06,1.19-.16.55-.21,1.19-.12,1.81.08.61.29,1.13.57,1.45s.61.4.93.24.58-.56.74-1.11.21-1.19.12-1.81-.29-1.13-.57-1.45c-.19-.21-.4-.32-.61-.32Z" fill="#212121" fill-rule="evenodd"/><path d="M272.92,48.62c-.87,0-1.73-.44-2.51-1.32-1.16-1.31-2-3.42-2.34-5.94-.35-2.52-.17-5.16.5-7.43.67-2.26,1.76-3.88,3.06-4.56s2.65-.33,3.82.98c2.4,2.7,3.23,8.7,1.84,13.37-.67,2.26-1.76,3.88-3.06,4.56-.43.23-.87.34-1.31.34v0Zm.01-12.17c-.11,0-.21.03-.32.08-.32.16-.58.56-.74,1.11s-.21,1.19-.12,1.81c.08.61.29,1.13.57,1.45s.61.4.93.24.58-.56.74-1.11c.34-1.14.14-2.6-.45-3.25-.19-.21-.4-.32-.61-.32v0-.01Z" transform="translate(.000001 0)" fill="#212121" fill-rule="evenodd"/><path d="M272.93,216.28c-1.74,0-3.44-1.76-4.37-4.89-.67-2.26-.85-4.9-.5-7.43.35-2.52,1.18-4.64,2.34-5.94c1.16-1.31,2.52-1.65,3.82-.98c1.3.68,2.38,2.3,3.06,4.56c1.39,4.67.56,10.67-1.84,13.37-.79.89-1.65,1.31-2.51,1.31v0Zm-.01-12.17c-.54-.01-1.05.75-1.18,1.77-.08.61-.04,1.26.12,1.81s.43.95.74,1.11c.32.16.65.08.93-.24.59-.66.79-2.12.45-3.25-.16-.55-.43-.95-.74-1.11-.11-.05-.21-.08-.32-.08v-.01Z" fill="#212121" fill-rule="evenodd"/><path d="M223.15,48.62c-.44,0-.88-.11-1.31-.34-1.3-.68-2.38-2.3-3.06-4.56-1.39-4.67-.56-10.67,1.84-13.37c1.16-1.31,2.52-1.65,3.82-.98c1.3.68,2.38,2.3,3.06,4.56s.85,4.9.5,7.43-1.18,4.64-2.34,5.94c-.78.87-1.64,1.31-2.51,1.31v.01Zm-.01-12.17c-.54-.01-1.05.75-1.18,1.77-.08.61-.04,1.26.12,1.81s.43.95.74,1.11.65.08.93-.24.49-.83.57-1.45.04-1.26-.12-1.81-.43-.95-.74-1.11c-.11-.06-.21-.08-.32-.08Z" fill="#212121" fill-rule="evenodd"/><path d="M204.93,180.85c-1.74,0-3.44-1.76-4.37-4.89-.67-2.26-.85-4.9-.5-7.43s1.18-4.64,2.34-5.94c1.16-1.31,2.52-1.65,3.82-.98s2.38,2.3,3.06,4.56c.67,2.26.85,4.9.5,7.43-.35,2.52-1.18,4.64-2.34,5.94-.79.89-1.66,1.31-2.51,1.31Zm-.01-12.17c-.91-.06-1.54,2.07-1.06,3.57.34,1.14,1.09,1.53,1.67.87.28-.32.49-.83.57-1.45s.04-1.26-.12-1.81-.43-.95-.74-1.11c-.11-.05-.21-.08-.32-.08v.01Z" fill="#212121" fill-rule="evenodd"/><path d="M291.16,84.05c-.44,0-.88-.11-1.31-.34-1.3-.68-2.38-2.3-3.06-4.56-.67-2.26-.85-4.9-.5-7.43.35-2.52,1.18-4.64,2.34-5.94c1.16-1.31,2.52-1.65,3.82-.98c1.3.68,2.38,2.3,3.06,4.56c1.39,4.67.56,10.67-1.84,13.37-.78.87-1.64,1.32-2.51,1.32v0Zm-.01-12.17c-.21,0-.42.11-.61.32-.28.32-.49.83-.57,1.45s-.04,1.26.12,1.81.43.95.74,1.11.65.08.93-.24c.59-.66.79-2.12.45-3.25-.16-.55-.43-.95-.74-1.11-.11-.05-.21-.08-.32-.08v0-.01Z" fill="#212121" fill-rule="evenodd"/><path d="M291.14,180.86c-.87,0-1.73-.44-2.51-1.32-1.16-1.31-2-3.42-2.34-5.94s-.17-5.16.5-7.43c.67-2.26,1.76-3.88,3.06-4.56s2.65-.33,3.82.98c1.16,1.31,2,3.42,2.34,5.94.35,2.52.17,5.16-.5,7.43s-1.76,3.88-3.06,4.56c-.43.23-.87.34-1.31.34v0Zm.01-12.17c-.78-.04-1.41,1.54-1.19,3c.08.61.29,1.13.57,1.45s.61.4.93.24.58-.56.74-1.11.21-1.19.12-1.81-.29-1.13-.57-1.45c-.19-.21-.4-.32-.61-.32h.01Z" fill="#212121" fill-rule="evenodd"/><path d="M204.91,84.04c-.85,0-1.72-.42-2.51-1.31-2.4-2.7-3.23-8.7-1.84-13.37s4.47-6.28,6.87-3.58s3.23,8.7,1.84,13.37c-.93,3.14-2.63,4.89-4.37,4.89h.01Zm.01-12.17c-.42,0-.84.43-1.06,1.19-.34,1.14-.14,2.6.45,3.25.59.66,1.34.27,1.67-.87s.14-2.6-.45-3.25c-.19-.22-.4-.32-.61-.32Z" fill="#212121" fill-rule="evenodd"/><path d="M198.25,132.45c-2.78,0-5.03-4.39-5.03-9.79s2.26-9.79,5.03-9.79s5.03,4.39,5.03,9.79-2.26,9.79-5.03,9.79Zm0-12.17c-.68,0-1.22,1.07-1.22,2.38s.55,2.38,1.22,2.38s1.22-1.07,1.22-2.38-.55-2.38-1.22-2.38Z" fill="#212121" fill-rule="evenodd"/><path d="M297.82,132.45c-2.78,0-5.03-4.39-5.03-9.79s2.26-9.79,5.03-9.79c1.34,0,2.61,1.02,3.56,2.87s1.47,4.31,1.47,6.92c0,5.4-2.26,9.79-5.03,9.79v0Zm0-12.17c-.68,0-1.22,1.07-1.22,2.38s.55,2.38,1.22,2.38s1.22-1.07,1.22-2.38c0-.64-.13-1.23-.36-1.68s-.54-.7-.87-.7v0h.01Z" fill="#212121" fill-rule="evenodd"/><path d="M247.57,110.21c-3.53,0-6.4,5.59-6.4,12.45s2.87,12.45,6.4,12.45s6.4-5.59,6.4-12.45-2.87-12.45-6.4-12.45v0Z" fill="#727993" fill-rule="evenodd"/></g><g id="exAoULm4ThJ34"><path d="M384.54,239.94c-8.22,0-16.2-3.13-23.72-9.31-7.26-5.97-13.77-14.51-19.37-25.39-5.59-10.88-9.99-23.55-13.06-37.66-3.18-14.61-4.79-30.12-4.79-46.12s1.61-31.51,4.79-46.12c3.07-14.11,7.46-26.78,13.06-37.66c5.59-10.88,12.11-19.42,19.37-25.39c7.51-6.18,15.49-9.31,23.72-9.31s16.2,3.13,23.72,9.31c7.26,5.97,13.77,14.51,19.37,25.39c5.59,10.88,9.99,23.55,13.06,37.66c3.18,14.61,4.79,30.12,4.79,46.12s-1.61,31.51-4.79,46.12c-3.07,14.11-7.46,26.78-13.06,37.66-5.59,10.88-12.11,19.42-19.37,25.39-7.51,6.18-15.49,9.31-23.72,9.31Z" fill="#c6d0da" fill-rule="evenodd" stroke="#000" stroke-width="3" stroke-miterlimit="10"/><path d="M393.9,239.94c-8.22,0-16.2-3.13-23.72-9.31-7.26-5.97-13.77-14.51-19.37-25.39-5.59-10.88-9.99-23.55-13.06-37.66-3.18-14.61-4.79-30.12-4.79-46.12s1.61-31.51,4.79-46.12c3.07-14.11,7.46-26.78,13.06-37.66c5.59-10.88,12.11-19.42,19.37-25.39c7.51-6.18,15.49-9.31,23.72-9.31s16.2,3.13,23.72,9.31c7.26,5.97,13.77,14.51,19.37,25.39c5.59,10.88,9.99,23.55,13.06,37.66c3.18,14.61,4.79,30.12,4.79,46.12s-1.61,31.51-4.79,46.12c-3.07,14.11-7.46,26.78-13.06,37.66-5.59,10.88-12.11,19.42-19.37,25.39-7.51,6.18-15.49,9.31-23.72,9.31Z" fill="#c6d0da" fill-rule="evenodd" stroke="#000" stroke-width="6" stroke-miterlimit="10"/><path d="M397.91,47.57c-21.29,0-38.62,33.69-38.62,75.09s17.32,75.09,38.62,75.09s38.62-33.69,38.62-75.09c0-41.41-17.32-75.09-38.62-75.09v0Z" fill="#727993" fill-rule="evenodd" stroke="#000" stroke-width="3" stroke-miterlimit="10"/><path d="M740.39,139.64h-332.81c-5.34,0-9.67-7.16-9.67-17.15v0c0-11.95,4.33-18.03,9.67-18.03h332.81c5.34,0,9.67,4.2,9.67,9.37v16.44c0,5.18-4.33,9.37-9.67,9.37Z" fill="#dae4ea" stroke="#1d1d1b" stroke-width="6" stroke-miterlimit="24.43"/></g></g><g id="exAoULm4ThJ39" transform="matrix(1.177624 0 0 1 763.606375 463.259996)" opacity="0"><rect width="564.85" height="35.19" rx="0" ry="0" transform="translate(3 3)" fill="#dae4ea" stroke="#1d1d1b" stroke-width="6" stroke-miterlimit="24.43"/></g>
</svg>
