<svg id="eQRXoy7Zzfv1" xmlns="http://www.w3.org/2000/svg" xmlns:xlink="http://www.w3.org/1999/xlink" viewBox="0 0 1920 1080" shape-rendering="geometricPrecision" text-rendering="geometricPrecision" project-id="f957d2f9cf524dcb949538c66a00f59e" export-id="d8b7ee91218f4763af1c2f4d61f06bbd" cached="false"><g id="eQRXoy7Zzfv2" transform="translate(1267.287582 159.042725)" opacity="0"><rect width="435.44" height="26.36" rx="0" ry="0" transform="translate(118.91 572.75)" fill="#d2dbed"/><path d="M532.72,5.67h-529.13c0,0-2.32,65.87-2.32,65.87h118.48c3.13,167.89,5.83,262.96,8.08,285.2s15.58,54.95,39.99,98.13l-34.07,93.61-13.72,4.27v22.24l94.5-.39v-21.85l-14.14-4.27l30.59-38.35c52.46,18.93,87.84,27.87,106.16,26.83s48.75-8.46,101.74-25.44L460.5,527.2l16.56,21.29-14.81,4.5v18.32h92.1l.06-18.55-12.42-3.97-36.25-99.76c23.22-35.14,35.92-75.61,38.1-121.4c3.27-68.68-69.22-201.94-194.87-201.94-83.77,0-141.4,39.98-141.22,49l-3.53-98.94l11.51-7.39L531.8,67.05l.92-61.37v0-.01Z" fill="#2d7f95"/><circle r="119.63" transform="translate(337.85 332.31)" fill="#1e4e80"/><g clip-path="url(#eQRXoy7Zzfv29)"><g><path d="M207.8,173.43l1.3,158.4" fill="none" stroke="#000" stroke-width="4.63" stroke-linecap="round" stroke-linejoin="round"/><path d="M214.53,112.73l.12,3.84c.03,4.14-3.29,7.61-7.52,7.65l-90.72.75c-4.14.03-7.61-3.29-7.65-7.52l-.12-3.84c-.03-4.14,3.29-7.61,7.52-7.65l90.72-.75c4.24-.03,7.61,3.39,7.65,7.52Z" fill="#bababa" stroke="#000" stroke-width="4.63" stroke-linecap="round" stroke-linejoin="round"/><path d="M165.2,319.01c6.8-.06,12.36,5.41,12.41,12.21.06,6.8-5.41,12.36-12.21,12.41-6.8.06-12.36-5.41-12.41-12.21-.06-6.8,5.41-12.36,12.21-12.41Z" fill="#dddaeb" stroke="#000" stroke-width="4.63" stroke-linecap="round" stroke-linejoin="round"/><path d="M161.44,204.04c6.8-.06,12.36,5.41,12.41,12.21s-5.41,12.36-12.21,12.41c-6.8.06-12.36-5.41-12.41-12.21s5.41-12.36,12.21-12.41Z" fill="#dddaeb" stroke="#000" stroke-width="4.63" stroke-linecap="round" stroke-linejoin="round"/><path d="M218.57,437.53c6.8-.06,12.36,5.41,12.41,12.21s-5.41,12.36-12.21,12.41c-6.8.06-12.36-5.41-12.41-12.21-.06-6.8,5.41-12.36,12.21-12.41Z" fill="#dddaeb" stroke="#000" stroke-width="4.63" stroke-linecap="round" stroke-linejoin="round"/><path d="M455.12,437.45c-6.8.06-12.27,5.62-12.21,12.41.06,6.8,5.62,12.27,12.41,12.21c6.8-.06,12.27-5.62,12.21-12.41-.06-6.8-5.62-12.27-12.41-12.21Z" fill="#dddaeb" stroke="#000" stroke-width="4.63" stroke-linecap="round" stroke-linejoin="round"/><path d="M504.94,317.11c-6.8.06-12.27,5.62-12.21,12.41s5.62,12.27,12.41,12.21s12.27-5.62,12.21-12.41c-.06-6.8-5.62-12.27-12.41-12.21Z" fill="#dddaeb" stroke="#000" stroke-width="4.63" stroke-linecap="round" stroke-linejoin="round"/><path d="M339.42,485.39c6.8-.06,12.36,5.41,12.41,12.21s-5.41,12.36-12.21,12.41c-6.8.06-12.36-5.41-12.41-12.21-.06-6.8,5.41-12.36,12.21-12.41Z" fill="#dddaeb" stroke="#000" stroke-width="4.63" stroke-linecap="round" stroke-linejoin="round"/><path d="M453.34,221.26c-6.8.06-12.36-5.41-12.41-12.21s5.41-12.36,12.21-12.41c6.8-.06,12.36,5.41,12.41,12.21s-5.41,12.36-12.21,12.41Z" fill="#dddaeb" stroke="#000" stroke-width="4.63" stroke-linecap="round" stroke-linejoin="round"/><path d="M336.87,175.24c6.8-.06,12.27-5.62,12.21-12.41-.06-6.8-5.62-12.27-12.41-12.21-6.8.06-12.27,5.62-12.21,12.41.06,6.8,5.62,12.27,12.41,12.21Z" fill="#dddaeb" stroke="#000" stroke-width="4.63" stroke-linecap="round" stroke-linejoin="round"/><path d="M221.65,224.99c6.8-.06,12.27-5.62,12.21-12.41-.06-6.8-5.62-12.27-12.41-12.21-6.8.06-12.27,5.62-12.21,12.41.06,6.8,5.62,12.27,12.41,12.21Z" fill="#dddaeb" stroke="#000" stroke-width="4.63" stroke-linecap="round" stroke-linejoin="round"/><path d="M542.44,328.67c-.16-18.91-3.86-42.48-7.74-54.61-21.3-80.59-91.53-149.09-198.24-148.38-48.96.33-93.73,18.01-128.66,46.97l-.39-47.68-87.37.72l7.81,207.11c4.29,113.65,98.22,203.31,211.89,202.37c83.53-.69,170.12-58.46,195.68-150.88c4.78-17.67,7.29-36.31,7.03-55.62h-.01Z" fill="none" stroke="#000" stroke-width="4.63" stroke-linecap="round" stroke-linejoin="round"/><circle r="129.68" transform="translate(337.85 333.74)" fill="none" stroke="#000" stroke-width="5" stroke-linecap="round" stroke-linejoin="round"/><polygon points="343.05,573.37 341.18,573.37 119.93,573.37 119.93,598 554.35,598 554.35,573.37 343.05,573.37" fill="none" stroke="#000" stroke-width="4.63" stroke-linecap="round" stroke-linejoin="round"/><path d="M213.6,573.37h-93.68v-16.06c0-4.73,3.84-8.57,8.57-8.57h76.54c4.73,0,8.57,3.84,8.57,8.57v16.06Z" fill="none" stroke="#000" stroke-width="4.63" stroke-linecap="round" stroke-linejoin="round"/><path d="M460.73,573.37h93.68v-16.06c0-4.73-3.84-8.57-8.57-8.57h-76.54c-4.73,0-8.57,3.84-8.57,8.57v16.06Z" fill="none" stroke="#000" stroke-width="4.63" stroke-linecap="round" stroke-linejoin="round"/><path d="M199.7,548.74l.69-1.58c7.19-15.76,19.6-28.37,35.07-35.66" fill="none" stroke="#000" stroke-width="4.63" stroke-linecap="round" stroke-linejoin="round"/><path d="M167.82,449.02l-33.99,99.69" fill="none" stroke="#000" stroke-width="4.63" stroke-linecap="round" stroke-linejoin="round"/><path d="M474.63,548.74l-.69-1.58c-7.19-15.76-19.6-28.37-35.07-35.66" fill="none" stroke="#000" stroke-width="4.63" stroke-linecap="round" stroke-linejoin="round"/><path d="M527.82,511.54c3.81,11.17,12.71,37.24,12.71,37.24" fill="none" stroke="#000" stroke-width="4.63" stroke-linecap="round" stroke-linejoin="round"/><path d="M506.51,449.02l21.3,62.52" fill="none" stroke="#000" stroke-width="4.63" stroke-linecap="round" stroke-linejoin="round"/></g><clipPath id="eQRXoy7Zzfv29"><rect width="672.52" height="672.52" rx="0" ry="0" transform="translate(10.39 16.9)" fill="none"/></clipPath></g><ellipse rx="93.94" ry="93.93" transform="translate(336.73 334.78)" fill="#c7e7ff"/><g id="eQRXoy7Zzfv32"><path d="M359.95,335.28c0,12.81-10.44,23.25-23.25,23.25s-23.25-10.44-23.25-23.25s10.44-23.25,23.25-23.25c12.9,0,23.25,10.34,23.25,23.25Z" fill="none" stroke="#000" stroke-width="4.63" stroke-linecap="round" stroke-linejoin="round"/><path d="M336.78,312c0,0-21.77-35.46,0-68.76" fill="none" stroke="#000" stroke-width="4.63" stroke-linecap="round" stroke-linejoin="round"/><path d="M353.15,318.81c0,0,9.65-40.49,48.66-48.66" fill="none" stroke="#000" stroke-width="4.63" stroke-linecap="round" stroke-linejoin="round"/><path d="M359.95,335.28c0,0,35.46-21.77,68.76,0" fill="none" stroke="#000" stroke-width="4.63" stroke-linecap="round" stroke-linejoin="round"/><path d="M353.15,351.65c0,0,40.49,9.65,48.66,48.66" fill="none" stroke="#000" stroke-width="4.63" stroke-linecap="round" stroke-linejoin="round"/><path d="M336.78,358.45c0,0,21.77,35.46,0,68.76" fill="none" stroke="#000" stroke-width="4.63" stroke-linecap="round" stroke-linejoin="round"/><path d="M320.31,351.65c0,0-9.65,40.49-48.66,48.66" fill="none" stroke="#000" stroke-width="4.63" stroke-linecap="round" stroke-linejoin="round"/><path d="M313.5,335.28c0,0-35.46,21.77-68.76,0" fill="none" stroke="#000" stroke-width="4.63" stroke-linecap="round" stroke-linejoin="round"/><path d="M320.31,318.81c0,0-40.49-9.65-48.66-48.66" fill="none" stroke="#000" stroke-width="4.63" stroke-linecap="round" stroke-linejoin="round"/><path d="M336.72,243.2c-9.65,0-19.01,1.48-27.78,4.24-46.7,15.49-64.23,55.36-64.23,87.77c0,50.83,41.18,92.01,92.01,92.01s92.01-41.18,92.01-92.01-41.18-92.01-92.01-92.01Z" fill="none" stroke="#000" stroke-width="4.63" stroke-linecap="round" stroke-linejoin="round"/></g><polygon points="2.52,3.54 176.4,3.91 176.4,71.45 3.16,71.45 2.52,3.54" fill="none" stroke="#000" stroke-width="5"/><path d="M123.27,104.54c-.15-17.27-.23-34.37-.23-51.29c0-25.39,8.68-44.88,29.91-49.33c14.15-2.97,140.73-1.6,378.86-1.6v69.19c0,0-276.89-.62-298.54-.62-32.47,0-29.7.25-29.7,34.26l-80.3-.61v0Z" fill="#2d7f95" stroke="#000" stroke-width="4" stroke-miterlimit="3.7"/></g>
</svg>
