<svg id="e3QDNpqECFe1" xmlns="http://www.w3.org/2000/svg" xmlns:xlink="http://www.w3.org/1999/xlink" viewBox="0 0 1920 1080" shape-rendering="geometricPrecision" text-rendering="geometricPrecision" project-id="d1f1500fd4394770b918b259dae76a67" export-id="1bb37355e9264298b865f9df4b19d7ce" cached="false"><g id="e3QDNpqECFe2" transform="translate(747.32 735.864088)" opacity="0"><rect id="e3QDNpqECFe3" width="332.85" height="16.06" rx="0" ry="0" transform="matrix(1.048873-.002131 0.002032 0.999998 426.536361 232.199363)"/><rect id="e3QDNpqECFe4" width="215.21" height="16.06" rx="0" ry="0" transform="matrix(.988756 0.149539-.149539 0.988756 232.863229 197.440984)"/><circle id="e3QDNpqECFe5" r="23.94" transform="translate(231.15 239.52)" fill="#fff" stroke="#000" stroke-width="10" stroke-miterlimit="10"/><circle id="e3QDNpqECFe6" r="23.94" transform="translate(428.04 239.52)" fill="#fff" stroke="#000" stroke-width="10" stroke-miterlimit="10"/><path d="M807.01,290.67l57.1-2.39-1.34-112.74-57.1,2.39c-13.07.16-23.54,10.88-23.38,23.95l.78,65.41c.16,13.07,10.88,23.54,23.95,23.38h-.01Z" fill="#727993" stroke="#000" stroke-width="3" stroke-linecap="round" stroke-linejoin="round"/><path d="M751.95,276.15l31.14-1.6-.96-80.8-31.14,1.6c-7.13.08-12.82,7.75-12.7,17.11l.56,46.88c.11,9.37,5.98,16.89,13.11,16.81h-.01Z" fill="#727993" stroke="#000" stroke-width="3" stroke-linecap="round" stroke-linejoin="round"/><path d="M723.98,221.32c-6.7.26-11.97,7.88-11.86,17.13v0c.11,9.52,5.86,17.11,12.75,16.84c0,0,14.05,1.43,14-2.51l-.36-30.36c-.05-3.94-14.53-1.1-14.53-1.1Z"/><line x1="798.79" y1="190.8" x2="851.3" y2="187.41" fill="none" stroke="#cedcdf" stroke-width="5" stroke-linecap="round" stroke-linejoin="round"/><line x1="754.27" y1="210.29" x2="754.27" y2="262.9" fill="none" stroke="#cedcdf" stroke-width="5" stroke-linecap="round" stroke-linejoin="round"/><line x1="765.85" y1="210.29" x2="765.85" y2="262.9" fill="none" stroke="#cedcdf" stroke-width="5" stroke-linecap="round" stroke-linejoin="round"/><ellipse rx="26.86" ry="56.59" transform="translate(862.86 232.13)" fill="#cedcdf" stroke="#000" stroke-width="3" stroke-miterlimit="10"/><path d="M864.03,277.99c12.02,0,21.77-20.53,21.77-45.85s-9.75-45.85-21.77-45.85c-11.11,0-20.26,17.53-21.59,40.16-.17-.07-.36-.11-.54-.11-1.52,0-2.76,2.6-2.76,5.81s1.23,5.81,2.76,5.81c.19,0,.37-.04.54-.11c1.33,22.64,10.49,40.16,21.59,40.16v-.02Z"/><ellipse rx="18.14" ry="38.22" transform="translate(864.03 232.13)" fill="#fff"/><ellipse rx="4.68" ry="9.85" transform="translate(875.06 232.13)" fill="none" stroke="#000" stroke-miterlimit="10"/><ellipse rx="2.36" ry="4.98" transform="translate(875.06 232.13)"/><ellipse rx="4.68" ry="9.85" transform="translate(864.03 212.43)" fill="none" stroke="#000" stroke-miterlimit="10"/><ellipse rx="2.36" ry="4.98" transform="translate(864.03 212.43)"/><ellipse rx="4.68" ry="9.85" transform="translate(864.03 251.84)" fill="none" stroke="#000" stroke-miterlimit="10"/><ellipse rx="3.57" ry="7.52" transform="translate(853.33 232.13)"/><ellipse rx="2.36" ry="4.98" transform="translate(864.03 251.84)"/><path d="M99.16,249.77c-17.55,0-30.92-5.12-39.74-15.23-12.38-14.19-10.75-33-10.43-35.75c1.45-19.02,18.79-37.65,38.85-59.21c24.26-26.06,51.75-55.6,51.49-88.12-.17-21.88-21.17-35.47-54.79-35.47h-84.54L0,0h84.54c42.76,0,70.55,20.15,70.79,51.34.31,38.89-29.49,70.91-55.78,99.15-17.32,18.61-33.68,36.18-34.62,49.63-.01.18-.03.35-.05.53-.01.1-1.66,14.02,6.68,23.47c5.65,6.41,14.94,9.66,27.6,9.66c47.35,0,105.54-1.18,106.13-1.19l.33,16c-.58.01-58.94,1.2-106.45,1.2l-.01-.02Z"/></g>
</svg>
