<svg id="e3RBhsteZJF1" xmlns="http://www.w3.org/2000/svg" xmlns:xlink="http://www.w3.org/1999/xlink" viewBox="0 0 1920 1080" shape-rendering="geometricPrecision" text-rendering="geometricPrecision" project-id="26b71e537f2d41c2b082cb612e5da413" export-id="544436d4efb6403ea12c83484deb9095" cached="false"><g id="e3RBhsteZJF2" transform="translate(1640.54231 648.85098)" opacity="0"><path d="M125.66,21.77c-9.16-.97-18.2-3-26.9-6.08C90.79,12.88,83.13,9.2,75.93,4.76c-3.83-2.35-8.65-2.35-12.48,0-7.2,4.43-14.85,8.12-22.83,10.93-8.7,3.05-17.71,5.11-26.9,6.08-6.11.63-10.73,5.77-10.73,11.9v35.52c0,26.7,14.49,51.3,37.82,64.26l23.04,12.79c3.61,2.04,8.02,2.04,11.63,0l23.04-12.82c23.33-12.96,37.8-37.56,37.8-64.26v-35.52c0-6.13-4.63-11.27-10.73-11.9c0,0,.05.02.05.02l.02.01Z" fill="#64ace2" stroke="#1d1d1b" stroke-width="6" stroke-linecap="round" stroke-linejoin="round"/><g id="e3RBhsteZJF4" opacity="0"><path d="M41.46,109.76c-1.71.1-3.39-.47-4.68-1.58-2.56-2.57-2.56-6.73,0-9.3L92.76,42.9c2.66-2.49,6.83-2.35,9.32.31c2.25,2.4,2.38,6.1.31,8.66L46.08,108.18c-1.28,1.1-2.93,1.66-4.62,1.58v0Z"/><path d="M97.38,109.76c-1.73,0-3.39-.69-4.62-1.91L36.78,51.87c-2.37-2.77-2.05-6.93.72-9.3c2.47-2.11,6.11-2.11,8.58,0l56.31,55.98c2.66,2.49,2.8,6.66.31,9.32-.1.11-.2.21-.31.31-1.38,1.2-3.19,1.77-5.01,1.58v0Z"/></g></g>
</svg>
