<svg id="exbg5vhnFQ81" xmlns="http://www.w3.org/2000/svg" xmlns:xlink="http://www.w3.org/1999/xlink" viewBox="0 0 1920 1080" shape-rendering="geometricPrecision" text-rendering="geometricPrecision" project-id="3c570337c8a64af0829df7af32548da8" export-id="4ba9dd0604b3420594c48156c39c021e" cached="false"><g id="exbg5vhnFQ82" transform="translate(1764.047535 35.54937)" opacity="0"><path d="M40.2,63.1L55.28,78.18L70.36,63.1c-8.32-8.32-21.83-8.32-30.15,0h-.01Z"/><path d="M20.1,43L30.15,53.05c13.87-13.87,36.38-13.87,50.25,0L90.45,43C71.03,23.58,39.52,23.58,20.1,43Z"/><path d="M0,22.9L10.05,32.95c24.97-24.97,65.48-24.97,90.45,0L110.55,22.9C80.02,-7.63,30.53,-7.63,0,22.9Z"/></g><g id="exbg5vhnFQ86" transform="translate(1780.807536 29.950621)" opacity="0"><path d="M36.31,6.69h4.42v12.46h-4.42v-12.46Z" fill="#375e6f"/><path d="M49.15,2.66v4.16c0,.79-.64,1.43-1.43,1.43h-18.4c-.79,0-1.43-.64-1.43-1.43v-4.16c0-.79.64-1.43,1.43-1.43h18.4c.79,0,1.43.64,1.43,1.43Z" fill="#214c5f" fill-rule="evenodd"/><path d="M68.52,18.21l3.13,3.12-8.81,8.82-3.13-3.13l8.81-8.81Z" fill="#ffc300" fill-rule="evenodd"/><path d="M75.12,23.55c-.96.96-2.5.96-3.46,0L66.3,18.2c-.95-.96-.95-2.5,0-3.46.96-.95,2.5-.95,3.46,0l5.35,5.35c.95.96.95,2.5,0,3.46v0h.01Z" fill="#e6b000" fill-rule="evenodd"/><path d="M5.39,21.33l3.13-3.12l8.81,8.81-3.13,3.13-8.81-8.82Z" fill="#ffc300" fill-rule="evenodd"/><path d="M10.73,14.74c.95.96.95,2.5,0,3.46L5.38,23.55c-.96.96-2.51.96-3.46,0s-.95-2.5,0-3.46l5.36-5.35c.96-.95,2.5-.95,3.46,0v0h-.01Z" fill="#e6b000" fill-rule="evenodd"/><path d="M38.52,88.16c20.28,0,36.81-16.54,36.81-36.82s-16.53-36.82-36.81-36.82-36.82,16.54-36.82,36.82s16.54,36.82,36.82,36.82v0Z" fill="#009ecf" fill-rule="evenodd"/><path d="M38.52,80.22c15.9,0,28.88-12.97,28.88-28.88s-12.97-28.88-28.88-28.88-28.88,12.97-28.88,28.88s12.97,28.88,28.88,28.88v0Z" fill="#eaf6ff" fill-rule="evenodd"/><path d="M38.52,54.78c1.9,0,3.44-1.54,3.44-3.44s-1.54-3.44-3.44-3.44-3.44,1.54-3.44,3.44s1.54,3.44,3.44,3.44Z" fill="#375e6f" fill-rule="evenodd"/><path d="M6.42,51.34c0-17.66,12.54-32.84,29.89-36.17c1.46-.28,2.94-.46,4.42-.56.05,0,.1,0,.15,0-.05,0-.1,0-.15,0-.73-.04-1.46-.06-2.21-.06s-1.48.02-2.21.06c-8.23.48-16.05,3.73-22.21,9.2-1.1.98-2.15,2.02-3.13,3.12C4.99,33.66,1.69,42.35,1.7,51.35c0,20.33,16.48,36.82,36.82,36.82.79,0,1.57-.02,2.36-.07C21.65,86.88,6.42,70.9,6.42,51.35v0-.01Z" fill="#008eba" fill-rule="evenodd"/><path d="M36.34,22.54c15.9,1.21,27.82,15.08,26.61,30.99-1.08,14.23-12.39,25.53-26.61,26.61.72.05,1.44.08,2.18.08c15.95,0,28.88-12.93,28.88-28.88s-12.93-28.88-28.88-28.88c-.74,0-1.46.02-2.18.08v0Z" fill="#d3dde6" fill-rule="evenodd"/><path d="M70.55,24.17l.25.25c1.43,1.43,3.75,1.43,5.19,0v0c1.43-1.44,1.42-3.75,0-5.19l-5.35-5.36c-1.44-1.42-3.76-1.41-5.19.03-1.41,1.43-1.41,3.73,0,5.16l.25.25-2.83,2.83c-5.92-4.96-13.22-7.99-20.91-8.68v-3.98h5.76c1.47,0,2.66-1.19,2.66-2.66v-4.16C50.38,1.19,49.19,0,47.72,0h-18.4c-1.47,0-2.66,1.19-2.66,2.66v4.16c0,1.47,1.19,2.66,2.66,2.66h5.76v3.98c-7.69.69-14.99,3.72-20.91,8.68l-2.83-2.83.25-.25c1.43-1.43,1.43-3.75,0-5.18v0c-1.43-1.43-3.75-1.43-5.19,0L1.05,19.24c-1.42,1.44-1.4,3.77.04,5.19c1.43,1.4,3.72,1.4,5.15,0l.25-.25l2.83,2.83C3.6,33.82,0.47,42.44,0.48,51.34c0,20.98,17.06,38.04,38.04,38.04s38.04-17.07,38.04-38.04c0-8.9-3.12-17.52-8.84-24.34l2.83-2.83ZM67.18,15.6c.48-.47,1.25-.47,1.73,0l5.35,5.36c.47.48.47,1.26-.01,1.73s-1.24.47-1.72,0l-1.08-1.08c0,0-.02-.03-.04-.04s-.03-.02-.04-.04l-4.2-4.2c-.48-.48-.48-1.25,0-1.73h.01Zm.25,5.44l1.4,1.4-2.73,2.73c-.45-.48-.92-.94-1.4-1.4l2.73-2.73ZM34.6,7.03v-4.59h2.69v4.59h-2.69Zm5.14-4.59h2.69v4.59h-2.69v-4.59Zm8.19.21v4.16c0,.12-.1.21-.21.21h-2.84v-4.58h2.84c.12,0,.21.1.21.21v0ZM29.11,6.81v-4.15c0-.12.1-.21.21-.21h2.84v4.59h-2.84c-.12,0-.21-.1-.21-.21v-.02Zm8.42,2.66h1.98v3.84c-.33,0-.66-.01-.99-.01s-.66,0-.99.01v-3.84ZM2.78,22.69c-.48-.48-.48-1.25,0-1.73L8.13,15.6c.48-.48,1.25-.48,1.73,0s.48,1.25,0,1.73v0l-4.2,4.2c0,0-.03.02-.04.04s-.02.03-.04.04L4.5,22.69c-.48.47-1.25.47-1.73,0v0h.01Zm5.44-.25l1.4-1.4l2.73,2.73c-.48.45-.94.92-1.4,1.4L8.22,22.44Zm30.3,64.5c-19.63,0-35.59-15.97-35.59-35.6s14.83-34.44,33.48-35.53c0,0,.02,0,.02,0c.69-.04,1.38-.06,2.08-.06s1.39.02,2.08.06c0,0,.02,0,.02,0C59.26,16.9,74.09,32.42,74.09,51.34s-15.97,35.6-35.59,35.6v0h.02ZM59.8,30.06c0,0-.09-.08-.14-.12-11.71-11.6-30.58-11.6-42.29,0-.1.07-.19.16-.26.26-11.59,11.71-11.6,30.57,0,42.28.07.1.16.19.27.27c11.71,11.6,30.57,11.6,42.28,0c.1-.07.19-.16.27-.27c11.59-11.71,11.59-30.57,0-42.28-.04-.05-.08-.1-.12-.14v0h-.01Zm2.97,22.5h3.38c-.28,6.48-2.84,12.66-7.23,17.44l-2.38-2.38c-.48-.48-1.25-.48-1.73,0s-.48,1.25,0,1.73l2.38,2.38c-4.78,4.39-10.96,6.96-17.44,7.24v-3.38c0-.67-.55-1.22-1.22-1.22s-1.22.55-1.22,1.22v0v3.38c-6.49-.28-12.66-2.85-17.44-7.24l2.38-2.38c.48-.48.48-1.25,0-1.73s-1.25-.48-1.73,0L18.14,70c-4.39-4.78-6.95-10.96-7.23-17.44h3.38c.67,0,1.22-.55,1.22-1.22s-.55-1.22-1.22-1.22h-3.38c.28-6.48,2.84-12.66,7.23-17.44l2.38,2.38c.48.48,1.25.48,1.73,0s.48-1.25,0-1.73l-2.38-2.38c4.78-4.39,10.96-6.96,17.44-7.24v3.38c0,.67.55,1.22,1.22,1.22s1.22-.55,1.22-1.22v-3.38c6.49.28,12.66,2.85,17.44,7.24l-2.38,2.38c-.48.48-.48,1.25,0,1.73s1.25.48,1.73,0v0l2.38-2.38c4.39,4.78,6.95,10.95,7.23,17.44h-3.38c-.67,0-1.22.55-1.22,1.22s.55,1.22,1.22,1.22v0ZM39.74,46.84v-13.29c0-.67-.55-1.22-1.22-1.22s-1.22.55-1.22,1.22v0v13.29c-2.48.67-3.95,3.24-3.28,5.72s3.24,3.95,5.72,3.28s3.95-3.24,3.28-5.72c-.43-1.6-1.68-2.84-3.28-3.28Zm-1.22,6.72c-1.23,0-2.22-.99-2.22-2.22s.99-2.22,2.22-2.22s2.22.99,2.22,2.22-.99,2.22-2.22,2.22Z"/></g><g id="exbg5vhnFQ819" transform="translate(1773.475607 32.001845)" opacity="0"><rect width="64.85" height="64.85" rx="0" ry="0" transform="matrix(.707107 0.707107-.707107 0.707107 45.86-.007112)" fill="#feea5e"/><rect width="9.46" height="42.26" rx="0" ry="0" transform="translate(41.13 24.73)"/></g><g id="exbg5vhnFQ822" transform="translate(1778.451542 13.338747)" opacity="0"><path d="M78.16,62.43v18c0,7.79-3.28,15.23-9.06,20.46-9.47,8.62-19.29,7.13-32.32,7.13-15.24,0-27.59-12.35-27.59-27.59v-18.39c0-7.98,13.79-5.13,13.79,4.6v-34.48c0-1.89.77-3.71,2.15-5.01s3.22-1.99,5.12-1.89c3.75.34,6.6,3.52,6.53,7.29v18c0-3.81,3.09-6.9,6.9-6.9s6.9,3.09,6.9,6.9v4.6c0-3.81,3.09-6.9,6.9-6.9s6.9,3.09,6.9,6.9v6.9c0-1.89.77-3.71,2.15-5.01s3.22-1.99,5.12-1.89c3.75.34,6.6,3.52,6.53,7.29l-.02-.01Z" fill="#f6ccaf"/><path d="M78.16,62.43v18c0,9.24-4.62,17.87-12.32,22.99h-19.86c-12.7,0-22.99-10.29-22.99-22.99v-48.28c-.03-2.07.86-4.04,2.44-5.37s3.67-1.89,5.7-1.52c3.4.74,5.78,3.81,5.66,7.29v18c0-1.89.77-3.71,2.15-5.01s3.22-1.99,5.12-1.89c3.74.34,6.59,3.51,6.53,7.26v4.23c0-1.89.77-3.71,2.15-5.01s3.22-1.99,5.12-1.89c3.74.34,6.59,3.51,6.53,7.26v6.53c-.03-2.07.86-4.04,2.44-5.37s3.67-1.89,5.7-1.52c3.4.74,5.78,3.81,5.66,7.29h-.03Z" fill="#ffdec7"/><path d="M22.99,66.64v13.79c0,1.27-1.03,2.3-2.3,2.3s-2.3-1.03-2.3-2.3v-21.77c2.85,1.64,4.6,4.69,4.6,7.98Z" fill="#edb996"/><path d="M48.09,32.5c.97-6.81-1.94-13.59-7.54-17.57s-12.96-4.52-19.07-1.38-9.97,9.43-9.99,16.31c0,2.18.11,4.6,2.46,4.6.67,0,1.32-.28,1.76-.79s.64-1.19.54-1.85c-.76-5.34,1.66-10.64,6.2-13.55c4.54-2.92,10.36-2.92,14.9,0s6.96,8.21,6.2,13.55c-.08,1.19.77,2.24,1.95,2.42s2.3-.57,2.58-1.73l.01-.01Z" fill="#231f20"/><path d="M29.89,4.57c7.82,0,15.2,3.62,19.99,9.8s6.45,14.23,4.49,21.81c-.32,1.23.42,2.49,1.66,2.8s2.49-.42,2.8-1.66c3.11-12.1-1.63-24.85-11.88-31.98-10.26-7.12-23.87-7.12-34.12.01-10.26,7.13-15,19.88-11.89,31.98.32,1.23,1.57,1.97,2.8,1.66s1.97-1.57,1.66-2.8c-1.96-7.57-.3-15.62,4.49-21.81c4.79-6.18,12.17-9.8,19.99-9.8l.01-.01Z" fill="#231f20"/><path d="M66.67,54.16c-.36-3.18-2.34-5.95-5.24-7.3s-6.29-1.11-8.96.66c-.91-2.61-2.94-4.66-5.53-5.61s-5.47-.67-7.84.74v-10.09c.16-3.74-1.97-7.21-5.38-8.76s-7.42-.88-10.14,1.7c-3.82,3.61-2.87,5.36-2.87,31.95-6.21-4.6-13.79-1.84-13.79,4.6v18.39c0,16.5,13.38,29.88,29.88,29.88h13.79c16.5,0,29.88-13.38,29.88-29.88v-18c.11-3.34-1.59-6.48-4.46-8.2s-6.44-1.75-9.33-.08h-.01Zm9.2,26.28c0,13.97-11.32,25.29-25.29,25.29h-13.79c-13.97,0-25.29-11.32-25.29-25.29v-18.39c0-3.22,4.6-2.83,7.1-.37s2.09,4.64,2.09,18.76c0,1.27,1.03,2.3,2.3,2.3s2.3-1.03,2.3-2.3v-48.28c0-1.26.52-2.47,1.43-3.34s2.15-1.32,3.42-1.25c2.52.29,4.41,2.45,4.34,4.99v34.09c0,1.27,1.03,2.3,2.3,2.3s2.3-1.03,2.3-2.3v-16.09c0-2.54,2.06-4.6,4.6-4.6s4.6,2.06,4.6,4.6v16.09c0,1.27,1.03,2.3,2.3,2.3s2.3-1.03,2.3-2.3v-11.49c0-2.54,2.06-4.6,4.6-4.6s4.6,2.06,4.6,4.6v11.49c0,1.27,1.03,2.3,2.3,2.3s2.3-1.03,2.3-2.3c0-4.99-.3-6.3,1.43-7.93c1.38-1.33,3.45-1.67,5.18-.84s2.76,2.65,2.59,4.56v18h-.01Z" fill="#231f20"/></g>
</svg>
