<svg id="eA36RJzextp1" xmlns="http://www.w3.org/2000/svg" xmlns:xlink="http://www.w3.org/1999/xlink" viewBox="0 0 1920 1080" shape-rendering="geometricPrecision" text-rendering="geometricPrecision" project-id="a320e1255df44627a82aa1af6f9b4bf9" export-id="dcd4c6fd255b4c5e801542c485be7cee" cached="false"><g id="eA36RJzextp2" transform="translate(374.614999 537.005)" opacity="0"><path d="M139.71,23.92c-10.21-1.08-20.28-3.35-29.98-6.78-8.89-3.13-17.42-7.24-25.44-12.18-4.27-2.62-9.64-2.62-13.91,0-8.02,4.94-16.56,9.05-25.44,12.18-9.7,3.4-19.74,5.7-29.98,6.78C8.15,24.62,3,30.35,3,37.18v39.59c0,29.76,16.15,57.17,42.16,71.62l25.68,14.26c4.02,2.27,8.94,2.27,12.96,0l25.68-14.29c26.01-14.45,42.13-41.86,42.13-71.62v-39.59c0-6.83-5.16-12.56-11.96-13.26c0,0,.05.03.05.03h.01Z" fill="#64ace2" stroke="#1d1d1b" stroke-width="6" stroke-linecap="round" stroke-linejoin="round"/></g>
</svg>
